<svg xmlns="http://www.w3.org/2000/svg" fill="currentColor" stroke="currentColor" viewBox="0 0 1024 1024">
  <path d="m865.39,169.29l138.83,335.39c1.97,4.76,1.97,10.11,0,14.87l-138.99,335.32c-1.97,4.76-5.76,8.54-10.52,10.51l-335.39,138.83c-4.76,1.97-10.11,1.97-14.87,0l-335.32-138.99c-4.76-1.97-8.54-5.76-10.51-10.52L19.78,519.32c-1.97-4.76-1.97-10.11,0-14.87L158.77,169.12c1.97-4.76,5.76-8.54,10.52-10.51L504.68,19.78c4.76-1.97,10.11-1.97,14.87,0l335.32,138.99c4.76,1.97,8.54,5.76,10.51,10.52Z"/>
</svg>