<svg id="Logo" xmlns="http://www.w3.org/2000/svg" viewBox="0 0 1094 578" width="547" height="289"><path d="M700.8,471.24v-77.48c0-25.04,12.28-43.23,40.63-43.23s40.87,18.19,40.87,43.23v77.48c0,24.8-12.29,43.23-40.87,43.23s-40.63-18.43-40.63-43.23ZM755.37,475.49v-85.99c0-9.68-4.25-16.53-13.94-16.53s-13.7,6.85-13.7,16.53v85.99c0,9.69,4.25,16.54,13.7,16.54s13.94-6.85,13.94-16.54Z"/><path d="M785.23,510.78l29.66-157.12c.14-.72.76-1.24,1.49-1.24h28.2c.73,0,1.36.52,1.49,1.23l29.89,157.12c.18.94-.54,1.8-1.49,1.8h-24.52c-.74,0-1.37-.53-1.5-1.26l-4.53-26.76c-.12-.73-.76-1.26-1.5-1.26h-26.01c-.75,0-1.38.54-1.5,1.28l-4.31,26.74c-.12.74-.75,1.28-1.5,1.28h-22.39c-.95,0-1.67-.87-1.49-1.8ZM820.46,461.79h17.92c.94,0,1.65-.84,1.5-1.77l-10.34-62.49h-.24l-10.34,62.49c-.15.92.56,1.77,1.5,1.77Z"/><path d="M885.38,352.42h23.89c.84,0,1.52.68,1.52,1.52v135.16c0,.84.68,1.52,1.52,1.52h29.09c.84,0,1.52.68,1.52,1.52v18.93c0,.84-.68,1.52-1.52,1.52h-56.02c-.84,0-1.52-.68-1.52-1.52v-157.12c0-.84.68-1.52,1.52-1.52Z"/><path d="M944.81,478.09v-19.98c0-.84.68-1.52,1.52-1.52h22c.84,0,1.52.68,1.52,1.52v20.45c0,8.76,3.82,13.92,12.58,14.17,7.14.2,12.94-5.8,12.94-12.94v-7.36c0-9.21-3.78-14.88-12.05-22.68l-15.83-15.83c-15.35-15.12-22.44-24.33-22.44-42.76v-5.44c0-19.84,11.58-35.2,37.8-35.2s37.56,13.23,37.56,36.38v11.47c0,.84-.68,1.52-1.52,1.52h-21.53c-.84,0-1.52-.68-1.52-1.52v-12.42c0-9.21-4.25-13.7-12.75-13.7-7.56,0-12.76,4.25-12.76,13.23v3.31c0,8.98,4.96,14.17,12.76,21.73l17.24,17.01c14.65,14.88,21.73,23.86,21.73,41.58v7.79c0,21.97-11.81,37.56-39.21,37.56s-38.03-15.36-38.03-36.38Z"/><path d="M646.82,514.43c1.18.07,2.39.12,3.63.12,7.75,0,13.63-1.56,18.75-3.63,14.56-5.9,19.79-19.07,19.79-36.56v-16.44s0-29.33,0-29.33c0-.84-.68-1.52-1.52-1.52h-34.19c-.84,0-1.52.68-1.52,1.52v18.24c0,.84.68,1.52,1.52,1.52h9.73c.84,0,1.52.68,1.52,1.52v26.85c0,10.26-4.81,15.22-13.31,15.36-7.35,0-10.91-3.57-13.03-8.41-.82-2.35-1.21-5.1-1.21-8.13v-88.44c0-7.72,6.18-14.16,13.9-14.17,9.73-.02,13.53,5.66,13.53,15.6v14.8c0,.84.68,1.52,1.52,1.52h21.55c.84,0,1.52-.68,1.52-1.52v-12.67c0-23.64-8.75-40.19-38.54-40.19s-40.43,18.21-40.43,43.27v59.47h0v18.08c0,.93.02,1.85.06,2.77.83,22.54,11.98,38.93,36.74,40.38"/><path d="M648.66,281.41v33.94c0,11.24-4.65,19.67-17.83,19.67h-18.34c-.38,0-.68-.31-.68-.68v-71.92c0-.38.31-.68.68-.68h18.34c13.19,0,17.83,8.32,17.83,19.67ZM629.31,324.97c5.08,0,7.03-3.03,7.03-7.46v-38.37c0-4.32-1.95-7.35-7.03-7.35h-4.51c-.38,0-.68.31-.68.68v51.82c0,.38.31.68.68.68h4.51Z"/><path d="M654.75,261.73h28.04c.38,0,.68.31.68.68v8.69c0,.38-.31.68-.68.68h-15.71c-.38,0-.68.31-.68.68v19.61c0,.38.31.68.68.68h10.85c.38,0,.68.31.68.68v8.58c0,.38-.31.68-.68.68h-10.85c-.38,0-.68.31-.68.68v20.9c0,.38.31.68.68.68h15.71c.38,0,.68.31.68.68v8.69c0,.38-.31.68-.68.68h-28.04c-.38,0-.68-.31-.68-.68v-71.92c0-.38.31-.68.68-.68Z"/><path d="M725.58,262.54l-13.68,71.92c-.06.32-.34.55-.67.55h-12.27c-.33,0-.61-.23-.67-.55l-13.69-71.92c-.08-.42.24-.81.67-.81h11.14c.33,0,.62.24.67.57l8.34,50.56h.11l8.55-50.56c.06-.33.34-.57.67-.57h10.17c.43,0,.75.39.67.81Z"/><path d="M728.58,261.73h28.04c.38,0,.68.31.68.68v8.69c0,.38-.31.68-.68.68h-15.71c-.38,0-.68.31-.68.68v19.61c0,.38.31.68.68.68h10.85c.38,0,.68.31.68.68v8.58c0,.38-.31.68-.68.68h-10.85c-.38,0-.68.31-.68.68v20.9c0,.38.31.68.68.68h15.71c.38,0,.68.31.68.68v8.69c0,.38-.31.68-.68.68h-28.04c-.38,0-.68-.31-.68-.68v-71.92c0-.38.31-.68.68-.68Z"/><path d="M762.95,261.73h10.96c.38,0,.68.31.68.68v61.87c0,.38.31.68.68.68h13.34c.38,0,.68.31.68.68v8.69c0,.38-.31.68-.68.68h-25.66c-.38,0-.68-.31-.68-.68v-71.92c0-.38.31-.68.68-.68Z"/><path d="M790.16,316.1v-35.46c0-11.46,5.62-19.78,18.59-19.78s18.7,8.32,18.7,19.78v35.46c0,11.35-5.62,19.78-18.7,19.78s-18.59-8.43-18.59-19.78ZM815.13,318.05v-39.35c0-4.43-1.95-7.57-6.38-7.57s-6.27,3.13-6.27,7.57v39.35c0,4.43,1.95,7.57,6.27,7.57s6.38-3.13,6.38-7.57Z"/><path d="M832.85,262.41c0-.38.31-.68.68-.68h17.59c12.43,0,16.97,6.16,16.97,16.43v15.46c0,10.27-4.54,16.54-16.97,16.54h-5.26c-.38,0-.68.31-.68.68v23.5c0,.38-.31.68-.68.68h-10.96c-.38,0-.68-.31-.68-.68v-71.92ZM845.18,272.47v27.5c0,.38.31.68.68.68h3.86c4.22,0,6.05-2.05,6.05-6.05v-16.86c0-4-1.84-5.95-6.05-5.95h-3.86c-.38,0-.68.31-.68.68Z"/><path d="M905.82,287.46h-.32l-8.22,47c-.06.33-.34.56-.67.56h-4.59c-.33,0-.61-.23-.67-.55l-9.08-47.01h-.22v46.88c0,.38-.31.68-.68.68h-8.8c-.38,0-.68-.31-.68-.68v-71.92c0-.38.31-.68.68-.68h13.13c.33,0,.61.23.67.55l7.89,40.74h.11l7.04-40.73c.06-.33.34-.57.67-.57h14.31c.38,0,.68.31.68.68v71.92c0,.38-.31.68-.68.68h-9.88c-.38,0-.68-.31-.68-.68v-46.88Z"/><path d="M923.15,261.73h28.04c.38,0,.68.31.68.68v8.69c0,.38-.31.68-.68.68h-15.71c-.38,0-.68.31-.68.68v19.61c0,.38.31.68.68.68h10.85c.38,0,.68.31.68.68v8.58c0,.38-.31.68-.68.68h-10.85c-.38,0-.68.31-.68.68v20.9c0,.38.31.68.68.68h15.71c.38,0,.68.31.68.68v8.69c0,.38-.31.68-.68.68h-28.04c-.38,0-.68-.31-.68-.68v-71.92c0-.38.31-.68.68-.68Z"/><path d="M967.21,288.97v45.37c0,.38-.31.68-.68.68h-9.01c-.38,0-.68-.31-.68-.68v-71.92c0-.38.31-.68.68-.68h10.92c.3,0,.56.19.65.48l13.14,41.57v-41.37c0-.38.31-.68.68-.68h8.9c.38,0,.68.31.68.68v71.92c0,.38-.31.68-.68.68h-9.63c-.3,0-.56-.19-.65-.48l-14.33-45.57Z"/><path d="M996.11,261.73h31.39c.38,0,.68.31.68.68v8.69c0,.38-.31.68-.68.68h-8.8c-.38,0-.68.31-.68.68v61.87c0,.38-.31.68-.68.68h-11.07c-.38,0-.68-.31-.68-.68v-61.87c0-.38-.31-.68-.68-.68h-8.8c-.38,0-.68-.31-.68-.68v-8.69c0-.38.31-.68.68-.68Z"/><path d="M613.32,63.67h26.89c.92,0,1.67.75,1.67,1.67v176.48c0,.92-.75,1.67-1.67,1.67h-26.89c-.92,0-1.67-.75-1.67-1.67V65.35c0-.92.75-1.67,1.67-1.67Z"/><path d="M680.87,130.51v111.32c0,.92-.75,1.67-1.67,1.67h-22.11c-.92,0-1.67-.75-1.67-1.67V65.35c0-.92.75-1.67,1.67-1.67h26.81c.73,0,1.38.47,1.6,1.17l32.25,102.01v-101.5c0-.92.75-1.67,1.67-1.67h21.85c.92,0,1.67.75,1.67,1.67v176.48c0,.92-.75,1.67-1.67,1.67h-23.62c-.73,0-1.38-.47-1.6-1.17l-35.17-111.82Z"/><path d="M781.65,130.51v111.32c0,.92-.75,1.67-1.67,1.67h-22.11c-.92,0-1.67-.75-1.67-1.67V65.35c0-.92.75-1.67,1.67-1.67h26.81c.73,0,1.38.47,1.6,1.17l32.25,102.01v-101.5c0-.92.75-1.67,1.67-1.67h21.85c.92,0,1.67.75,1.67,1.67v176.48c0,.92-.75,1.67-1.67,1.67h-23.62c-.73,0-1.38-.47-1.6-1.17l-35.17-111.82Z"/><path d="M858.65,63.67h68.8c.92,0,1.67.75,1.67,1.67v21.32c0,.92-.75,1.67-1.67,1.67h-38.56c-.92,0-1.67.75-1.67,1.67v48.11c0,.92.75,1.67,1.67,1.67h26.62c.92,0,1.67.75,1.67,1.67v21.05c0,.92-.75,1.67-1.67,1.67h-26.62c-.92,0-1.67.75-1.67,1.67v51.29c0,.92.75,1.67,1.67,1.67h38.56c.92,0,1.67.75,1.67,1.67v21.32c0,.92-.75,1.67-1.67,1.67h-68.8c-.92,0-1.67-.75-1.67-1.67V65.35c0-.92.75-1.67,1.67-1.67Z"/><path d="M967.6,161.01v80.81c0,.92-.75,1.67-1.67,1.67h-26.89c-.92,0-1.67-.75-1.67-1.67V65.35c0-.92.75-1.67,1.67-1.67h42.36c30.5,0,41.64,15.12,41.64,40.32v23.08c0,19.36-6.9,30.77-24.14,34.75l28.12,79.46c.39,1.09-.42,2.23-1.58,2.23h-28.26c-.71,0-1.35-.45-1.58-1.13l-27.99-81.36ZM967.6,90.01v52.62c0,.92.75,1.67,1.67,1.67h8.4c10.35,0,14.85-5.3,14.85-14.85v-26.52c0-9.81-4.51-14.59-14.85-14.59h-8.4c-.92,0-1.67.75-1.67,1.67Z"/><path d="M311.41,129.23c-87.65,0-160.02,71.79-160.02,160.02s71.79,160.02,160.02,160.02c94.04,0,163.05-73.84,160.02-160.02-3.1-88.18-71.79-160.02-160.02-160.02ZM311.41,428.58c-85.29-5.41-139.32-62.5-139.32-139.32s62.5-139.32,139.32-139.32c81.3,4.41,139.32,62.5,139.32,139.32s-62.65,144.18-139.32,139.32Z"/><path d="M311.25,82.85c-113.81,0-206.4,105.87-206.4,206.4,0,113.81,92.59,206.4,206.4,206.4,103.44,0,197.35-78.46,206.4-206.4,8.03-113.52-103.84-206.4-206.4-206.4ZM311.25,470.99c-114.78,3.43-181.74-81.53-181.74-181.74s93.57-181.75,181.74-181.74c100.21,0,181.74,81.53,181.74,181.74s-81.57,178.75-181.74,181.74Z"/><path d="M311.38,210.82c-43.25,0-78.43,40.23-78.43,78.43,0,43.25,35.18,78.43,78.43,78.43,39.31,0,74.99-29.81,78.43-78.43,3.05-43.14-39.46-78.43-78.43-78.43ZM311.38,347.79c-36.97,1.1-58.54-26.26-58.54-58.54s30.14-58.54,58.54-58.54c32.28,0,58.54,26.26,58.54,58.54s-26.27,57.57-58.54,58.54Z"/><path d="M311.49,171.18c-68.52,0-118.07,52.86-118.07,118.07-2.19,61.72,49.54,115.52,118.07,118.07,70.9,0,118.07-52.86,118.07-118.07,0-68.52-52.86-118.07-118.07-118.07ZM381,358.76c-18.57,18.57-43.25,28.79-69.51,28.79s-50.94-10.23-69.51-28.79c-18.57-18.57-29.61-50.43-28.79-69.51-.04-31.78,10.23-50.94,28.79-69.51,18.57-18.57,43.25-28.79,69.51-28.79,34.97,1.66,50.94,10.23,69.51,28.79,18.57,18.57,28.79,43.25,28.79,69.51-.5,26.52-9.73,53.74-28.79,69.51Z"/><path d="M309.86,44.56c-134.54-6.81-243.92,116.12-243.92,243.92,0,134.41,109.21,243.92,243.92,243.92,157.39,0,243.92-117.12,243.92-243.92,0-134.71-92.1-236.23-243.92-243.92ZM309.85,512.57c-123.77,0-215.78-100.61-224.1-224.1-7.07-104.85,100.49-230.36,224.1-224.1,139.49,7.06,224.1,100.33,224.1,224.1,0,114.9-82.81,224.1-224.1,224.1Z"/></svg>