<?xml version="1.0" encoding="UTF-8"?><svg id="Logo" xmlns="http://www.w3.org/2000/svg" viewBox="0 0 1080 1080"><defs><style>.cls-1{fill:#7f2141;}.cls-2{fill:#e585a1;}.cls-3{fill:#ff7e2a;}.cls-4{fill:#d4b88c;}.cls-5{fill:#ef4136;}</style></defs><path class="cls-5" d="M543.09,221.57c-175.41,0-320.25,143.66-320.25,320.25s143.66,320.25,320.25,320.25c188.2,0,326.31-147.77,320.25-320.25-6.2-176.48-143.66-320.25-320.25-320.25ZM543.09,820.65c-170.69-10.83-278.81-125.07-278.81-278.81s125.07-278.81,278.81-278.81c162.7,8.82,278.81,125.07,278.81,278.81s-125.38,288.54-278.81,278.81Z"/><path class="cls-3" d="M542.78,128.76c-227.76,0-413.06,211.87-413.06,413.06,0,227.76,185.3,413.06,413.06,413.06,207.01,0,394.95-157.02,413.06-413.06,16.07-227.19-207.81-413.06-413.06-413.06ZM542.79,905.53c-229.7,6.86-363.72-163.16-363.72-363.71s187.26-363.73,363.72-363.71c200.55,0,363.72,163.16,363.72,363.71s-163.25,357.73-363.72,363.71Z"/><path class="cls-4" d="M543.03,384.86c-86.55,0-156.96,80.51-156.96,156.96,0,86.55,70.41,156.96,156.96,156.96,78.66,0,150.08-59.67,156.96-156.96,6.11-86.33-78.97-156.96-156.96-156.96ZM543.04,658.97c-73.99,2.21-117.15-52.55-117.15-117.15s60.31-117.15,117.15-117.15c64.6,0,117.15,52.55,117.15,117.15s-52.58,115.22-117.15,117.15Z"/><path class="cls-2" d="M543.26,305.53c-137.14,0-236.29,105.79-236.29,236.29-4.38,123.51,99.15,231.19,236.29,236.29,141.89,0,236.29-105.79,236.29-236.29,0-137.14-105.79-236.29-236.29-236.29ZM682.36,680.93c-37.16,37.16-86.56,57.62-139.11,57.62s-101.95-20.46-139.11-57.62c-37.16-37.16-59.26-100.93-57.62-139.11-.09-63.6,20.46-101.95,57.62-139.11,37.16-37.16,86.56-57.62,139.11-57.62,69.98,3.33,101.95,20.46,139.11,57.62,37.16,37.16,57.62,86.56,57.62,139.11-1,53.08-19.46,107.55-57.62,139.11Z"/><path class="cls-1" d="M540,52.12C270.75,38.49,51.85,284.5,51.85,540.27c0,268.99,218.55,488.15,488.15,488.15,314.99,0,488.15-234.38,488.15-488.15,0-269.6-184.32-472.77-488.15-488.15ZM539.97,988.74c-247.7,0-431.84-201.36-448.49-448.49-14.14-209.83,201.11-461.02,448.49-448.49,279.15,14.13,448.49,200.8,448.49,448.49,0,229.95-165.73,448.49-448.49,448.49Z"/></svg>