<?xml version="1.0" encoding="UTF-8"?>
<svg id="Layer_1" data-name="Layer 1" xmlns="http://www.w3.org/2000/svg" viewBox="0 0 198.43 198.43">
  <defs>
    <style>
      .cls-1 {
        fill: #fff;
        stroke-width: 0px;
      }
    </style>
  </defs>
  <path class="cls-1" d="m187.11,98.17s-4.04-5.97-9.69-13.9c-6.03-8.46-13.89-19.15-20.67-27.24-6.17-7.36-32.95-40.04-32.95-40.04-.7-.68-1.64-1.06-2.62-1.06,0,0-1.94-.08-5.2-.19l-50.08.13c-14.2.45-52.59.06-52.59.06-.92,0-1.68.62-1.92,1.47-.04.24-.07.51-.08.81-.04,4.71-.61,69.6-.61,85.04,0,.43,0,.82,0,1.15.01,3.04.06,9.91.13,18.3.18,22.96.49,57.8.49,57.8,0,.64.31,1.21.78,1.57.34.26.76.43,1.22.43,0,0,40.3.43,51.94.15,27.28-.67,55.9-.15,55.9-.15.98,0,1.91-.38,2.61-1.06,0,0,17.9-21.03,30.31-37.58,13.97-18.63,33.02-42.83,33.02-42.83.81-.78.81-2.08,0-2.87Zm-29.73,33c-2.53,3.28-5.03,6.54-7.37,9.66-9.4,12.54-22.16,27.87-27.48,34.2-4.72-3.76-20.15-16.03-25.15-19.55-2.68-1.89-5.53-4.02-8.31-6.16,3.32-3.58,12.9-14.06,19.35-22.66,8.41-11.22,18.49-25.95,19.55-27.3,0,0,0,0,0,0l1.4-1.93c.27-.38.29-.89.03-1.28l-.94-1.43c-.13-.22-.28-.43-.41-.63-1.24-1.83-11.13-16.73-19.14-26.28-.46-.54-1.1-1.32-1.87-2.25,10.39-2.64,22.44-5.16,24.6-5.6,1.52,1.23,14.31,11.57,26.78,20.85,4.54,3.38,17.92,14.04,22.89,18.01.18.31.18.69-.02,1-1.19,1.89-3.53,5.05-6.53,8.97-5.84,7.3-13.35,16.74-17.39,22.37ZM15.02,104.63c-.03-7.26.21-38.28.4-61.1,7.46.06,27.74.2,34.19-.13,13.37-.68,31.03-.06,34.55.08.36.01.69.18.92.46,1.02,1.24,3.2,3.9,5.81,7.08-8.78,8.83-19.01,18.25-21.17,20.5-.36.15-.62.48-.66.87l-.13,1.58c-.03.24-.04.47-.06.69-.14,2.04-1.06,18.54-.67,30.08.19,5.58.36,30.31.36,30.56l.02.28s0,.03,0,.04l.04.88c.02.44.22.85.55,1.13l.72.61c.13.13.26.26.41.37.15.13.79.67,1.8,1.52h0c2.3,1.93,6.52,5.44,11.29,9.2-4.93-.07-20.85-.25-35.99.12-6.22.15-25.01,0-32.02-.07-.15-18.02-.32-38.52-.35-44.75ZM120.26,20.83c2.09,7.59,3.94,15.08,6.22,22.22,1.44,4.52,3.05,8.68,4.63,13.23-.21.04-.4.07-.49.08l-.23.04c-.15.03-14.5,2.97-25.98,5.96-3.09-3.75-7.01-8.52-10.25-12.47,2.39-2.55,4.7-5.11,6.94-7.72,5.8-6.79,12.22-14.35,19.16-21.34Zm-19.3,42.45c-10.49,2.81-23.1,6.07-27.52,7.2,6.7-6.42,12.81-12.33,18.46-18.22,2.92,3.56,6.24,7.6,9.06,11.02Zm51.84-3.56c7.45,8.89,16.15,21.14,22.18,29.84-2.93-2.48-6.12-5.12-8.89-7.3-2.5-1.96-4.69-3.66-6.08-4.69-10.04-7.48-24.4-18.93-27.15-21.13-.11-.09-.23-.15-.36-.2-1.69-4.91-3.98-11.3-5.46-16-2.12-6.75-3.65-11.75-5.48-18.49,5.76,7.03,26.02,31.73,31.25,37.96ZM15.82,20.38c9.37.08,42.32.15,52.43-.18,19.32-.62,45.48-.1,51.11.11-6.94,6.96-13.44,14.11-19.21,20.85-1.9,2.22-4.33,4.81-6.98,7.53-2.98-3.63-5.18-6.32-5.24-6.39l-.2-.22s-.03-.02-.04-.03l-.61-.72c-.31-.36-.75-.58-1.22-.6l-1.02-.05c-.2-.03-.39-.04-.59-.05-.21,0-1.12-.05-2.54-.09h0c-5.78-.19-20.13-.57-31.4,0-6.21.32-28.43.16-34.87.11.07-9.02.14-16.43.17-20.06,0-.12.09-.21.21-.21Zm49.14,157.33c-9.71.24-40.11-.04-49.05-.12-.17,0-.3-.13-.3-.3-.04-4.37-.12-14.06-.22-25.06,4.08.04,16.36.14,24.91.14,3.44,0,6.43-.02,8.3-.06,12.41-.3,32.3-.18,38.44-.12,2.66,2.04,5.37,4.07,7.93,5.87,4.58,3.23,19.93,15.41,25.06,19.5-4.51-.07-30.49-.44-55.07.16Z"/>
</svg>