<?xml version="1.0" encoding="UTF-8"?>
<svg id="Layer_1" data-name="Layer 1" xmlns="http://www.w3.org/2000/svg" viewBox="0 0 198.43 198.43">
  <defs>
    <style>
      .cls-1 {
        fill: #fff;
        stroke-width: 0px;
      }
    </style>
  </defs>
  <path class="cls-1" d="m187.11,98.17s-4.04-5.97-9.69-13.9c-6.03-8.46-13.89-19.15-20.67-27.24-6.17-7.36-32.95-40.04-32.95-40.04-.7-.68-1.64-1.06-2.62-1.06,0,0-1.94-.08-5.2-.19l-50.08.13c-14.2.45-52.59.06-52.59.06-.92,0-1.68.62-1.92,1.47-.04.24-.07.51-.08.81-.04,4.71-.61,69.6-.61,85.04,0,.43,0,.82,0,1.15.01,3.04.06,9.91.13,18.3.18,22.96.49,57.8.49,57.8,0,.64.31,1.21.78,1.57.34.26.76.43,1.22.43,0,0,40.3.43,51.94.15,27.28-.67,55.9-.15,55.9-.15.98,0,1.91-.38,2.61-1.06,0,0,17.9-21.03,30.31-37.58,13.97-18.63,33.02-42.83,33.02-42.83.81-.79.81-2.08,0-2.87Zm-7.89.58c.09.14.14.29.16.44-15.41-.45-78.16-2.24-83.7-1.71-5.57.54-64.61-2.39-78.58-3.09.04-7.61.11-18.09.19-28.78,24,3.66,55.06,9.29,71.57,13.32,15.86,4.73,57.71,13.22,90.24,19.63.04.06.09.13.13.18Zm-.12,1.27l-161.83,31.9c-.1-12.21-.19-23.2-.2-27.43,0-.14,0-.28,0-.44,6.51-.6,22.56-1.88,34.87-1.25,14.19.73,108.29-2.68,127.43-3.39-.02.13-.06.26-.13.38-.04.07-.1.15-.14.22ZM17.6,169.65c-.06-6.82-.15-17.12-.24-27.62l161.57-41.73c-.23.35-.5.75-.79,1.17-14.68,6.15-60.38,25.4-82.95,36.19-12.07,5.77-30.06,13.69-44.13,20.3-10.72,4.69-25.61,9.35-33.45,11.69Zm13.03-109.17c-4.45-1.04-8.88-2.03-13.28-2.97.09-11.88.19-23.18.25-30.18,6.36,2.12,17.37,6.16,28.9,12.14,16.09,8.34,111.49,49.89,132.41,58.83.24.35-.2-.29,0,0-53.11-13.68-102.24-27.07-148.28-37.82Zm38.36-38.33c19.06-.61,44.95-.08,50.04.11.53.02,1.01.26,1.34.67,4.64,5.65,25.78,31.45,31.08,37.76,9.53,11.37,21.14,28.35,26.24,35.81-8.75-4.78-28.13-15.11-43.16-21.22-21.6-8.7-41.61-20.5-41.61-20.5L28.16,22.37c13.36.04,33.41.01,40.83-.23Zm79.74,117.64c-10.88,14.5-26.35,32.84-28.88,35.82-3.12-.05-29.32-.45-54.07.15-7.48.18-27.54.06-39.94-.05,7.71-3.81,18.45-9.07,25.5-12.29,10.84-4.96,83.93-41.23,87.31-42.44,2.64-.95,28.08-13.5,39.09-18.96-5.35,7.56-18.77,24.11-29.01,37.77Z"/>
</svg>