<?xml version="1.0" encoding="UTF-8"?>
<svg id="Layer_1" data-name="Layer 1" xmlns="http://www.w3.org/2000/svg" viewBox="0 0 198.43 198.43">
  <defs>
    <style>
      .cls-1 {
        fill: #fff;
        stroke-width: 0px;
      }
    </style>
  </defs>
  <path class="cls-1" d="m120.46,98.38c0,19.79-12.13,35.84-35.84,35.84-19.79,0-34.51-16.09-35.84-35.84-1.13-16.77,16.07-36.84,35.84-35.84,22.31,1.13,35.84,16.05,35.84,35.84Zm66.65,2.66s-19.04,24.2-33.02,42.83c-12.41,16.54-30.31,37.58-30.31,37.58-.7.68-1.64,1.06-2.61,1.06,0,0-28.62-.52-55.9.15-11.65.28-51.94-.15-51.94-.15-.46,0-.88-.16-1.22-.43-.47-.37-.78-.93-.78-1.57,0,0-.31-34.84-.49-57.8-.06-8.4-.11-15.26-.13-18.3,0-.33,0-.72,0-1.15,0-15.44.57-80.33.61-85.04.02-.31.04-.58.08-.81.24-.84,1-1.47,1.92-1.47,0,0,38.39.39,52.59-.06l50.08-.13c3.26.11,5.2.19,5.2.19.98,0,1.92.38,2.62,1.06,0,0,26.78,32.68,32.95,40.04,6.78,8.08,14.64,18.78,20.67,27.24,5.65,7.93,9.69,13.9,9.69,13.9.81.79.81,2.08,0,2.87Zm-7.11-2.29c-3.85-5.6-17.27-25.58-28.04-38.43-5.35-6.38-26.7-32.41-31.38-38.12-.34-.41-.82-.65-1.35-.67-5.14-.2-31.28-.73-50.52-.11-9.96.32-42.39.26-51.62.18-.12,0-.21.09-.21.2-.11,12.7-.62,72.37-.58,82.75.04,10.27.48,59.95.58,71.53,0,.17.13.29.3.29,8.8.09,38.73.36,48.29.12,24.99-.61,51.44-.2,54.59-.15,2.56-3.02,18.18-21.52,29.15-36.16,11.52-15.36,27.02-34.35,30.81-40.37.21-.33.2-.74-.02-1.06Z"/>
</svg>