<?xml version="1.0" encoding="UTF-8"?>
<svg id="Layer_1" data-name="Layer 1" xmlns="http://www.w3.org/2000/svg" viewBox="0 0 198.43 198.43">
  <defs>
    <style>
      .cls-1 {
        fill: #fff;
        stroke-width: 0px;
      }
    </style>
  </defs>
  <path class="cls-1" d="m187.08,98.21s-17.22-25.46-30.34-41.12c-6.17-7.35-32.93-40.02-32.93-40.02-.7-.68-1.64-1.06-2.62-1.06,0,0-3.9-.17-9.92-.33,0,0-42.5.15-42.98.18-11.64.59-54.92.15-54.92.15-1.1,0-2,.9-2,2,0,0-.67,75-.61,86.97.05,11.97.61,75.53.61,75.53,0,1.1.9,2,2,2,0,0,40.28.43,51.92.15,27.27-.67,55.88-.15,55.88-.15.98,0,1.91-.38,2.61-1.06,0,0,17.89-21.02,30.3-37.56,13.97-18.62,33-42.81,33-42.81.81-.78.81-2.08,0-2.87Z"/>
</svg>