<svg xmlns="http://www.w3.org/2000/svg" viewBox="0 0 198.43 198.43" fill="#fff">
  <path d="m187.11,98.17s-4.04-5.97-9.69-13.9c-6.03-8.46-13.89-19.15-20.67-27.24-6.17-7.36-32.95-40.04-32.95-40.04-.7-.68-1.64-1.06-2.62-1.06,0,0-1.94-.08-5.2-.19l-50.08.13c-14.2.45-52.59.06-52.59.06-.92,0-1.68.62-1.92,1.47-.04.24-.07.51-.08.81-.04,4.71-.61,69.6-.61,85.04,0,.43,0,.82,0,1.15.01,3.04.06,9.91.13,18.3.18,22.96.49,57.8.49,57.8,0,.64.31,1.21.78,1.57.34.26.76.43,1.22.43,0,0,40.3.43,51.94.15,27.28-.67,55.9-.15,55.9-.15.98,0,1.91-.38,2.61-1.06,0,0,17.9-21.03,30.31-37.58,13.97-18.63,33.02-42.83,33.02-42.83.81-.79.81-2.08,0-2.87Zm-28.61-28.61c-9.95,1.93-24.61,4.82-34.94,6.71-29.35,4.89-54.08,9.72-87.84,14.48-.41-1.38-.93-2.7-1.55-3.96,26.22-12.99,46.08-25.6,67.01-39.06,7.97-4.72,18.63-11.73,25.98-16.53,8.17,9.96,20.43,24.88,24.29,29.48,2.27,2.71,4.66,5.74,7.05,8.88Zm-39.47-47.31c.53.02,1.01.26,1.34.67,1.16,1.42,3.36,4.1,6.09,7.43-.06,0-.11.03-.16.06-7.68,4.77-18.3,10.92-26.26,15.64-21.91,12.68-41.35,25.2-67.76,37.54-.72-1.03-1.51-2-2.37-2.9,12.42-13.14,18.96-23.25,30.23-37.57,4.2-5.12,12.96-15.82,17.1-21.16,17.59-.28,37.4.13,41.79.3Zm-50.04-.11c1.95-.06,3.97-.11,6.03-.15-4.02,5.15-8.52,10.28-12.62,15.39-9.98,12.07-24.97,29.97-30.38,35.81-1.57,1.7-3.22,3.36-4.92,5.02-1.02-.76-2.11-1.44-3.26-2.01,4.77-12.79,8.3-25.73,12.24-38.79,1.8-4.93,3.6-10.09,4.77-14.98,0-.01,0-.03,0-.04,11.13,0,22.84-.07,28.13-.24Zm-51.13.17c4.09.04,12.76.07,21.99.06-1.65,4.92-3.48,9.83-5.13,14.71-4.65,12.73-8.91,25.31-14.42,37.72-.99-.29-2.02-.52-3.07-.67.15-20.31.35-44.16.42-51.62,0-.12.09-.2.21-.2Zm-.21,153.03c-.07-8.45-.33-37.36-.47-56.07,1.2-.15,2.37-.41,3.52-.78,5.27,13.78,12.13,27.73,18.46,41.86,2.08,5.14,3.97,10.3,6.04,15.48-10.83-.04-22.35-.15-27.25-.2-.17,0-.29-.13-.29-.29Zm29.22.49c-2.19-5.24-4.72-10.67-6.8-15.83-5.41-14.44-11.68-28.72-16.15-42.85,1.32-.68,2.58-1.5,3.76-2.43,2.43,3.14,6.12,7.78,11,13.13,8.7,9.88,21.23,22.36,29.61,31.67,3.7,4.65,8.32,10.4,13.35,15.97-5.19.05-10.55.13-15.85.26-3.87.09-11.11.11-18.91.08Zm72.98-.23c-2.36-.04-17.94-.28-36.11-.13-4.85-5.47-9.85-11.46-14.55-16.82-13.41-15.63-28.19-31.06-38.89-46.31.99-1.04,1.9-2.15,2.69-3.32,4.08,2.64,11.2,7.21,21.1,12.62,15.12,8.55,37.18,20.17,51.63,28.23,8.34,4.74,15.92,8.59,24.49,13.31-5.1,6.21-9.16,11.02-10.35,12.43Zm28.88-35.82c-5.54,7.39-12.27,15.77-17.88,22.61-8.6-4.82-16.26-9.62-24.7-14.4-14.41-8.54-36.12-19.81-50.74-28.88-9.77-5.83-16.59-10.74-20.48-13.52.49-1.05.88-2.12,1.19-3.2,26.27,5.39,61.61,12.44,93.24,16.94,10.65,1.99,19.86,3.43,30.91,5.41-3.92,5.02-7.93,10.21-11.55,15.04Zm30.52-39.99c-2.44,3.88-9.81,13.22-17.8,23.46-11.05-2.04-20.93-3.97-31.89-6-16.46-2.75-35.44-6.71-51.86-9.97-15.27-2.97-28.25-5.93-40.89-8.86.03-.59.03-1.18,0-1.77-.05-.8-.14-1.6-.27-2.38,15.25-2.56,30.15-5.13,43.04-7.73,15.64-3.07,30.77-5.73,46.65-8.85,10.29-1.91,22.72-5.27,32.95-7.2.01,0,.02-.01.03-.01,8.61,11.39,17.11,24.02,20.03,28.27.22.32.22.72.02,1.05Z"/>
</svg>