<svg xmlns="http://www.w3.org/2000/svg" viewBox="0 0 198.43 198.43" fill="#fff">
  <path d="m121.76,99.21c-1.3,12.37-10.08,22.52-22.52,22.52s-22.52-10.08-22.52-22.52,12.31-22.52,22.52-22.52c12.44,0,23.86,9.85,22.52,22.52Zm-22.52,75.61c-41.69,0-75.61-33.92-75.61-75.61S57.83,23.61,99.24,23.61s74.14,33.94,75.61,75.61c1.43,40.72-31.18,75.61-75.61,75.61Zm72.57-75.61c0-40.02-30.22-70.28-72.57-72.57-40.02,0-72.57,32.56-72.57,72.57s28.14,69.76,72.57,72.57c39.94,2.53,72.57-32.56,72.57-72.57Zm-11.95,0c-2.66,37.58-30.24,60.63-60.63,60.63-33.43,0-60.63-27.2-60.63-60.63,0-29.53,27.2-60.63,60.63-60.63,30.12,0,62.98,27.28,60.63,60.63Zm-6.09,0c0-30.07-24.47-54.54-54.54-54.54-26.46,0-54.54,24.47-54.54,54.54s20.09,55.57,54.54,54.54c30.06-.9,54.54-24.47,54.54-54.54Zm-11.99-.02c0,23.46-19.09,41.45-42.55,41.45-18.74,1.37-42.55-17.99-42.55-41.45s15.19-40.73,42.55-42.55c23.41-1.56,42.55,19.09,42.55,42.55Zm-8.58.02c0-18.73-11.34-33.97-33.97-33.97-18.73,0-33.97,15.24-33.97,33.97s15.26,34.83,33.97,33.97c22.63-1.04,33.97-15.24,33.97-33.97Zm58.7,0c0,51.18-37.02,92.67-92.67,92.67-53.78-2-94.39-44.23-92.67-92.67C6.57,48.03,45.46,6.54,99.24,6.54s92.67,38.89,92.67,92.67ZM131.74,13.94c-8.77-3.03-19.13-4.76-32.5-5.39-24.22,0-46.99,9.43-64.11,26.56-17.13,17.12-26.6,34.8-26.56,64.11-.76,17.6,9.43,46.99,26.56,64.11,17.12,17.12,39.89,26.56,64.11,26.56s46.99-9.43,64.11-26.56c17.59-14.55,26.09-39.65,26.56-64.11,0-24.22-9.43-46.99-26.56-64.11-10.02-10.02-19.23-16.89-31.61-21.16"/>
</svg>