<svg xmlns="http://www.w3.org/2000/svg" viewBox="0 0 198.43 198.43" fill="#fff">
  <path d="m98.93,110.05c-6.04,0-10.94-4.9-10.94-10.94s5.98-10.94,10.94-10.94c6.04,0,11.59,4.78,10.94,10.94-.63,6.01-4.9,10.94-10.94,10.94Zm34.78-11.1c-.67-18.97-15.44-34.43-34.43-34.43-18.86,0-34.43,15.44-34.43,34.43s15.44,34.43,34.43,34.43c20.23,0,35.08-15.89,34.43-34.43Zm-2.33,0c0,17.7-14.44,33.22-32.1,32.1-19.65-1.25-32.1-14.4-32.1-32.1s14.4-32.1,32.1-32.1c18.73,1.02,32.1,14.4,32.1,32.1Zm29.76.26c2.4-34.01-31.11-61.83-61.83-61.83-34.09,0-61.83,31.71-61.83,61.83,0,34.09,27.74,61.83,61.83,61.83,30.99,0,59.12-23.5,61.83-61.83Zm-6.21,0c0,30.67-24.96,54.7-55.62,55.62-35.13,1.05-55.62-24.95-55.62-55.62s28.64-55.62,55.62-55.62c30.67,0,55.62,24.95,55.62,55.62ZM99.24,15.34c-22.4,0-43.46,8.72-59.3,24.56-15.84,15.84-24.6,32.19-24.56,59.3-.7,16.28,8.72,43.46,24.56,59.3,15.84,15.84,36.9,24.56,59.3,24.56s43.46-8.72,59.3-24.56c16.27-13.45,24.14-36.67,24.56-59.3,0-22.4-8.72-43.46-24.56-59.3-15.84-15.84-29.47-23.14-59.3-24.56m0-8.8c51.18,0,92.66,38.88,92.66,92.66s-37.02,92.66-92.66,92.66c-53.78-2-94.38-44.23-92.66-92.66C6.57,48.03,45.46,6.54,99.24,6.54h0Z"/>
</svg>