<svg xmlns="http://www.w3.org/2000/svg" viewBox="0 0 198.43 198.43" fill="#fff">
  <path d="m170.16,99.76c0,1.87-1.87,3.38-3.38,3.38s-2.84-1.05-3.24-2.47c-8.34.04-30.59.12-48.09.12-.21,1.31-.52,2.58-.95,3.79l19.7,8.16c.92-.93,2.36-1.21,3.74-.83,1.59.44,2.59,2.71,1.83,4.41-.77,1.72-2.86,2.54-4.41,1.83-1.35-.62-2.15-1.96-2.06-3.35l-19.69-8.16c-.66,1.36-1.47,2.61-2.41,3.73l33.58,34.74c1.31-.65,2.97-.5,3.88.69.95,1.25,1.27,3.48-.07,4.78-1.34,1.3-3.38,1.16-4.78-.07-1.25-1.11-1.32-2.57-.68-3.77-5.5-5.81-20.43-21.59-33.21-35-1,.95-2.1,1.77-3.31,2.42,4.7,10.19,11.07,24.31,13.72,30.19,1.4-.12,2.78.68,3.45,1.96.86,1.65,0,3.7-1.71,4.46-1.7.76-3.68-.62-4.46-1.71-.87-1.22-.33-2.84.79-3.84l-13.48-30.28c-1.37.53-2.84.88-4.4.99,0,19.99-.08,46.7-.09,50.58,1.29.52,2.31,1.6,2.31,3.08s-1.51,3.38-3.38,3.38c-1.58,0-3.38-1.51-3.38-3.38,0-1.3.96-2.81,2.27-3.26-.02-4.46-.12-30.71-.12-50.4-1.54-.11-3.02-.44-4.41-.95-3.25,7.68-6.35,15.51-7.88,19.41,1.02,1.01,1.24,2.8,1.03,3.85-.37,1.83-2.69,2.54-4.41,1.83-1.72-.71-2.59-3.11-1.83-4.41.71-1.22,1.88-2.04,3.16-2.07,1.68-4.08,4.94-11.97,8.06-19.44-1.33-.69-2.55-1.56-3.64-2.58-11.88,11.42-30.22,29.24-37.06,35.9.68,1.34.42,3.11-.59,4.01-1.78,1.57-3.48,1.27-4.78-.07-1.3-1.34-1.39-3.62.07-4.78,1.03-.81,2.57-1.12,3.82-.58,6.47-6.28,24.58-23.82,37.3-35.78-1.27-1.48-2.27-3.19-2.94-5.06l-31.96,12.56c.11,1.46-.77,2.85-2.21,3.46-2.11.89-3.69-.28-4.32-2.04s.26-3.74,2.04-4.32c1.94-.64,3.03-.18,3.71.81l32.23-12.19c-.23-.97-.37-1.96-.43-2.99-14.32-.06-39.17.06-47.86.11-.3,1.44-1.36,2.5-3.28,2.5s-3.38-1.51-3.38-3.38,2.22-3.38,3.38-3.38c1.4,0,2.6.85,3.11,2.07,9.02.04,33.24.15,48.04.35.1-1.53.45-3,1-4.38l-19.76-8.18c-.91.96-2.37,1.2-3.81.91-1.37-.27-2.54-2.69-1.83-4.41.71-1.72,2.65-2.43,4.41-1.83.91.31,1.93,1.77,2.01,3.21l19.96,8.27c.72-1.26,1.6-2.42,2.6-3.46-6.14-5.96-27.43-27.92-34.33-35.05-1.07.48-2.26.23-3.71-.82-1.51-1.09-1.35-3.57.07-4.78,1.88-1.6,3.18-.9,4.78.07,1.32.8,1.31,2.68.49,4.04,7.29,7.9,29.4,30.34,34.16,35.16.82-.69,1.69-1.31,2.59-1.85-3.79-8.05-11.56-25.42-14.38-32.22-1.15.08-2.16-.56-3.2-2.05-1.07-1.53,0-3.7,1.71-4.46,1.7-.76,3.71.36,4.46,1.71.74,1.34.25,2.95-.88,3.91,2.6,6.11,8.63,20.21,13.86,32.26,1.66-.78,3.39-1.26,5.06-1.4.05-14.75-.06-39.33-.1-48.07-1.28-.53-2.29-1.6-2.29-3.07s1.51-3.38,3.38-3.38c1.58,0,3.38,1.51,3.38,3.38,0,1.32-.99,2.85-2.32,3.27-.03,8.97-.11,33.48-.08,47.86,1.47.09,2.9.35,4.27.79,3.04-7.42,6.2-15.47,7.84-19.68-1-.93-1.38-2.42-.83-3.76.71-1.72,2.09-2.94,4.41-1.83,1.68.81,2.54,2.69,1.83,4.41-.58,1.39-1.97,2.17-3.39,2.06-1.73,4.24-4.87,11.93-7.99,19.52,1.71.77,3.28,1.8,4.62,3.05,9.88-9.7,22.74-22.78,27.65-27.78-.54-1.31-.17-2.97.65-3.86,1.26-1.37,3.48-1.27,4.78.07s1.53,3.82-.07,4.78c-1.09.65-2.73,1.07-4.01.46-4.77,4.64-17.74,17.26-28.1,27.26.83.91,1.55,1.91,2.13,2.99l26.8-10.14c.16-1.25,1.15-2.35,2.18-3.04,1.55-1.04,3.69.28,4.32,2.04.63,1.76-.18,4.17-2.04,4.32-2.01.16-3.16-.13-3.86-1.14l-26.63,9.75c.62,1.71.89,3.56.75,5.51,17.59-.14,40.34-.58,48.02-.73.51-1.23,1.72-2.11,3.12-2.11,1.87,0,3.38,1.51,3.38,3.38Zm21.5-.55c0,51.18-37.02,92.67-92.67,92.67-53.78-2-94.39-44.23-92.67-92.67C6.32,48.03,45.21,6.54,98.99,6.54s92.67,38.89,92.67,92.67Zm-4.81,0c0-23.47-9.14-45.53-25.73-62.13-16.59-16.59-30.87-24.25-62.13-25.73-23.47,0-45.53,9.14-62.13,25.73-16.59,16.59-25.77,33.72-25.73,62.13-.73,17.05,9.14,45.53,25.73,62.13,16.59,16.59,38.66,25.73,62.13,25.73s45.53-9.14,62.13-25.73c17.04-14.09,25.28-38.42,25.73-62.13Z"/>
</svg>