<?xml version="1.0" encoding="UTF-8"?>
<svg id="Layer_1" data-name="Layer 1" xmlns="http://www.w3.org/2000/svg" viewBox="0 0 198.43 198.43">
  <defs>
    <style>
      .cls-1 {
        fill: #fff;
        stroke-width: 0px;
      }
    </style>
  </defs>
  <path class="cls-1" d="m109.86,99.19c-.62,5.88-4.8,10.71-10.71,10.71s-10.71-4.8-10.71-10.71,5.85-10.71,10.71-10.71c5.92,0,11.35,4.68,10.71,10.71Zm82.05.02c0,51.18-37.02,92.67-92.67,92.67-53.78-2-94.39-44.23-92.67-92.67C6.57,48.03,45.46,6.54,99.24,6.54s92.67,38.89,92.67,92.67Zm-4.81,0c0-23.47-9.14-45.53-25.73-62.13-16.59-16.59-30.87-24.25-62.13-25.73-23.47,0-45.53,9.14-62.13,25.73-16.59,16.59-25.77,33.72-25.73,62.13-.73,17.05,9.14,45.53,25.73,62.13,16.59,16.59,38.66,25.73,62.13,25.73s45.53-9.14,62.13-25.73c17.04-14.09,25.29-38.42,25.73-62.13Zm-87.93-27.24c3.14,0,5.69-2.55,5.69-5.69s-2.56-5.36-5.69-5.69c-3.2-.34-5.69,2.55-5.69,5.69,0,2.58,2.55,5.69,5.69,5.69Zm.1-19.71c2.15.23,3.82-1.71,3.82-3.82,0-1.73-1.71-3.82-3.82-3.82s-3.82,1.71-3.82,3.82,1.72,3.6,3.82,3.82Zm-.18-15.26c1.48.22,2.7-1.38,2.7-2.7,0-1.49-1.44-2.7-2.7-2.7-1.49,0-2.7,1.48-2.7,2.7,0,1.49,1.3,2.49,2.7,2.7Zm.07,89.35c-3.14,0-5.69,3.11-5.69,5.69,0,3.14,2.49,6.02,5.69,5.69,3.12-.33,5.69-2.55,5.69-5.69s-2.55-5.69-5.69-5.69Zm.1,19.71c-2.1.22-3.82,1.71-3.82,3.82s1.71,3.82,3.82,3.82,3.82-2.09,3.82-3.82c0-2.11-1.67-4.05-3.82-3.82Zm-.18,15.26c-1.4.21-2.7,1.21-2.7,2.7,0,1.22,1.21,2.7,2.7,2.7,1.26,0,2.7-1.21,2.7-2.7,0-1.32-1.23-2.93-2.7-2.7Zm-27.19-89.43c-2.5,2.03-2.22,5.82,0,8.04,1.82,1.82,5.82,2.22,8.04,0,2.22-2.22,2.22-5.82,0-8.04-2.22-2.22-5.6-1.98-8.04,0Zm-5.82-5.97c1.68-1.36,1.49-3.91,0-5.4-1.22-1.22-3.91-1.49-5.4,0-1.49,1.49-1.49,3.91,0,5.4,1.49,1.49,3.76,1.33,5.4,0Zm-10.92-10.67c1.2-.88.93-2.89,0-3.82-1.06-1.06-2.93-.89-3.82,0-1.06,1.06-.86,2.96,0,3.82,1.06,1.06,2.68.84,3.82,0Zm63.23,63.13c-2.22,2.22-1.82,6.22,0,8.04,2.22,2.22,6.02,2.5,8.04,0,1.98-2.44,2.22-5.82,0-8.04-2.22-2.22-5.82-2.22-8.04,0Zm14.01,13.86c-1.33,1.64-1.49,3.91,0,5.4,1.49,1.49,3.91,1.49,5.4,0,1.49-1.49,1.22-4.18,0-5.4-1.49-1.49-4.04-1.68-5.4,0Zm10.67,10.92c-.84,1.14-1.06,2.77,0,3.82.86.86,2.77,1.06,3.82,0,.89-.89,1.06-2.77,0-3.82-.93-.93-2.94-1.2-3.82,0Zm-76.78-49.69c-3.14,0-5.36,2.56-5.69,5.69-.34,3.2,2.55,5.69,5.69,5.69,2.58,0,5.69-2.55,5.69-5.69s-2.55-5.69-5.69-5.69Zm-14.02,5.58c.23-2.15-1.71-3.82-3.82-3.82-1.73,0-3.82,1.71-3.82,3.82s1.71,3.82,3.82,3.82,3.6-1.72,3.82-3.82Zm-17.97-2.52c-1.49,0-2.7,1.44-2.7,2.7,0,1.49,1.48,2.7,2.7,2.7,1.49,0,2.49-1.3,2.7-2.7.22-1.48-1.38-2.7-2.7-2.7Zm103.43,2.63c-.33-3.12-2.55-5.69-5.69-5.69s-5.69,2.55-5.69,5.69,3.11,5.69,5.69,5.69c3.14,0,6.03-2.49,5.69-5.69Zm12.15-3.92c-2.11,0-4.05,1.67-3.82,3.82.22,2.1,1.71,3.82,3.82,3.82s3.82-1.71,3.82-3.82-2.09-3.82-3.82-3.82Zm14.15,1.3c-1.32,0-2.93,1.23-2.7,2.7.21,1.4,1.21,2.7,2.7,2.7,1.22,0,2.7-1.21,2.7-2.7,0-1.26-1.21-2.7-2.7-2.7Zm-92.13,21.85c-2.22,2.22-1.98,5.6,0,8.04,2.03,2.5,5.82,2.22,8.04,0,1.82-1.82,2.22-5.82,0-8.04-2.22-2.22-5.82-2.22-8.04,0Zm-11.37,13.86c-1.22,1.22-1.49,3.91,0,5.4,1.49,1.49,3.91,1.49,5.4,0,1.49-1.49,1.33-3.76,0-5.4-1.36-1.68-3.91-1.49-5.4,0Zm-9.09,10.92c-1.06,1.06-.89,2.93,0,3.82,1.06,1.06,2.96.86,3.82,0,1.06-1.06.84-2.68,0-3.82-.88-1.2-2.89-.93-3.82,0Zm74.99-63.23c2.22-2.22,2.5-6.02,0-8.04-2.44-1.98-5.82-2.22-8.04,0-2.22,2.22-2.22,5.82,0,8.04,2.22,2.22,6.22,1.82,8.04,0Zm11.22-14.01c1.49-1.49,1.49-3.91,0-5.4s-4.18-1.22-5.4,0c-1.49,1.49-1.68,4.04,0,5.4,1.64,1.33,3.91,1.49,5.4,0Zm5.52-10.67c1.14.84,2.77,1.06,3.82,0,.86-.86,1.06-2.77,0-3.82-.89-.89-2.77-1.06-3.82,0-.93.93-1.2,2.94,0,3.82Z"/>
</svg>