<svg xmlns="http://www.w3.org/2000/svg" viewBox="0 0 198.43 198.43" fill="#fff">
  <path d="m138.36,58.78c-8.14-13.24-22.39-22.1-39.05-22.1s-31.98,9.33-40.04,23.16c-13.88,8-23.25,22.98-23.25,40.12,0,12.19,3.31,23.31,10.28,31.37,3.94,4.55,8.94,8.15,14.52,10.68,8.22,12.78,22.21,21.26,38.51,21.26,17.25,0,32.45-9.62,40.41-23.81,13.67-8.05,22.88-22.52,22.88-39.51,0-8.29-3.84-18.13-7.72-24.9-4.13-7.22-9.73-12.68-16.54-16.28Zm-39.05-19.73c15.25.83,27.9,7.64,35.64,18.13-5.54-2.3-11.77-3.51-18.62-3.51-6.37,0-12.45,1.29-17.98,3.63-4.7-1.83-10.77-3.63-16.04-3.63-6.74,0-13.13,1.46-18.91,4.06,7.96-11.29,21.08-18.68,35.91-18.68Zm29.3,60.94h0s0,0,0,0h0Zm-1.48-.14c-.45,8.26-2.76,15.77-6.48,22.16-6.33,3.52-13.6,5.37-21.33,4.88-8.62-.55-16.21-2.77-22.57-6.33-.55-1.21-1.07-2.42-1.55-3.61-2.13-5.23-3.16-10.97-2.78-16.98.54-8.52,2.72-16.05,6.21-22.36,6.18-3.3,13.23-5.01,20.71-4.54,8.53.54,16.07,2.73,22.38,6.23,3.42,6.16,5.4,13.15,5.4,20.56Zm-42.22,33.35c-.5-.49-.98-1.01-1.44-1.55l1.44,1.55Zm-8.96-55.8c-4.28,2.38-7.79,5.06-9.85,7.45-4.42,5.1-5.99,6.18-8.11,10.24-.23.45-.44.91-.65,1.36-1.26-4.2-1.93-8.72-1.93-13.48,0-8.49,2.43-16.43,6.62-23.16,5.98-3.11,12.85-4.74,20.3-4.55,4.98.12,9.84,1.1,14.41,2.78-8.78,4.13-16.06,10.93-20.79,19.36Zm-.8,45.02c.62,1.02,1.29,2,2.04,2.92,2.65,3.26,5.7,7.48,9.47,10.55,2.83,2.31,5.96,4.3,9.3,5.92-4.28,1.34-8.85,2.06-13.62,2.06-7.63,0-14.97-1.97-21.39-5.41-3.53-6.27-5.5-13.56-5.5-21.48,0-4.8.79-9.47,2.22-13.88,3.87,7.99,9.98,14.69,17.5,19.32Zm33.4,15.28c3.55-2.43,6.26-5.13,9.49-8.6,1.64-1.77,3.09-3.7,4.35-5.76,2.59-1.49,5.06-3.22,7.46-5.2,4.33-3.57,7.81-7.84,10.14-11.97.49-.86.94-1.74,1.37-2.64,1.26,4.2,1.92,8.7,1.92,13.45,0,7.81-2.06,15.15-5.65,21.51-6.23,3.46-13.44,5.38-21.27,5.38-6.67,0-9.32.59-15.6-1.84,2.75-1.22,5.36-2.67,7.8-4.34Zm30.48-44.54c-2.33-3.86-5.8-6.89-8.72-9.8-2.47-2.46-5.25-4.62-8.27-6.42-.18-.3-.35-.6-.53-.9-3.6-5.89-10.82-12.23-15.7-15.26-.74-.46-2.38-1.32-4.58-2.28,4.66-1.6,9.73-2.45,15.11-2.45,7.81,0,15.15,2.06,21.51,5.65,3.46,6.23,5.38,13.44,5.38,21.27,0,4.8-.79,9.47-2.22,13.88-.61-1.26-1.28-2.5-2-3.69Zm-100.62,6.8c1.06-16.68,8.39-30.09,19.58-37.73-3.16,6.24-4.95,13.28-4.95,20.73,0,5.78,1.08,11.32,3.02,16.43-2.13,5.47-3.21,11.41-2.99,17.59.25,7.02,1.94,13.69,4.79,19.66-12.25-7.87-20.41-21.39-19.44-36.68Zm60.94,60.94c-14.95-.81-27.39-7.39-35.18-17.53,5.72,2.08,11.92,3.1,18.15,2.88,5.68-.2,11.13-1.35,16.17-3.29,5.56,2.29,11.63,3.5,17.85,3.29,6.9-.24,13.46-1.89,19.35-4.64-7.91,11.64-21.25,19.29-36.35,19.29Zm42.13-24.84c2.66-5.82,4.16-12.28,4.16-19.08,0-5.78-1.07-11.31-3.01-16.42,2.13-5.47,3.2-11.42,2.99-17.6-.24-6.91-1.89-13.46-4.64-19.35,11.64,7.91,19.29,21.25,19.29,36.35-.84,15.56-7.93,28.4-18.78,36.1ZM99.24,6.54C45.46,6.54,6.57,48.03,6.57,99.21c-1.72,48.44,38.89,90.67,92.67,92.67,55.65,0,92.67-41.49,92.67-92.67,0-53.78-41.49-92.67-92.67-92.67Zm62.13,154.8c-16.59,16.59-38.66,25.73-62.13,25.73s-45.53-9.14-62.13-25.73c-16.59-16.59-26.47-45.07-25.73-62.13-.04-28.4,9.14-45.53,25.73-62.13,16.59-16.59,38.66-25.73,62.13-25.73,31.25,1.49,45.53,9.14,62.13,25.73,16.59,16.59,25.73,38.66,25.73,62.13-.45,23.71-8.69,48.03-25.73,62.13Z"/>
</svg>