<?xml version="1.0" encoding="UTF-8"?>
<svg id="Layer_1" data-name="Layer 1" xmlns="http://www.w3.org/2000/svg" viewBox="0 0 198.43 198.43">
  <defs>
    <style>
      .cls-1 {
        fill: #fff;
        stroke-width: 0px;
      }
    </style>
  </defs>
  <path class="cls-1" d="m184.63,15.97c0-1.1-.9-2-2-2,0,0-26.91-.67-48.22-1.27-15.52-.44-40.75.71-40.75.71-21.06,1-38.77,8.15-52.77,20.63-16.06,14.32-26.26,35.09-26.52,58.24,0,.58-.02,1.16-.06,1.74-.3,4.66-1.72,27.9-.96,44.17.89,19.07,1.01,44.05,1.01,44.05,0,1.1.9,2,2,2,0,0,26.26.87,36.45,1.4,17.84.93,54.65-1.45,54.65-1.45,21.06-.54,40.08-9.26,53.96-23.15,14.33-14.33,23.2-34.13,23.2-56,0,0,.11-27.59.55-44,.41-15.08-.55-45.06-.55-45.06Zm-4.42,47.27c-.42,15.46-.52,41.45-.52,41.45,0,20.61-8.35,39.26-21.86,52.77-12.04,12.04-28.19,19.97-46.16,21.55-2.02.12-1.99.32-6.61.51-.78,0-29.61,1.4-49.57,1.12-9.61-.14-34.34-1.32-34.34-1.32-1.04,0-1.88-.84-1.88-1.88,0,0-.12-23.54-.96-41.5-.71-15.2.6-36.85.9-41.5.04-.63.06-1.25.07-1.88.28-21.76,9.88-41.28,24.98-54.75,13.19-11.76,31.44-18.52,49.51-19.52,0,0,23.98-1,38.6-.58,20.08.57,45.43,1.2,45.43,1.2,1.04,0,1.88.84,1.88,1.88,0,0,.9,28.24.52,42.45Zm-35.46-7.13c.13-9.21.26-17.57.26-17.57,0-.56-.46-1.02-1.02-1.02,0,0-30.44-.08-43.15.36-7.54.44-42.06-.42-42.06-.42-.56,0-1.02.46-1.02,1.02,0,0,.05,21.93,0,35.65-3.79,1.84-7.29,4.19-10.4,6.97-9.36,8.34-15.25,20.49-15.25,34.01,0,0-1.07,15.43-.58,25.88.51,10.96.58,25.33.58,25.33,0,.64.51,1.15,1.15,1.15,0,0,15.1.5,20.96.8,12.22.63,30.39-.66,30.25-.8,12.58,0,23.96-5.1,32.21-13.34.11-.11.21-.22.32-.33,1.19.08,2.38.14,3.58.14,26.12,0,49.84-19.81,52.12-52.12,1.39-19.63-11.42-36.81-27.95-45.7Zm-83.83-14.53c0-.52.42-.95.95-.95,0,0,38.1-.44,39.72-.42,11.01.15,39.31.48,39.31.48.52,0,.95.42.95.95,0,0,.02,5.88.05,13.05-6.83-3.2-14.16-4.99-21.31-4.99-15.84,0-30.05,8.13-39.61,19.67-2.03.12-3.31.2-3.31.2-5.95,0-11.63,1.15-16.84,3.22.11-13.02.12-31.21.12-31.21Zm81.02,38.23c.31,8.1-.33,40.57-.33,40.57,0,.52-.42.95-.95.95,0,0-4.59.12-10.66.27.01-2.28.08-16.32.31-24.97.23-8.67-.32-25.91-.32-25.91,0-.63-.51-1.15-1.15-1.15,0,0-15.47-.38-27.73-.73-4.59-.13-10.68.07-15.5.29,9.4-9.83,22.37-16.01,34.94-16.01,7.64,0,14.88,1.78,21.32,4.93.03,9.3.06,19.52.05,21.77Zm-26.3,70.63c-18.82-1.04-32.26-11.37-38.95-25.85,10.42.04,22.25.09,25.89.14,4.34-.05,14.81-.12,24.11-.17-.66,9.95-4.72,18.96-11.05,25.88Zm-13.3-28.29c-4.38-.01-16.94-.26-26.88-.48-2.36-6.11-3.6-12.85-3.6-19.87,0-11.15,4.33-21.44,11.09-29.66,4.72-.25,11.98-.55,17.19-.4,11.46.33,25.58,1.02,25.58,1.02.59,0,1.08.48,1.08,1.07,0,0,.51,16.11.29,24.22-.23,8.57-.29,22.82-.29,23.61-9.15.22-20.2.47-24.46.48Zm-41.74-37.76c.07-1.61.12-4.58.16-8.24,5.32-2.39,11.22-3.73,17.43-3.73,0,0,.14,0,.39-.03-6.37,8.81-10.14,19.21-10.14,29.4,0,7.01,1.4,13.69,3.92,19.8-5.91-.13-10.28-.23-10.28-.23-.52,0-.95-.42-.95-.95,0,0-.75-31.55-.53-36.04Zm23.62,79.89c.13.13-16.86,1.34-28.28.75-5.48-.28-19.59-.75-19.59-.75-.59,0-1.08-.48-1.08-1.07,0,0-.07-13.43-.55-23.68-.45-9.77.55-24.19.55-24.19,0-12.64,5.85-24.33,14.6-32.13,2.39-2.13,5.03-4,7.86-5.55-.01,2.31-.03,4.22-.05,5.5.28,9.55.29,40.35.29,40.35,0,.56.46,1.02,1.02,1.02,0,0,6.58.02,14.68.04,7.37,15.11,21.83,26.15,39.03,28.76-7.55,6.8-17.53,10.94-28.49,10.94Zm36.34-13.77c-.22,0-.44,0-.67,0,5.8-7.18,9.46-16.16,10.02-25.97,7.66-.04,13.81-.07,13.81-.07.56,0,1.02-.46,1.02-1.02,0,0-.19-34-.34-43.9.01-2.16.14-11.07.27-20.03,14.67,8.4,24.58,24.2,24.58,42.28,0,26.85-21.86,47.9-48.7,48.7Z"/>
</svg>