<?xml version="1.0" encoding="UTF-8"?>
<svg id="Layer_1" data-name="Layer 1" xmlns="http://www.w3.org/2000/svg" viewBox="0 0 198.43 198.43">
  <defs>
    <style>
      .cls-1 {
        fill: #fff;
        stroke-width: 0px;
      }
    </style>
  </defs>
  <path class="cls-1" d="m117.04,81.72c8.72-8.75,19.57-19.6,26.54-26.56,1.59,1.39,3.65,2.25,5.92,2.33,5.23.16,9.05-3.99,9.76-9.17.73-5.31-3.94-9.6-9.17-9.76-4.29-.13-9.6,3.94-9.76,9.17-.07,2.17.61,4.18,1.78,5.81-6.91,7-17.74,17.96-26.57,26.82-3.44-2.89-7.7-4.92-12.28-5.78.91-3.72,1.74-7.13,2.4-9.86,1.53-.03,3.07-.53,4.2-1.66,2.43-2.43,2.43-6.38,0-8.81-2.43-2.43-6.14-2.17-8.81,0-2.74,2.22-2.43,6.38,0,8.81.56.56,1.32,1,2.16,1.28-.63,2.75-1.42,6.2-2.29,9.9-.87-.09-1.74-.13-2.62-.13-4,0-8.28,1.38-12.16,3.77-4.68-9.16-9.24-18.15-12.2-23.97.55-.37,1.06-.82,1.48-1.36,2.46-3.16,1.89-7.71-1.27-10.17-3.16-2.46-7.39-1.61-10.17,1.27-2.84,2.96-1.89,7.71,1.27,10.17,1.56,1.21,4.03,1.64,6.29,1.11,3.11,6.16,8.19,15.89,12.64,24.26-3.24,2.36-6.08,5.44-8.09,9l-19.96-8.93c1.42-3.93-.92-8.35-4.83-10.1-3.53-1.58-9.34,0-11.25,4.3-1.92,4.3,0,9.34,4.3,11.25,3.89,1.74,8.03.13,10.52-3.21l20.07,8.98c-1.21,2.76-1.9,5.76-1.9,8.88,0,2.06.25,4.07.72,5.99-2.61.73-4.41,1.23-5.04,1.42-2.54.76-5.09,1.41-7.44,2.02-.04-.06-.06-.13-.1-.19-1.39-2.01-4.01-2.3-6.15-1.13-2.2,1.2-2.52,4.14-1.13,6.15,1.14,1.65,4.14,2.52,6.15,1.13,1.33-.92,1.99-2.43,1.89-3.93,4.17-1.24,8.29-2.41,12.37-3.55,1.07,3.23,2.77,6.18,4.96,8.69-9.57,9.45-19.92,19.73-26.27,26.02-1.43-1.02-3.18-1.65-5.02-1.71-3.86-.12-8.63,3.55-8.78,8.25-.15,4.7,3.55,8.63,8.25,8.78,4.7.15,8.14-3.59,8.78-8.25.28-2.08-.35-3.98-1.55-5.48,6.38-6.26,16.75-16.43,26.3-25.83,2.41,2.27,5.25,4.06,8.4,5.25-1.18,5.83-2.31,11.59-3.12,15.7-1.47.1-2.96.69-4.22,1.71-2.74,2.22-2.43,6.38,0,8.81,2,2,6.38,2.43,8.81,0,2.43-2.43,2.43-6.38,0-8.81-.7-.7-1.51-1.17-2.37-1.44.58-3.96,1.47-9.52,2.64-15.38,2.27.67,4.66,1.03,7.15,1.03,3.34,0,6.43-.66,9.24-1.84l13.82,26.92c-.25.21-.5.43-.73.68-2.74,2.85-1.82,7.44,1.23,9.81,2.5,1.95,7.44,1.82,9.81-1.23,2.37-3.05,1.82-7.44-1.23-9.81-2.12-1.65-4.75-1.75-7.06-.72-3.67-7.03-9.39-17.97-13.97-26.53,4.6-2.44,8.3-6.37,10.78-11.17l20.53,9.19c-1.06,3.97.87,8.24,4.75,9.97,4.3,1.92,8.9-.23,11.25-4.3,2.42-4.17,0-9.33-4.3-11.25-3.22-1.44-8.33-.24-10.66,3.25l-20.49-9.17c1.16-2.81,1.94-5.85,2.28-9.03.22-2.13.12-4.19-.25-6.15,1.93-.64,3.85-1.29,5.76-1.97.09.16.16.33.27.49,1.42,2.06,5.15,3.13,7.65,1.41,2.5-1.72,3.13-5.15,1.41-7.65-1.72-2.5-4.98-2.86-7.65-1.41-1.84,1-2.6,2.98-2.39,4.94-1.74.61-3.63,1.25-5.63,1.9-1.09-3.49-3.08-6.61-5.68-9.18Zm4.52,17.42c-.68,6.47-3.31,12.38-7.4,16.65-4.27,4.45-9.75,6.81-15.86,6.81-12.82,0-23.25-10.43-23.25-23.25,0-5.92,2.73-11.75,7.7-16.39,4.58-4.29,10.4-6.85,15.55-6.85,6.92,0,13.73,2.98,18.22,7.96,3.82,4.25,5.61,9.6,5.04,15.07Zm-23.56,15.26c-8.13,0-14.72-6.59-14.72-14.72s8.04-14.72,14.72-14.72c8.13,0,15.59,6.44,14.72,14.72-.85,8.09-6.59,14.72-14.72,14.72ZM184.63,15.97c0-1.1-.9-2-2-2,0,0-26.9-.67-48.22-1.27-15.52-.44-40.74.71-40.74.71-21.06,1-38.77,8.15-52.76,20.62-16.06,14.32-26.26,35.09-26.52,58.24,0,.58-.02,1.16-.06,1.74-.3,4.66-1.72,27.9-.96,44.17.89,19.07,1.01,44.05,1.01,44.05,0,1.1.9,2,2,2,0,0,26.26.87,36.45,1.4,17.84.93,54.65-1.45,54.65-1.45,21.06-.54,40.07-9.26,53.96-23.15,14.33-14.33,23.2-34.13,23.2-56,0,0,.11-27.59.55-43.99.41-15.08-.55-45.06-.55-45.06Zm-4.42,47.27c-.42,15.46-.52,41.45-.52,41.45,0,20.61-8.35,39.26-21.86,52.77-12.04,12.04-28.19,19.97-46.15,21.55-2.02.12-1.99.32-6.61.51-.78,0-29.61,1.4-49.56,1.12-9.61-.14-34.34-1.32-34.34-1.32-1.04,0-1.88-.84-1.88-1.88,0,0-.12-23.54-.96-41.5-.71-15.2.6-36.85.9-41.5.04-.63.06-1.25.07-1.88.28-21.76,9.88-41.28,24.98-54.74,13.19-11.76,31.44-18.52,49.51-19.52,0,0,23.98-1,38.6-.58,20.08.57,45.43,1.2,45.43,1.2,1.04,0,1.88.84,1.88,1.88,0,0,.9,28.24.52,42.45Z"/>
</svg>