<?xml version="1.0" encoding="UTF-8"?>
<svg id="Layer_1" data-name="Layer 1" xmlns="http://www.w3.org/2000/svg" viewBox="0 0 198.43 198.43">
  <defs>
    <style>
      .cls-1 {
        fill: #fff;
        stroke-width: 0px;
      }
    </style>
  </defs>
  <path class="cls-1" d="m27.86,169.11c0,.92.75,1.67,1.67,1.67,0,0,22.46.55,40.25,1.06,12.95.37,34.08-1.06,34.08-1.06,16.88,0,32.29-6.33,43.97-16.74,13.58-12.11,22.14-29.74,22.14-49.36,0,0,1.55-22.4.85-37.56-.74-15.91-.85-36.76-.85-36.76,0-.92-.75-1.67-1.67-1.67,0,0-21.91-.72-30.42-1.17-16.99-.88-34.74-.05-44.13.8-13.72,1.25-34.59,7.8-46.51,19.72-11.96,11.96-19.36,28.49-19.36,46.74,0,0-.09,23.03-.46,36.72-.34,12.59.46,37.6.46,37.6Zm2.49-38.91c.35-13.13.44-35.21.44-35.21,0-17.5,7.1-33.35,18.57-44.82,11.44-11.44,33.95-17.98,44.63-18.85,7.2-.58,26-1.69,42.3-.84,8.16.42,29.17,1.12,29.17,1.12.88,0,1.6.72,1.6,1.6,0,0,.1,19.99.81,35.25.68,14.54-.81,36.02-.81,36.02,0,18.82-8.2,35.73-21.23,47.34-11.2,9.99-25.97,16.05-42.16,16.05,0,0-20.46.17-32.68,1.02-17.03,1.18-38.59-1.02-38.59-1.02-.88,0-1.6-.72-1.6-1.6,0,0-.77-23.99-.44-36.06Zm10.35,26.4c0,.76.61,1.37,1.37,1.37,0,0,18.41.45,33,.87,10.62.3,27.94-.87,27.94-.87,13.84,0,26.47-5.19,36.05-13.73,11.14-9.93,18.15-24.38,18.15-40.47,0,0,1.27-18.37.69-30.8-.61-13.05-.69-30.14-.69-30.14,0-.76-.61-1.37-1.37-1.37,0,0-17.97-.59-24.94-.96-14.54-.76-31.36.39-36.04.67-14.32.94-28.47,6.35-38.28,16.16-9.81,9.81-15.87,23.36-15.87,38.33,0,0-.07,18.88-.38,30.11-.28,10.32.38,30.83.38,30.83Zm3.67-32.63c.28-10.46.35-28.04.35-28.04,0-13.94,5.65-26.56,14.78-35.69,9.13-9.13,22.6-14.42,35.59-15.23,2.94-.18,20.09-1.15,33.62-.45,6.5.34,23.23.89,23.23.89.7,0,1.27.57,1.27,1.27,0,0,.08,15.92.65,28.07.54,11.58-.65,28.68-.65,28.68,0,14.99-6.53,28.45-16.9,37.69-8.92,7.95-20.68,12.78-33.57,12.78,0,0-16.13,1.09-26.02.81-13.58-.39-30.73-.81-30.73-.81-.7,0-1.27-.57-1.27-1.27,0,0-.61-19.1-.35-28.71Zm99.8-68.27c0-.58-.47-1.05-1.05-1.05,0,0-14.18-.35-25.41-.67-8.18-.23-15.72.11-21.52.67-9.85.95-20.38,4-27.76,10.57-8.58,7.64-13.98,18.77-13.98,31.16,0,0-.98,14.14-.53,23.72.47,10.05.53,23.21.53,23.21,0,.58.47,1.05,1.05,1.05,0,0,13.84.46,19.21.74,11.19.58,27.85-.6,27.72-.74,11.06-.8,21.96-4.67,29.51-12.22,7.55-7.55,12.22-17.99,12.22-29.51,0,0,.06-14.54.29-23.18.21-7.95-.29-23.74-.29-23.74Zm-4.92,26.06c-.21,7.65-.26,20.52-.26,20.52,0,10.2-4.13,19.43-10.82,26.12-6.68,6.68-15.92,10.82-26.12,10.82.11.12-14.63,1.17-24.53.65-4.75-.25-17-.65-17-.65-.52,0-.93-.42-.93-.93,0,0,.41-11.68-.47-20.54-.83-8.32.47-20.99.47-20.99,0-10.97,4.78-20.82,12.37-27.58,6.53-5.82,15.87-9,24.85-9.66,0,0,11.52-.49,18.76-.29,9.94.28,22.49.59,22.49.59.52,0,.93.42.93.93,0,0,.45,13.98.26,21.01Zm-7.8,3.65c-.17,6.12-.2,16.4-.2,16.4,0,8.15-3.31,15.54-8.65,20.88-5.06,5.06-11.94,8.27-19.57,8.6,0,0-14.7.89-20.92.57-3.8-.2-13.59-.52-13.59-.52-.41,0-.75-.33-.75-.75,0,0-.05-9.31-.38-16.42-.32-6.77.38-16.78.38-16.78,0-8.77,3.82-16.64,9.89-22.05,5.22-4.65,12.1-7.48,19.64-7.48,0,0,9.44-.64,15.22-.47,7.95.23,17.98.47,17.98.47.41,0,.75.33.75.75,0,0,.36,11.18.2,16.8ZM184.63,15.97c0-1.1-.9-2-2-2,0,0-26.9-.67-48.22-1.27-15.52-.44-40.74.71-40.74.71-21.06,1-38.77,8.15-52.76,20.62-16.06,14.32-26.26,35.09-26.52,58.24,0,.58-.02,1.16-.06,1.74-.3,4.66-1.72,27.9-.96,44.17.89,19.07,1.01,44.05,1.01,44.05,0,1.1.9,2,2,2,0,0,26.26.87,36.45,1.4,17.84.93,54.65-1.45,54.65-1.45,21.06-.54,40.07-9.26,53.96-23.15,14.33-14.33,23.2-34.13,23.2-56,0,0,.11-27.59.55-43.99.41-15.08-.55-45.06-.55-45.06Zm-1.96,46.18c-.43,15.93-.53,42.71-.53,42.71,0,21.23-8.61,40.46-22.52,54.37-12.41,12.41-29.04,20.58-47.56,22.2-2.08.12-2.05.33-6.81.52-.8,0-30.51,1.44-51.07,1.15-9.91-.14-35.38-1.36-35.38-1.36-1.07,0-1.94-.87-1.94-1.94,0,0-.12-24.25-.98-42.76-.73-15.66.61-37.97.92-42.76.04-.65.06-1.29.07-1.94.29-22.42,10.18-42.53,25.74-56.41,13.59-12.11,32.39-19.08,51.01-20.11,0,0,24.71-1.03,39.77-.6,20.69.59,46.81,1.24,46.81,1.24,1.07,0,1.94.87,1.94,1.94,0,0,.93,29.1.53,43.74Z"/>
</svg>