<?xml version="1.0" encoding="UTF-8"?>
<svg id="Layer_1" data-name="Layer 1" xmlns="http://www.w3.org/2000/svg" viewBox="0 0 198.43 198.43">
  <defs>
    <style>
      .cls-1 {
        fill: #fff;
        stroke-width: 0px;
      }
    </style>
  </defs>
  <path class="cls-1" d="m184.63,15.97c0-1.1-.9-2-2-2,0,0-26.9-.67-48.22-1.27-15.52-.44-40.74.71-40.74.71-21.06,1-38.77,8.15-52.76,20.62-16.06,14.32-26.26,35.09-26.52,58.24,0,.58-.02,1.16-.06,1.74-.3,4.66-1.72,27.9-.96,44.17.89,19.07,1.01,44.04,1.01,44.04,0,1.1.9,2,2,2,0,0,26.26.87,36.45,1.4,17.84.93,54.65-1.45,54.65-1.45,21.06-.54,40.07-9.26,53.96-23.15,14.33-14.33,23.2-34.13,23.2-56,0,0,.11-27.59.55-43.99.41-15.08-.55-45.06-.55-45.06Zm-4.42,47.27c-.42,15.46-.52,41.45-.52,41.45,0,20.61-8.35,39.26-21.86,52.77-12.04,12.04-28.19,19.97-46.15,21.55-2.02.12-1.99.32-6.61.51-.78,0-29.61,1.4-49.56,1.12-9.61-.14-34.34-1.32-34.34-1.32-1.04,0-1.88-.84-1.88-1.88,0,0-.12-23.54-.96-41.5-.71-15.2.6-36.85.9-41.5.04-.63.06-1.25.07-1.88.28-21.76,9.88-41.28,24.98-54.74,13.19-11.76,31.44-18.52,49.51-19.52,0,0,23.98-1,38.6-.58,20.08.57,45.43,1.2,45.43,1.2,1.04,0,1.88.84,1.88,1.88,0,0,.9,28.24.52,42.45Z"/>
  <path class="cls-1" d="m126.23,37.79c-3.52-3.72-7.94-6.69-12.94-8.93-4.25-1.9-8.78-2.57-13.34-1.96-9.82,1.31-17.7,3.62-24.37,10.67-20.43,1.37-34.74,17.37-35.74,36.09-.02.48-.03.96-.03,1.43-13.15,13.29-14.27,34.42-.48,49.08.05.05.1.09.15.14-1.21,20.81,14.44,34.83,35.52,34.92,6.76,7.28,16.29,10.57,26.09,10.67,4.55.05,9.45-.62,13.65-2.75,3.76-1.9,7.26-4.5,10.33-7.64.01,0,.03,0,.04,0,20.31.3,36.21-16.12,36.18-34.58.41-.41.81-.83,1.2-1.26,13.5-11.31,11.35-35.42-1.04-51-1.5-21.16-16.98-35.5-35.22-34.88Zm33.15,35.66c.16,8.86-3.24,17.25-9.02,23.55-5.76-5.84-13.35-9.37-21.65-9.78,5.36-5.81,8.79-13.57,9.21-22.55,7.23-.03,14.36,1.93,20.3,7.14.39.41.77.83,1.15,1.26,0,.13.01.26.02.39Zm-35.8,84.08c-8.59-.36-16.27-3.49-22.01-8.57,6.12-5.79,9.93-13.45,10.37-21.45,6.47,4.37,14.6,6.47,22.82,7.27-.91,8.44-5.14,16.65-11.18,22.75Zm-47.66-.46c-5.99-6.47-9.78-14.36-10.3-22.61,8.35.38,16.68-2.51,23.34-8.12.31,8.99,3.9,16.76,9.67,22.52-5.92,5.12-12.46,7.44-22.71,8.2Zm-14.77-26.13c-7.04-.93-14.06-2.89-19.42-7.38.85-7.79,4.76-15.68,10.47-21.96,5.64,4.53,12.84,7.4,20.85,8.07-5.26,5.55-8.74,12.95-9.44,21.52-.82-.06-1.64-.14-2.45-.25Zm-19.21-54.91c.09-.09.18-.19.27-.28,9.11-9.19,12.22-10.93,22.26-11.35,0,.28,0,.57,0,.85.23,8.4,3.59,15.84,9.04,21.94-7.87,1.09-15.29,5.31-21.19,11.13-2.97-2.73-5.5-5.89-7.51-9.31-2.17-3.71-2.9-8.23-2.88-12.96Zm34.69-35.9c.16-.17.33-.33.49-.5,9.39-.35,17.91,2.96,23.93,9.54-5.99,5.92-10.19,13.56-11.45,21.48-6.65-5.68-14.8-8.57-23.01-8.46.62-7.89,4.42-15.99,10.05-22.05Zm48.71-.17c5.98,6.14,9.83,14.36,10.48,22.83-8.31.81-16.63,5.09-23.67,13.3.02-.79.02-1.59-.02-2.39-.41-9.51-3.61-17.7-8.63-23.88,5.96-5.54,13.62-9.3,21.85-9.86Zm9.58,92.71c-8.34-.18-16.63-2.99-22.94-7.58-.02-.67-.06-1.33-.13-2-.58-6.75-2.4-12.73-5.12-17.81,5.34,2.94,11.6,4.65,18.36,4.8,5.83,5.56,9.47,13.24,9.86,21.87,0,.24-.02.47-.03.71Zm-80.94-32.94c5.93-5.81,13.45-9.88,21.39-10.61.06.06.11.11.17.17,5.81,5.65,13.79,8.56,22.32,9.05.14.15.28.29.42.44-8.81.11-16.94,3.35-23.12,8.85-8.29-.22-15.46-3.25-21.16-7.9Zm12.52-35.41c8.08-.06,16.11,2.44,22.51,8.47.11.11.2.23.3.34-.02.26-.05.52-.06.79-.28,6.22.98,11.92,3.44,16.88-5.14-2.82-10.95-4.19-16.98-3.87-.18.01-.36.04-.54.05-5.47-5.87-8.42-13.57-8.67-21.75,0-.3,0-.61,0-.91Zm29.96,22.1c1.16,2.76,1.95,5.71,2.37,8.73-.77-.69-1.57-1.33-2.38-1.94-3.26-4.93-5.11-10.87-5.07-17.44,2.18,3.29,3.6,7.11,5.09,10.65Zm-.5,9.66c-7.02-.6-13.74-2.74-18.71-7.07,6.33-.12,12.34,1.76,17.43,5.28.41.61.83,1.21,1.28,1.79Zm8.12,4.94c7.04.51,13.32,2.96,18.35,6.8-6.83-.53-13.03-2.79-18.06-6.39-.1-.14-.19-.27-.29-.4Zm-7.81.04c-4.96,3.63-10.97,5.99-17.56,6.5,4.97-3.66,11.02-5.97,17.56-6.5Zm5.43.88c.52.41,1.05.81,1.6,1.2,3.47,5.22,5.77,11.7,6.39,19.13.03.29.04.6.05.93-5.16-5.78-7.81-12.32-8.27-18.87.1-.79.18-1.59.23-2.39Zm24.23,5.99c-5.75-5.29-13.42-8.66-22.26-9.12.16-.14.31-.29.47-.43,8.58-.33,16.47-3.62,22.47-9.08,8.61-.17,16.5,3.21,22.36,9.12-5.91,5.73-13.94,9.39-23.05,9.51Zm-18.61-12.04c4.59-3.25,9.87-5.49,15.47-6.28-4.43,3.28-9.73,5.47-15.47,6.28Zm18.38-8.7c-.19,0-.39,0-.58.02-6.78.39-13.2,2.86-18.71,6.67,3.1-4.64,5.08-9.98,5.61-15.6.22-.22.44-.44.66-.65,6.66-7.37,14.75-12.42,22.81-12.91.12,0,.24,0,.37-.02-.38,9.11-4.21,16.92-10.16,22.48Zm-23.56,8.4c1.14-5.12,3.58-10.03,7.15-14.35-1.15,5.31-3.65,10.23-7.15,14.35Zm7.84-22.44c.08,1.78,0,3.54-.21,5.27-4.02,4.15-6.99,8.94-8.67,14.04-1.31-7.12-4.55-14.09-9.55-19.87.89-8.05,4.95-15.83,10.91-21.79,4.37,5.54,7.14,13.05,7.52,22.35Zm-34.03,36.66s.02,0,.03,0c7.5.11,14.4-2.07,20.12-5.78-4.11,5.74-6.72,12.4-7.12,19.13-6.5,6.24-14.86,8.42-23.32,8.13.65-8.7,4.49-16.14,10.29-21.48Zm22.96-5.89c-.72,6.1-3.13,11.99-7.45,16.69.94-5.98,3.6-11.75,7.45-16.69Zm-7.8,20.43c.26-.26.53-.51.78-.78,4.16-3.87,6.95-8.69,8.48-13.94,1.26,5.17,3.88,10.31,8.08,15.13.39.36.8.7,1.21,1.04-.38,5.49-2.11,13.07-4.11,15.61-1.85,2.35-3.64,4.36-5.47,6.11-5.82-5.88-9.25-13.95-8.98-23.17Zm36.9-14.32c8.87-.5,16.76-4.19,22.66-9.78,4.93,5.8,8.07,13.58,8.44,22.59.01.22,0,.44.01.66-6.09,6.12-14.08,8.92-22.19,9.16.01-.23.04-.47.05-.7-.41-8.46-3.66-16.11-8.97-21.93Zm31.16-39.91c-6.36-5.07-13.77-7.67-21.29-7.45-.57-8.3-4.25-16.05-9.52-22.47,16.03,1.91,28.97,13.8,30.81,29.93Zm-58.9-40.45c8.88-.39,16.86,2.92,23.02,8.33-7.97.97-15.36,4.76-21.2,10.17-5.91-6.42-13.93-10.3-22.74-10.67,5.86-5.08,12.87-7.62,20.92-7.83Zm-46.52,19.57c5.82-4.64,12.38-8.23,19.76-9.3-5.08,6.36-8.44,14.59-8.97,22.32-7.99.59-15.91,4.03-22.45,10.51.77-8.64,4.69-17.96,11.66-23.52Zm-13.82,29.08c.72,8.8,4.61,16.33,10.61,21.83-5.64,6.2-9.6,13.86-10.78,21.4-9.56-11.33-9.58-30.85.17-43.23Zm1.65,47.77c6.23,4.93,14.04,7.52,21.98,8.21.5,8.22,4.06,16.12,9.64,22.85-18.4.13-32.04-13.03-31.62-31.07Zm59.61,41.44c-8.55.24-16.84-2.66-23.17-8.41,8.64-.59,16.27-3.92,22.11-8.88,5.68,5.02,13.17,8.25,21.56,9.05-5.84,5.15-13.06,8.38-20.5,8.23Zm25.72-10.03c5.28-6.16,8.95-14.03,9.87-22.59,8.02.4,15.94-2.55,22.24-7.89-1.41,15.94-14.89,29.63-32.11,30.48Zm34.23-36.14c-.77-8.99-4.08-16.71-9.05-22.53,5.86-6.2,9.43-14.37,9.5-23.02,10.09,13.93,11.27,34.56-.44,45.55Z"/>
</svg>