<?xml version="1.0" encoding="UTF-8"?>
<svg id="Layer_1" data-name="Layer 1" xmlns="http://www.w3.org/2000/svg" viewBox="0 0 198.43 198.43">
  <defs>
    <style>
      .cls-1 {
        fill: #fff;
        stroke-width: 0px;
      }
    </style>
  </defs>
  <path class="cls-1" d="m184.63,15.97c0-1.1-.9-2-2-2,0,0-26.9-.67-48.22-1.27-15.52-.44-40.74.71-40.74.71-21.06,1-38.77,8.15-52.76,20.62-16.06,14.32-26.26,35.09-26.52,58.24,0,.58-.02,1.16-.06,1.74-.3,4.66-1.72,27.9-.96,44.17.89,19.07,1.01,44.05,1.01,44.05,0,1.1.9,2,2,2,0,0,26.26.87,36.45,1.4,17.84.93,54.65-1.45,54.65-1.45,21.06-.54,40.07-9.26,53.96-23.15,14.33-14.33,23.2-34.13,23.2-56,0,0,.11-27.59.55-43.99.41-15.08-.55-45.06-.55-45.06Z"/>
</svg>