<?xml version="1.0" encoding="UTF-8"?>
<svg id="Layer_1" data-name="Layer 1" xmlns="http://www.w3.org/2000/svg" viewBox="0 0 198.43 198.43">
  <defs>
    <style>
      .cls-1 {
        fill: #fff;
        stroke-width: 0px;
      }
    </style>
  </defs>
  <path class="cls-1" d="m184.63,15.97c0-1.1-.9-2-2-2,0,0-26.9-.67-48.22-1.27-15.52-.44-40.74.71-40.74.71-21.06,1-38.77,8.15-52.76,20.62-16.06,14.32-26.26,35.09-26.52,58.24,0,.58-.02,1.16-.06,1.74-.3,4.66-1.72,27.9-.96,44.17.89,19.07,1.01,44.04,1.01,44.04,0,1.1.9,2,2,2,0,0,26.26.87,36.45,1.4,17.84.93,54.65-1.45,54.65-1.45,21.06-.54,40.07-9.26,53.96-23.15,14.33-14.33,23.2-34.13,23.2-56,0,0,.11-27.59.55-43.99.41-15.08-.55-45.06-.55-45.06Zm-73.16,66.45c-4.44-4.03-9.94-7.89-15.88-9.59-4.32-1.23-8.91-1.85-13.59-1.85-2.39,0-4.73.28-7.01.76,2.15-7.27,6.33-14.14,12.16-19.97.55-.55,1.11-1.05,1.68-1.56,14.85.94,25.9,7.4,36.62,16.85,12.92,11.39,22.14,26.06,23.76,45.04-.28.3-.55.6-.84.88-5.79,5.79-12.77,9.53-20.14,11.29.31-2.14.48-4.34.48-6.59,0-14.63-7.65-26.58-17.25-35.28Zm-20.57-33.9c4.5-3.43,9.57-5.76,14.86-7.55,16.22-5.49,32.85,1.24,42.61,11.01,16.18,16.18,16.35,41.57,2.65,58.1-3.61-32.07-28.84-58.48-60.12-61.56Zm-18.35,23.83c-5.95,1.65-11.42,4.55-16.26,7.22-2.15,1.19-4.15,2.6-6.01,4.17.09-9.11,2.04-17.87,5.48-25.86,8.69-4.8,18.44-7.59,28.67-7.65-6.14,6.36-10.1,14.04-11.88,22.13Zm-12.82,44.04c-5.5-7.96-8.68-17.75-9.33-28.01,5.68-6.12,13.12-10.58,21.52-12.6-2,13.96,2.36,28.66,13.08,39.37,10.11,10.11,24.36,14.91,38.9,12.72-2.07,8.56-6.69,16.12-13.01,21.84-22.12-1.88-39.4-16.32-51.16-33.32Zm48.93,35.18c-7.34,5.79-16.6,9.25-26.67,9.25-23.81,0-43.12-19.3-43.12-43.12,0-10.3,3.62-19.76,9.65-27.18,2.9,32.03,28.24,57.68,60.14,61.05Zm19.07-24.45c7.42-1.75,14.82-5.37,21.7-11.07.28,10.05-2.09,20.12-6.59,29.25-8.43,3.1-17.76,4.62-27.04,4.62-.23,0-.46-.01-.69-.01,6.24-6.14,10.74-13.92,12.62-22.78Zm-8.84-109.5c3.63.17,10.32.38,19.34.24,18.83.52,39.57,1.04,39.57,1.04,1.04,0,1.88.84,1.88,1.88,0,0,.9,28.24.52,42.45-.23,8.69-.37,20.72-.44,29.58l-.03-.14s-.09,2.88-.52,6.69c-.55,4.85-3.56,14.03-5.79,18.05-5.96,10.57-12.16,17.1-17.38,21.12-3.38,2.33-7.08,4.3-11,5.91,4.66-9.25,6.89-19.4,6.37-29.72,0-.13-.02-.25-.03-.38,18.32-16.96,15.16-48.7-.86-64.72-17.53-17.53-47.71-16.06-64.07-1.38-.55-.01-1.11-.04-1.66-.04h0c-9.58,0-18.97,2.3-27.62,6.63,9.82-20.02,29.2-34.66,52.06-37.05,3.08-.07,6.38-.13,9.67-.17Zm-63.39,163c-9.61-.14-34.34-1.32-34.34-1.32-1.04,0-1.88-.84-1.88-1.88,0,0-.09-17.1-.63-33.28.31-9.85.73-19.66,1.52-29.3,1.12-22.92,14.23-43.85,32.85-55.37-3.07,7.71-4.77,16.11-4.77,24.9,0,.4.02.79.03,1.18-8.24,8-12.99,19.66-12.99,32.13,0,9.13,3.63,17.25,8.17,24.45,8.28,13.13,21.91,22.26,38.54,22.26,11.8-.76,22.69-5.31,30.98-12.54.94.04,1.88.07,2.82.07,9.35,0,18.27-1.91,26.37-5.36-.31.59-.6,1.18-.93,1.76-11.08,17.24-26.02,25.71-34,29.23-3.7,1.5-9.32,2.12-13.04,2.37-10.39.39-26.27.87-38.71.69Z"/>
</svg>