<svg xmlns="http://www.w3.org/2000/svg" viewBox="0 0 198.43 198.43" fill="#fff">
  <path d="m187.78,136.64c-2.71-11.28-7.6-22.81-15.3-36.58,17.81-31.86,21.1-60.34,5.32-77.15-19.49-20.75-47.28-14.49-79.14,3.32-13.11-7.33-22.17-12.41-39.46-14.63-18.23-2.34-33.09,1.94-39.19,9.8-13.88,17.86-12.98,46.79,4.83,78.66-17.81,31.86-22.83,64.96-4.83,78.66,18,13.7,42.74,16.01,78.66-4.83,31.86,17.81,60.52,18.62,77.48,6.65,14.57-10.29,14.3-32.81,11.64-43.89Zm-12.18-113.93c15.18,16.16,11.76,45.09-4.89,75.68-1.82-2.93-3.77-5.87-5.84-8.82,8.76-20.97,9.14-40.79-1.38-52.92-11.99-11.99-31.66-11.57-53.1-1.93-3.46-2.45-6.89-4.7-10.21-6.67,30.54-16.88,56.65-25.33,75.41-5.35Zm-22.43,95c.47,1.57.86,3.11,1.19,4.62-4.03,5-8.44,9.93-13.43,14.93-.86.78-1.7,1.52-2.53,2.27,4.07-4.27,5.94-9.98,5.8-16.53,2.74-3.29,5.3-6.64,7.66-10.02.54,1.61.99,3.19,1.32,4.73Zm-4.43,33.76c-6.14,6.14-15.74,8.18-27.43,5.97,7.12-5.8,14.3-12.27,20.88-18.93,4.66-4.66,8.84-9.23,12.64-13.78,2,11.38-.08,20.72-6.1,26.74Zm-106.55-27.42c4.71,5.58,9.98,11.24,15.83,16.9,6.11,6.11,12.36,11.77,18.65,16.85-12.17,2.48-22.16.46-28.49-5.87-6.23-6.23-8.27-15.99-5.99-27.87Zm1.99-38.95c-.61-2.04-1.09-4.02-1.47-5.95,5.28-6.77,10.65-13.04,15.36-17.96-4.31,4.97-5.85,11.61-4.99,19.12-2.63,3.17-5.09,6.35-7.35,9.53-.55-1.56-1.07-3.14-1.55-4.74Zm4.43-33.76c8.07-6.77,15.14-8.31,24.64-6.66-4.3,3.57-8.57,7.37-12.79,11.39-6.34,5.97-12.58,12.82-18.28,19.88-1.39-10.41.79-18.98,6.42-24.61Zm107.01,25.96c-4.19-5.19-8.7-10.35-13.56-15.44-5.84-5.91-12.27-11.82-18.85-17.27,11.03-1.72,20.08.44,25.97,6.33,7.18,8.57,8.55,16.01,6.44,26.38Zm-3.39,11.9c-2.48-3.42-5.15-6.82-8-10.2.38-6.88-1.27-12.99-5.24-17.55.63.64,1.24,1.26,1.82,1.87,5.37,6.08,10.05,11.56,14.21,16.69-.39,1.59-.84,3.23-1.36,4.97-.42,1.4-.9,2.81-1.42,4.23Zm-12.53,36.94c-2.7,3.2-5.36,6.07-7.85,8.45-1.95,1.95-3.85,3.79-5.72,5.54-3.67.65-7.6.74-10.84.46,4.02-3.25,8-6.81,11.88-10.69,4.46-4.46,8.45-9.01,12-13.58.71,3.56.89,6.85.53,9.81Zm-.45,2.51c-.76,3.14-2.19,5.83-4.3,7.95-1.7,1.43-4.08,2.42-6.72,3.08,1.49-1.39,2.97-2.81,4.44-4.28,2.29-2.2,4.48-4.46,6.59-6.75Zm-13.32,0c-4.21,4.13-8.68,8.06-13.25,11.61-.79-.13-1.51-.29-2.11-.47-2.48-.74-4.99-1.71-7.51-2.87,5.92-3.69,11.88-8.44,17.6-14.16,5.95-5.72,10.9-11.93,14.71-18.21,1.09,2.51,1.99,5.04,2.77,7.66.17.58.33,1.14.47,1.71-3.74,5.08-7.99,10.03-12.69,14.73Zm-40.27,11.62c-5.52-3.99-10.43-8.16-13.97-11.87-4.82-4.81-8.8-9.3-12.16-13.62.14-.83.3-1.57.49-2.19.73-2.43,1.69-4.95,2.84-7.5,3.75,5.84,8.47,11.68,14.06,17.27,6.26,6.26,12.66,11.27,18.91,15.05-2.43.78-5.08,1.38-8.56,2.42-.54.16-1.07.3-1.6.44Zm-11.77,1.13c-2.86-2.45-5.43-4.86-7.6-7.13-2.39-2.39-4.62-4.71-6.71-6.99-.53-3.32-.61-6.8-.38-9.75,3.32,4.19,6.99,8.32,11,12.33,3.91,4.06,8.02,7.76,12.23,11.1-3.07.55-5.94.69-8.55.42Zm-2.34-.36c-3.33-.71-6.17-2.17-8.37-4.38-1.54-1.83-2.57-4.47-3.21-7.36,1.78,1.94,3.62,3.87,5.52,5.78,1.98,2.06,4.01,4.04,6.07,5.96Zm-5.97-72.75c3.3-3.23,6.72-6.37,10.21-9.36,2.73.16,5.66.67,8.72,1.45-4.86,3.71-9.66,7.9-14.3,12.54-4.24,4.08-8.09,8.37-11.54,12.78-.72-3.02-1.12-5.97-1.18-8.72,2.57-2.95,5.26-5.86,8.1-8.69Zm-8.08,6.89c.18-5.02,1.6-9.3,4.46-12.16s7.07-4.14,12.01-4.14c-3.1,2.72-6.17,5.58-9.19,8.6-2.55,2.55-4.96,5.12-7.27,7.7Zm13.95-1.02c5.33-5.34,10.27-9.66,15.02-13.24.18.05.37.1.55.16,2.63.79,5.49,1.97,8.39,3.41-6.19,3.83-12.41,8.77-18.33,14.7-5.99,5.99-10.83,12.1-14.53,18.08-1.46-2.98-2.54-5.89-3.11-8.61-.03-.09-.05-.17-.07-.26,4.06-5.62,8.3-10.63,12.08-14.23Zm-11.06,26.82c-1.72,3.16-3.11,6.26-4.17,9.28-2.02-2.92-3.78-5.79-5.3-8.64,1.69-3.01,3.54-6.02,5.47-8.92,1.09,2.72,2.43,5.49,4,8.28Zm18.91,18.95c-5.7-5.82-10.88-12.33-14.58-18.66,3.75-7.18,8.97-14.44,15.18-20.65,7.45-7.45,13.01-11.94,17.88-14.92,2.55,1.38,5.1,2.94,7.53,4.62,4.34,3,9.83,7.28,13,10.6,6.95,6.94,11.53,12.97,14.77,18.93-2.41,4.37-5.26,8.7-7.77,12.16-2.8,3.86-10.84,11.79-13.09,13.93-5.23,5.24-8.72,7.94-11.93,9.62-7.24-3.75-14.45-9.09-21-15.63Zm43.58-60.93c3.3,2.83,6.54,5.83,9.7,8.98,2.51,2.56,4.97,5.2,7.34,7.89.06,3.05-.38,6.4-1.22,9.95-3.47-4.38-7.31-8.71-11.52-12.92-4.94-4.94-9.98-9.31-15.05-13.13,3.72-.91,7.37-1.12,10.75-.76Zm2.12.3c4.45.82,8.26,2.66,10.85,5.25,2.36,2.36,3.6,5.58,3.96,9.37-2.06-2.27-4.2-4.52-6.42-6.74-2.77-2.77-5.57-5.39-8.38-7.88Zm.69,15.08c4.4,4.49,8.57,9.28,12.29,14.15-.07.26-.14.52-.22.78-.65,2.16-1.63,4.52-2.81,6.93-3.72-5.96-8.49-11.95-14.24-17.71-5.9-6.14-12.33-11.22-18.81-15.1,2.52-1.22,4.94-2.11,7.46-2.9,5.63,4,11.13,8.64,16.32,13.83Zm11.86,26.34c1.41-2.64,2.61-5.29,3.58-7.89,2.02,2.89,3.87,5.78,5.49,8.64-1.52,2.77-3.21,5.53-5.05,8.26-1.04-2.95-2.39-5.97-4.02-9.02Zm4.49-10.5c1.05-3.25,1.74-6.42,2.05-9.46,2.69,3.25,5.24,6.55,7.61,9.87-1.09,2.8-2.36,5.62-3.81,8.43-1.77-2.94-3.72-5.89-5.86-8.84Zm-3.05-28.81c-4.72-4.72-11.2-6.61-18.6-6.07-3.24-2.68-6.48-5.17-9.72-7.47,1.47-.51,2.96-1,4.47-1.45,1.94-.58,3.82-1.05,5.66-1.42,7.01,5.75,13.39,11.57,18.19,16.41Zm-20.33-5.9c-2.99.37-6.11,1.1-9.31,2.2-2.9-2.07-5.8-3.95-8.68-5.65,2.8-1.39,5.6-2.59,8.45-3.64,3.22,2.19,6.4,4.56,9.54,7.08Zm-11.95,3.19c-2.36.94-4.75,2.07-7.17,3.38-2.99-1.65-5.98-3.03-8.92-4.13,2.49-1.68,4.94-3.17,7.38-4.49,2.92,1.57,5.83,3.32,8.71,5.25Zm-17.97-1.43c-2.89-.97-5.73-1.67-8.48-2.08,2.7-2.18,5.44-4.26,8.17-6.21,2.56,1.01,5.13,2.17,7.7,3.48-2.47,1.47-4.94,3.08-7.4,4.8Zm-10.22-2.3c-7.53-.78-14.23.74-19.19,4.91.89-.91,1.77-1.79,2.6-2.58,5.05-4.46,9.74-8.46,14.19-12.08,1.98.44,4.05.99,6.26,1.66,1.53.46,3.08.99,4.62,1.57-2.84,2.05-5.67,4.22-8.49,6.53Zm-25.2,26.96c.42,2.63,1.12,5.35,2.08,8.14-2.11,2.98-4.04,6-5.77,9.03-1.26-2.57-2.36-5.14-3.33-7.75,2.18-3.17,4.52-6.31,7.02-9.41Zm-4.99,19.51c-1.29,2.41-2.47,4.82-3.5,7.21-1.69-2.56-3.23-5.1-4.62-7.62,1.35-2.36,2.8-4.72,4.34-7.07,1.12,2.47,2.37,4.97,3.78,7.47Zm1.38,2.37c1.73,2.92,3.65,5.85,5.75,8.76-.84,2.8-1.39,5.51-1.65,8.1-2.8-3.36-5.28-6.62-7.5-9.83,1-2.3,2.14-4.66,3.4-7.03Zm3.98,18.27c-.42,7.25,1.54,13.47,5.93,17.9-.11-.11-.22-.22-.33-.33-5.87-6.09-11.44-12.05-16.56-18.1.29-1.22.61-2.46.98-3.72.58-1.92,1.31-3.93,2.16-5.99,2.41,3.43,5.01,6.85,7.81,10.24Zm6.04,18c4.45,4.41,10.55,6.33,17.55,6,3.62,3.05,7.32,5.89,11.05,8.48-2.08.76-4.12,1.38-6.08,1.8-1.2.36-2.37.66-3.53.94-6.44-5.25-12.79-11.05-18.98-17.22Zm19.7,5.83c2.42-.27,4.94-.78,7.52-1.54,3.26,2.34,6.57,4.45,9.89,6.32-2.2,1.17-4.37,2.22-6.5,3.09-3.81-2.54-7.5-5.2-10.92-7.88Zm10.66-2.58c2.94-1.07,5.94-2.43,8.97-4.08,3.19,1.72,6.33,3.1,9.38,4.16-2.94,2.11-5.88,4.03-8.81,5.73-3.22-1.77-6.44-3.74-9.54-5.81Zm20.6.8c3.14.93,6.16,1.51,9.03,1.7-3.53,3.01-6.95,5.67-10.31,8.04-2.53-1.04-5.14-2.27-7.76-3.65,3.01-1.84,6.03-3.88,9.03-6.1Zm10.51,1.77c5.8.14,10.88-1.3,14.86-4.31-6.58,5.86-12.41,10.91-17.59,15.21-1.14-.28-2.3-.57-3.48-.93-1.48-.44-3.01-.98-4.57-1.59,3.61-2.58,7.21-5.37,10.77-8.38Zm22.88-25.21c-.25-2.76-.84-5.65-1.74-8.63,2-2.8,3.83-5.61,5.48-8.39,1.29,2.45,2.4,4.87,3.3,7.23-2.28,3.4-4.65,6.7-7.04,9.79Zm5.12-19.44c1.56-2.8,2.94-5.58,4.13-8.32,1.62,2.35,3.14,4.71,4.55,7.05-1.58,2.79-3.28,5.58-5.04,8.31-1.09-2.33-2.29-4.68-3.64-7.04Zm4.73-9.72c1.28-3.08,2.31-6.1,3.11-9.05,2.1,2.65,4.06,5.2,5.89,7.7-1.29,2.79-2.74,5.64-4.32,8.49-1.46-2.38-3.02-4.76-4.68-7.14Zm3.77-11.7c2.91-12.92.97-24.09-6.2-31.26s-18.42-9.1-31.03-6.27c-2.85-2.29-5.71-4.48-8.55-6.53,2.78-1.08,5.49-1.93,8.1-2.52,18.21-5.69,33.11-3.94,41.96,4.91s10.6,23.75,4.91,41.96c-.8,2.55-1.82,5.23-3.01,7.97-1.96-2.75-4.01-5.51-6.17-8.26Zm-39.53-36.97c-3.19.85-6.47,1.99-9.8,3.39-2.63-1.79-5.25-3.45-7.86-5,3.2-1.81,6.37-3.38,9.45-4.69,2.78,2.04,5.52,4.15,8.2,6.3Zm-11.34,4.04c-2.68,1.18-5.38,2.53-8.1,4.05-2.57-1.44-5.11-2.72-7.62-3.84,2.64-1.8,5.27-3.47,7.89-4.99,2.62,1.48,5.23,3.08,7.83,4.78Zm-17.09-.4c-3.64-1.56-7.21-2.78-10.66-3.68,2.88-2.3,5.66-4.43,8.36-6.42,3.4,1.45,6.81,3.12,10.23,4.99-2.64,1.58-5.28,3.28-7.93,5.11Zm-13.43-4.33c-12.57-2.64-23.41-.64-30.42,6.38-7.27,7.27-9.08,18.24-6.34,30.72-2.01,2.59-3.94,5.19-5.77,7.78-.9-2.38-1.73-4.78-2.49-7.23-5.69-18.21-3.94-33.11,4.91-41.96,12.86-10.72,23.75-10.6,41.96-4.91,2.31.72,4.64,1.55,6.98,2.49-2.94,2.13-5.88,4.38-8.82,6.74Zm-36.02,40.12c.9,3.31,2.1,6.71,3.59,10.16-1.6,2.35-3.11,4.69-4.51,7.02-1.71-3.23-3.21-6.46-4.54-9.72,1.77-2.51,3.6-5.01,5.46-7.46Zm-1.58,18.32c-1.85,3.15-3.53,6.28-5.01,9.37-2.17-3.05-4.21-6.16-6.1-9.36,1.92-3.09,4.01-6.26,6.22-9.42,1.45,3.11,3.07,6.26,4.89,9.42Zm.89,1.5c1.49,2.52,3.09,5.05,4.81,7.58-1.38,3.31-2.51,6.6-3.37,9.81-2.16-2.62-4.23-5.27-6.2-7.96,1.41-3.14,2.99-6.29,4.76-9.44Zm.86,19.79c-2.91,12.84-1.41,24.44,5.43,32.3,8.08,8.08,20.16,9.6,33.73,5.89,2.65,2.06,5.3,4.02,7.94,5.86-3.32,1.36-6.68,2.55-10.13,3.63-18.21,5.69-33.11,3.94-41.96-4.91-10.72-12.86-10.6-23.75-4.91-41.96.95-3.03,2.09-6.09,3.4-9.16,2.02,2.76,4.18,5.55,6.48,8.35Zm41.06,37.63c2.97-.91,6.01-2.06,9.09-3.44,2.55,1.7,5.11,3.29,7.68,4.75-3.03,1.65-6.04,3.11-9.08,4.42-2.57-1.81-5.13-3.72-7.69-5.73Zm11-4.34c2.13-1.02,4.27-2.14,6.43-3.37,2.66,1.42,5.31,2.68,7.95,3.78-2.28,1.53-4.54,2.93-6.79,4.21-2.55-1.46-5.09-3.02-7.59-4.63Zm15.41.84c2.73,1.1,5.44,2.02,8.11,2.77-2.54,2.07-4.92,3.96-7.16,5.67-2.55-1.23-5.14-2.59-7.73-4.05,2.26-1.37,4.52-2.83,6.78-4.38Zm10.8,3.46c13.03,3.06,24.83,1.62,32.79-5.32,7.91-7.91,9.53-19.65,6.11-32.88,2.36-2.97,4.58-5.95,6.67-8.95,1.46,3.46,2.59,6.83,3.31,10.05,5.69,18.21,3.94,33.11-4.91,41.96-8.85,8.85-23.75,10.6-41.96,4.91-3.13-.98-6.44-2.29-9.83-3.84,2.57-1.86,5.18-3.84,7.82-5.93Zm38.25-40.5c-.86-2.87-1.94-5.81-3.24-8.78,1.87-2.81,3.61-5.64,5.21-8.48,1.65,2.85,3.13,5.68,4.39,8.45-2.03,2.99-4.13,5.92-6.36,8.81Zm2.69-18.6c1.6-2.92,3.06-5.85,4.35-8.76,2.07,2.87,3.98,5.67,5.77,8.46-1.79,2.97-3.62,5.85-5.51,8.69-1.38-2.78-2.93-5.58-4.61-8.39ZM98.67,28.91c3.26,2.04,6.58,4.3,9.89,6.68-3.1,1.46-6.23,3.1-9.38,4.94-3.42-1.97-6.81-3.72-10.15-5.25,3.23-2.34,6.37-4.49,9.45-6.48.06.04.12.07.18.1Zm-77.2-4.53c5.98-7.69,20.71-13.21,38.56-10.92,15.98,2.05,24.79,7.61,36.52,14.26-3.25,2.04-6.51,4.23-9.78,6.55-21.73-9.34-41.07-9-52.15,2.08-11.48,11.48-11.24,30.97-1.97,52.31-2.3,3.31-4.42,6.57-6.32,9.73-16.58-30.49-18.21-56.85-4.86-74.02Zm2.98,153.47c-21.82-19.34-14.95-45.5,1.73-75.88,1.98,3.28,4.18,6.61,6.6,10-10.29,22.59-10.31,42.84,1.13,54.28,11.98,11.98,32.66,11.2,55.08.72,2.79,1.89,5.57,3.66,8.32,5.28-34.43,19.59-58.46,18.35-72.86,5.59Zm74.21-6.36c-2.71-1.62-5.42-3.37-8.13-5.23,2.92-1.42,5.86-3.01,8.82-4.74,2.69,1.5,5.37,2.86,8.04,4.1-3.13,2.34-5.97,4.33-8.56,5.97-.06-.03-.12-.06-.17-.1Zm74.29,7.69c-15.17,12.92-42.02,9.87-72.47-6.69,2.85-1.76,5.84-3.76,8.92-5.95,21.67,9.54,42.32,10.25,54.81-.58,12.34-12.34,11.53-32.82,1.05-54.99,1.99-2.92,3.88-5.87,5.67-8.88,6.99,12.59,12.46,23.31,14.98,33.79,2.6,10.85,4.93,28.06-12.97,43.3Z"/>
</svg>