<?xml version="1.0" encoding="UTF-8"?>
<svg id="Layer_1" data-name="Layer 1" xmlns="http://www.w3.org/2000/svg" viewBox="0 0 198.43 198.43">
  <defs>
    <style>
      .cls-1 {
        fill: #fff;
        stroke-width: 0px;
      }
    </style>
  </defs>
  <path class="cls-1" d="m187.8,136.62c-2.71-11.28-7.6-22.82-15.3-36.59,17.81-31.87,21.11-60.36,5.32-77.17-19.5-20.76-47.3-14.49-79.17,3.32-13.11-7.33-22.18-12.42-39.47-14.63-18.24-2.34-33.1,1.94-39.21,9.8-13.89,17.86-12.98,46.81,4.83,78.68-17.81,31.87-22.84,64.98-4.83,78.68,18,13.7,42.76,16.01,78.68-4.83,31.87,17.81,60.54,18.63,77.51,6.65,14.58-10.29,14.3-32.82,11.64-43.91Zm-14.83,42.54c-15.48,13.18-43.11,9.75-74.31-7.69-35.17,20.41-59.65,19.3-74.24,6.36-22.29-19.76-14.66-46.61,2.78-77.82C9.76,68.81,7.84,41.8,21.43,24.31c5.98-7.69,20.72-13.21,38.58-10.92,16.94,2.17,25.81,8.28,38.65,15.46,31.2-17.44,57.88-26.51,76.96-6.19,15.46,16.46,11.65,46.16-5.79,77.36,7.54,13.48,13.46,24.78,16.11,35.83,2.61,10.86,4.94,28.07-12.97,43.32Z"/>
  <path class="cls-1" d="m26.43,70.65c2.21,9.23,6.22,18.66,12.51,29.92-14.57,26.06-18.15,50.25-4.35,63.1,14.94,13.92,38.68,11.85,64.74-2.72,10.72,5.99,18.06,10.83,32.28,11.97,11.43.92,24.91-1.29,33.76-10.14,11.72-11.72,8.92-36.15-5.65-62.22,14.57-26.06,15.74-54.03,3.95-64.34-12.01-10.5-34.96-13.09-64.34,3.95-26.06-14.57-49.5-15.23-63.38-5.44-11.92,8.41-11.7,26.84-9.52,35.9Zm15.09-31.57c12.03-10.25,33.52-7.58,57.78,5.98,27.35-15.87,46.38-15,57.72-4.95,17.33,15.36,11.4,36.24-2.16,60.5,13.56,24.26,17.54,43.27,6.97,56.87-4.65,5.98-18.59,12.27-32.48,10.49-13.17-1.69-20.07-6.44-30.05-12.02-24.26,13.56-44.25,20.76-61.05,3.96-12.41-12.41-7.85-35.04,5.71-59.3-5.86-10.48-10.46-19.27-12.53-27.85-2.03-8.44-3.84-21.82,10.08-33.68Z"/>
  <path class="cls-1" d="m145.23,54.22c-8.41-7.82-28.86-6.39-46.31,2.34-19.37-10.67-37.23-11.73-46.31-2.34-7.3,7.54-8.33,26.94,2.34,46.31-10.86,22.24-11.58,37.08-2.34,46.31,4.24,4.24,10.27,6.34,17.42,6.34,8.43,0,18.42-2.92,28.89-8.69,19.37,10.67,36.8,10.22,46.31,2.34,10.06-8.33,7.73-26.06-2.34-46.31,10.67-19.37,11.91-37.42,2.34-46.31Zm-46.31,4.88c1.96,1.18,9.61,5.49,9.61,11.28,0,5.04-3.76,10.39-9.63,9.52-4.98-.74-8.84-4.11-9.14-9.14-.46-7.68,7.2-10.5,9.17-11.67Zm-.05,82.89c-1.96-1.18-9.46-6.26-9.46-12.03,0-5.04,4.45-8.77,9.49-8.77s9.74,3.84,9.74,8.88c0,5.86-7.8,10.76-9.77,11.92Zm45.14,3.33c-8.4,8.4-26.42,8.07-43.11-2.12,2.99-1.91,8.85-6.69,8.85-12.91s-4.66-11.19-10.85-11.19-10.93,5.77-10.93,11.96,5.98,10.25,8.92,12.16c-18.11,9.69-35.23,11.12-43.19,2.32-9.39-10.39-7.16-24.88,2.53-43,1.91,2.99,6.65,9.23,12.88,9.23s11.22-5.03,11.22-11.22-5.03-11.22-11.22-11.22-10.96,6.24-12.88,9.19c-9.69-18.12-10.51-34.39-2.15-42.82,6.48-6.53,12.56-6.82,16.75-6.53,7.96.55,16.28,3.45,26.1,8.7-2.97,1.9-9.44,6.72-8.96,12.07.55,6.16,5.31,12.15,11.5,11.83,8.4-.44,10.89-4.82,10.65-11-.26-6.9-6.28-10.99-9.22-12.9,18.13-9.71,33.86-9.92,42.86-2.17,10.64,9.16,7.54,24.74-2.19,42.88-1.9-2.97-8.62-9.19-12.89-9.26-6.19-.1-11.22,5.03-11.22,11.22s6.77,11.29,11.22,11.22c6.21-.09,11.02-6.32,12.91-9.25,9.7,18.13,10.82,34.4,2.42,42.8Zm-86.56-44.8c1.18-1.96,5.89-9.11,11.67-9.11,5.04,0,9.14,4.1,9.14,9.14s-4.1,9.14-9.14,9.14c-5.86,0-10.5-7.19-11.67-9.16Zm82.89.05c-1.18,1.96-5.89,9.11-11.67,9.11-5.04,0-10.31-4.15-9.76-9.46.62-5.94,4.72-8.82,9.76-8.82,5.86,0,10.5,7.19,11.67,9.16Z"/>
</svg>