<?xml version="1.0" encoding="UTF-8"?>
<svg id="Layer_1" data-name="Layer 1" xmlns="http://www.w3.org/2000/svg" viewBox="0 0 198.43 198.43">
  <defs>
    <style>
      .cls-1 {
        fill: #fff;
        stroke-width: 0px;
      }
    </style>
  </defs>
  <path class="cls-1" d="m187.82,136.64c-2.71-11.28-7.61-22.83-15.3-36.6,17.82-31.88,21.11-60.37,5.32-77.19-19.5-20.76-47.31-14.49-79.19,3.32-13.12-7.33-22.18-12.42-39.48-14.64-18.24-2.34-33.11,1.94-39.22,9.8-13.89,17.86-12.98,46.82,4.83,78.7-17.82,31.88-22.85,64.99-4.83,78.7,18.01,13.71,42.77,16.02,78.7-4.83,31.88,17.82,60.55,18.63,77.52,6.65,14.58-10.29,14.31-32.83,11.65-43.92Zm-12.18-113.99c14.89,15.86,11.9,44-3.93,73.95-1.12-7.69-6.45-14.74-14.77-20.53.7-3.09,1.11-6.09,1.18-8.97.2-8.27-2.64-15.57-6.8-20.56-4.65-4.65-11.99-5.44-19.66-5.44-2.95,0-6.06.33-9.3.97-6.36-8.61-14.25-13.46-22.82-13.71,30.83-17.12,57.19-25.84,76.1-5.71Zm-24.64,122.64c-.61,1.13-1.12,1.76-1.81,2.53-1.85,2.04-3.39,3.55-5.49,5.01-3.45,2.4-7.57,3.84-11.93,3.49-2.93,0-6.01-.33-9.22-.97,4.24-5.79,8.15-12.75,10.6-21.42,7.88-3.06,15.23-6.52,21.37-10.41,1.38,8.5-.09,15.47-3.52,21.77Zm-20-15.98l-1.74.55-.74,1.93c-2.52,8.92-6.05,16.61-10.3,22.52-5.86-1.64-12.05-4.25-18.38-7.78l-1-.56-1,.56c-6.33,3.54-12.52,6.15-18.38,7.78-4.25-5.91-7.77-13.6-10.3-22.52l-.55-1.93-1.93-.55c-4.68-1.32-9.5-2.38-13.43-4.22-3.16-1.48-5.85-3.32-8.28-5.24,1.8-6.04,4.63-12.53,8.37-19.23-4.04-7.23-6.87-14.32-8.45-20.89,5.81-4.02,13.24-7.36,21.79-9.78l1.93-.55.55-1.93c.65-2.28,1.58-6.76,2.36-8.88,2.09-5.72,4.66-9.96,7.57-13.75,5.97,1.63,12.3,4.28,18.76,7.89l1,.56,1-.56c6.33-3.54,12.52-6.15,18.38-7.78,4.25,5.91,7.78,13.6,10.3,22.52l.74,1.35,1.93.55c8.61,2.44,16.6,5.8,22.62,9.85-1.6,6.09-4.3,12.64-8.08,19.4l-.56,1,.56,1c3.83,6.85,6.36,12.91,7.81,18.36-5.91,4.25-13.62,7.79-22.55,10.32Zm-49.02,28.19c-.45-.51-.88-1.05-1.31-1.6,5.84-1.69,11.98-4.29,18.18-7.76,6.2,3.47,12.34,6.07,18.18,7.76-.43.55-.87,1.09-1.31,1.6-3.61,4.17-9.47,9.14-16.87,9.14s-13.26-4.97-16.87-9.14Zm-38.31-32.41c5.86,3.58,12.94,6.59,20.89,8.84,1.11,3.91,3.58,11.5,5.01,15.03,1,2.46,2.11,4.71,3.29,6.79-2.39.37-4.7.57-6.93.57-7.44,0-13.33-2.11-17.5-6.28-5.59-5.59-6.95-14.4-4.77-24.95Zm.2-40.25c1.27,4.56,3.92,10.21,6.48,14.79-3.48,6.22-6.09,12.37-7.77,18.23-.54-.46-1.07-.91-1.59-1.36-4.17-3.61-9.13-9.47-9.13-16.87s4.97-13.26,9.13-16.87c.61-.53,1.26-1.05,1.92-1.56.3,1.22.62,2.43.96,3.65Zm5.77-34.43c4.17-4.17,8.85-7.48,16.29-7.48,2.63,0,5.4.28,8.26.8-4.53,6.2-7,12.25-9.64,21.59-8.07,2.28-14.87,5.93-20.55,9.84-1.64-10.47.17-19.28,5.64-24.75Zm49.21-17.79c7.4,0,13.26,4.97,16.87,9.14.45.51.88,1.05,1.31,1.6-5.84,1.69-11.98,4.29-18.18,7.76-6.32-3.53-12.57-6.17-18.51-7.85.63-.77,1.27-1.53,1.92-2.28,3.61-4.17,9.19-8.36,16.59-8.36Zm55.98,42.04c-5.52-3.49-12.17-6.46-19.65-8.74-1.26-.38-2.24-1.36-2.62-2.62-2.34-7.68-5.4-14.26-9.01-19.57,2.85-.52,5.6-.79,8.23-.79,7.44,0,13.33,2.11,17.5,6.28,5.67,5.67,7.49,14.68,5.57,25.45Zm-7.47,24.96c3.6-6.45,6.5-12.87,8.38-19.02.68.51,1.33,1.03,1.95,1.56,4.17,3.61,8.17,10.06,8.17,17.46s-4.97,13.26-9.13,16.87c-.51.44-1.05.88-1.6,1.31-1.69-5.84-4.29-11.98-7.76-18.18ZM21.42,24.31c5.98-7.69,20.72-13.22,38.58-10.93,16.55,2.12,25.42,8.01,37.79,14.98-5.79.18-11.49,1.94-16.08,6.66-2.45,2.52-4.5,4.82-6.27,7.06-3.27-.65-6.42-.99-9.4-.99-7.67,0-14.82,1.81-19.47,6.45-6.64,6.64-6.91,17.61-4.67,29.1-3.42,2.5-6.41,5.05-8.98,7.36-4.21,3.77-6.55,8.59-7.05,13.59-16.2-30.18-17.69-56.26-4.45-73.29Zm2.99,153.55c-21.75-19.28-15.01-45.32,1.53-75.55,1.02,7.97,6.57,15.27,15.28,21.2-2.19,11.5-.41,21.44,5.95,27.81,4.65,4.65,11.2,6.85,18.88,6.85,2.5,0,5.12-.24,7.83-.7,5.92,9.45,13.8,14.47,22.79,15.16-34.11,19.22-57.94,17.92-72.25,5.23Zm148.58,1.33c-15.14,12.9-41.9,9.89-72.27-6.57,4.63-.45,8.98-2.58,12.74-6.56,2.53-2.68,5.24-5.68,7.86-9.09,3.61.78,7.07,1.18,10.33,1.18,7.67,0,14.23-2.2,18.88-6.85,6.57-6.57,8.26-16.95,5.74-28.93,8.2-5.52,13.92-11.89,15.32-19.22,6.7,12.12,11.93,22.52,14.37,32.7,2.61,10.86,4.94,28.07-12.97,43.33Z"/>
</svg>