<?xml version="1.0" encoding="UTF-8"?>
<svg id="Layer_1" data-name="Layer 1" xmlns="http://www.w3.org/2000/svg" viewBox="0 0 198.43 198.43">
  <defs>
    <style>
      .cls-1 {
        fill: #fff;
        stroke-width: 0px;
      }
    </style>
  </defs>
  <path class="cls-1" d="m177.76,22.9c-19.49-20.75-47.28-14.49-79.14,3.32-13.11-7.33-22.17-12.41-39.46-14.63-18.23-2.34-33.09,1.94-39.2,9.8-13.88,17.86-12.98,46.8,4.83,78.66-17.81,31.86-21.43,63.28-4.83,78.66,11.48,10.64,42.74,16.01,78.66-4.83,31.86,17.81,60.52,18.62,77.48,6.65,14.57-10.29,14.3-32.81,11.64-43.9-2.71-11.28-7.6-22.81-15.3-36.58,17.81-31.86,21.1-60.34,5.32-77.15Z"/>
</svg>