<svg xmlns="http://www.w3.org/2000/svg" viewBox="0 0 198.43 198.43" fill="#fff">
  <path d="m135.68,168.42c-11.1,0-24.25-3.83-38.04-11.42-25.53,14.05-48.88,15.23-61.07,3.03-12.19-12.19-11.01-35.54,3.03-61.07-14.05-25.53-15.03-48.68-2.83-60.87,11.68-11.68,33.4-11.3,57.68,1.14,2,1.03,4.38,1.03,6.39,0,24.27-12.43,45.4-12.22,57.08-.54h0s0,0,0,0c11.76,11.76,11.88,33.12-.81,57.6-.87,1.67-.99,3.74,0,5.34,15.38,24.95,17.03,47.05,1.61,58.4-7.4,5.45-13.57,8.38-23.03,8.39Zm-38.04-14.62c.25,0,.5.06.73.19,24.6,13.75,46.91,15.25,58.23,3.94,11.32-11.32,9.81-33.63-3.93-58.22-.25-.45-.25-1.01,0-1.47,13.75-24.59,15.25-46.9,3.93-58.22h0c-10.93-10.93-32.1-9.9-55.68,2.55-2.05,1.08-4.51,1.07-6.56,0-23.52-12.39-43.94-12.67-54.87-1.75-10.46,10.46-7.75,37.95,3.14,57.43.25.46.25,1.01,0,1.46-13.75,24.59-14.48,48.94-3.16,60.26,11.32,11.32,32.86,7.78,57.45-5.97.23-.13.48-.19.73-.19Zm29.23-1.16c-7.51,0-16.2-2.27-25.36-6.78-2.02-.99-4.38-1-6.4,0-18.1,8.92-34.42,9.1-43.27.25-9.37-9.37-6.54-27.46,1.9-46.46-10.52-19.36-10.17-37.04-.8-46.41,9.37-9.37,26.01-8.67,45.36,1.85,19.35-10.52,37.09-11.27,46.46-1.9h0s0,0,0,0c9.37,9.37,6.65,26.81-3.87,46.16,10.52,19.36,13.24,37.39,3.87,46.76-4.37,4.37-10.57,6.54-17.9,6.54Zm-28.55-13.77c.33,0,.65.08.95.25,17.64,9.86,33.56,11.01,41.56,3.02,8-8,6.84-23.92-3.02-41.56-.33-.59-.33-1.31,0-1.89,9.86-17.64,12.37-34.53,4.38-42.53h0c-8-8-25.28-5.87-42.92,3.99-.59.33-1.31.33-1.89,0-17.64-9.86-33.75-11.6-41.75-3.6-8,8-6.65,24.5,3.21,42.14.33.59.33,1.31,0,1.89-9.86,17.64-9.68,32.05-1.68,40.05,8,8,22.58,8.34,40.22-1.51.29-.16.62-.25.95-.25Zm17.57-5.47c-5.23,0-11.28-1.06-17.58-4.35-12.3,6.43-24.59,4.62-29.67-.69-3.68-3.84-4.32-12.44-2.58-19.67.7-2.93,2.9-5.33,4.53-8.51-6.42-12.3-6.42-23.36-.22-29.56,6.2-6.2,15.64-6.83,27.95-.41,12.3-6.42,23.63-6.62,29.83-.42h0c3.07,3.07,4.04,7.13,3.54,11.93-.53,5.15-2.39,11.71-5.64,17.92,7.18,11.25,7.16,21.72,1.69,29.01-2.56,3.42-6.87,4.73-11.86,4.73Zm-17.57-9.03c.49,0,.99.12,1.43.37,10.06,5.62,21.29,6.52,25.6,2.2,4.32-4.32,1.54-15.8-4.09-25.87-.5-.89-.5-1.97,0-2.86,5.62-10.06,6.54-22.06,1.75-24.98-5.21-3.17-13.2-2.16-23.26,3.46-.89.5-1.97.5-2.86,0-10.06-5.62-19.94-7.84-24.26-3.52-4.32,4.32-2.88,14.97,2.74,25.04.5.89.5,1.97,0,2.86-5.62,10.06-6.86,19.35-2.55,23.67,4.32,4.32,14,5.62,24.06,0,.44-.25.94-.37,1.43-.37Zm8.59-15.79c5.25-4.74,4.52-14.16,0-18.12-5.33-4.65-13.11-5-18.12,0-5.99,5.99-5,13.11,0,18.12,5,5,12.19,5.35,18.12,0Zm81.28,28.05c-4.07-10.52-6.9-22.97-15.7-36.58,17.81-31.86,21.1-60.34,5.32-77.15-19.49-20.75-47.28-14.49-79.15,3.32-13.11-7.33-22.17-12.41-39.46-14.63-18.23-2.34-33.09,1.94-39.2,9.8-13.88,17.86-12.98,46.8,4.83,78.66-17.81,31.86-22.83,64.96-4.83,78.66,18,13.7,42.74,16.01,78.66-4.83,31.86,17.81,58.93,18.02,75.89,6.05,14.57-10.29,17.4-33.57,13.63-43.3Zm-15.23,42.53c-15.76,12.29-43.09,9.75-74.29-7.69-35.16,20.4-59.63,19.29-74.22,6.36-22.28-19.75-14.65-46.6,2.78-77.8C9.8,68.85,7.87,41.84,21.47,24.36c5.98-7.69,20.71-13.21,38.56-10.92,16.93,2.17,25.8,8.28,38.64,15.45,31.19-17.44,57.21-25.89,76.94-6.19,15.98,15.95,11.64,46.15-5.79,77.34,7.53,13.48,13.46,24.77,16.11,35.82,2.6,10.85,5.58,28.85-12.97,43.31Z"/>
</svg>