<?xml version="1.0" encoding="UTF-8"?>
<svg id="Layer_1" data-name="Layer 1" xmlns="http://www.w3.org/2000/svg" viewBox="0 0 198.43 198.43">
  <defs>
    <style>
      .cls-1 {
        fill: #fff;
        stroke-width: 0px;
      }
    </style>
  </defs>
  <path class="cls-1" d="m194.3,98.51c-.05-.24-.12-.48-.21-.71,0,0-10.93-24.15-14.88-34.43-5.54-14.41-11.88-30.22-11.88-30.22-.28-.69-.77-1.27-1.38-1.68-.2-.14-.42-.25-.65-.35,0,0-4.67-2.25-10.87-5.12-.77-.36-1.57-.73-2.39-1.1-.82-.38-1.65-.76-2.49-1.14-5.07-2.31-10.56-4.75-15.12-6.62-1.7-.7-7.59-2.94-13.98-5.36-.98-.37-1.98-.75-2.97-1.12s-1.99-.75-2.97-1.12c-7.34-2.77-13.83-5.2-13.83-5.2-.23-.1-.47-.17-.71-.21-.24-.05-.48-.07-.73-.07-.49,0-.97.09-1.43.28,0,0-1.58.66-4.28,1.77-5.94,2.45-17.33,7.1-29.38,11.82-2.37.93-11.74,4.92-19.57,8.27-.13.05-.25.11-.38.16-1.18.51-2.32.99-3.4,1.45-.11.05-.23.1-.34.14-4.24,1.82-7.32,3.14-7.32,3.14-.46.19-.87.47-1.22.81s-.62.76-.81,1.21c0,0-.09.2-.26.58-.11.25-.25.57-.43.96-.52,1.17-1.3,2.93-2.22,5.01-2.31,5.21-5.5,12.46-7.74,17.59-.15.34-.29.67-.43,1-.7,1.61-1.28,2.95-1.68,3.88-2.84,6.69-14.03,35.62-14.03,35.62-.38.92-.38,1.95,0,2.87,0,0,.29.72.79,1.97.42,1.05.99,2.47,1.67,4.16.14.34.28.69.42,1.05.58,1.44,1.22,3.04,1.9,4.76.17.43.34.86.52,1.3,1.41,3.53,2.97,7.45,4.51,11.34.19.49.38.97.58,1.46.77,1.94,1.52,3.86,2.25,5.71.36.92.72,1.83,1.06,2.71,5.78,14.78,13.06,30.19,13.06,30.19.19.46.47.87.81,1.22.34.34.76.62,1.21.81,0,0,7.23,3.06,15.98,6.89.44.19.88.38,1.32.58,1.33.58,2.69,1.18,4.06,1.79,3.65,1.62,7.36,3.28,10.77,4.85,13.97,6.43,32.5,12.68,32.5,12.68.46.19.95.29,1.43.29.24,0,.49-.02.73-.07.24-.05.48-.12.71-.21,1.66-.74,3.21-1.43,4.66-2.08.73-.32,1.43-.64,2.11-.94,13.89-6.18,18.1-8.05,21.78-9.62.21-.09.41-.18.62-.26.15-.06.31-.13.46-.2.21-.09.41-.18.62-.27.99-.42,2.04-.86,3.33-1.41,3.1-1.31,6.34-2.62,9.49-3.87.9-.36,1.8-.71,2.68-1.05.88-.34,1.76-.68,2.62-1.01,1.29-.5,2.54-.97,3.74-1.43,2.4-.91,4.59-1.73,6.45-2.41,3.72-1.37,6.09-2.21,6.09-2.21.92-.38,1.65-1.11,2.03-2.03,0,0,.01-.02.03-.07.04-.09.13-.28.25-.55.42-.94,1.3-2.87,2.42-5.37.64-1.43,1.36-3.04,2.12-4.76.19-.43.38-.86.58-1.31,2.74-6.17,5.88-13.35,7.79-18.06.14-.34.27-.66.39-.97.25-.62.47-1.18.65-1.68,1.83-4.86,12.55-31.86,12.55-31.86.29-.69.36-1.44.21-2.16Zm-6.66,1.71c-.04.13-.07.27-.12.4,0,0-6.82,15.73-10.43,24.35-.12.28-.23.55-.34.82-.16.37-.3.73-.44,1.06-.52,1.27-.93,2.29-1.17,2.91-.11.3-.24.63-.37.98-.03.09-.07.18-.11.28-.12.31-.24.63-.38.97-.02.06-.04.11-.07.17-.16.4-.32.83-.5,1.27-.04.1-.08.21-.12.31-.15.38-.3.77-.46,1.17-.03.08-.07.17-.1.25-.2.5-.4,1.01-.61,1.54-.02.04-.03.08-.05.12-.19.48-.39.97-.59,1.47-.04.11-.09.22-.13.33-.44,1.09-.89,2.21-1.35,3.34-.05.12-.09.23-.14.35-.73,1.79-1.47,3.61-2.19,5.38-.01.03-.02.05-.03.08-.24.59-.48,1.18-.72,1.76-.02.04-.03.07-.05.11-.22.54-.44,1.08-.66,1.6-.02.04-.04.09-.05.13-.44,1.06-.85,2.07-1.24,3.02-.06.13-.11.27-.16.4-.16.38-.31.76-.46,1.12-.01.03-.02.06-.03.08.4-14.82,1.19-47.48.79-57.74-.73-18.76-.75-43.76-.7-55.81,2.23,5.14,5.8,13.35,8.01,18.45.02.06.05.11.07.16.51,1.19.95,2.2,1.28,2.95.02.04.04.08.05.12.1.24.2.46.27.64,4.05,9.42,13.19,33.18,13.19,33.18.3.72.33,1.52.12,2.27Zm-28.2,56.89c.62.62-29.9-12.07-52.07-19.17-17.72-5.67-27.93-11.31-27.93-11.31,0,0-10.02-20.87-15.54-33.81-10.17-23.83-21.48-54.43-21.48-54.43,0,0,37.92-.78,53.1-.55,25.49.37,63.07,1.22,63.07,1.22,0,0,.39,28.56.89,58.08.41,23.91-.03,59.96-.03,59.96ZM110.45,15.01c.42.17.85.35,1.28.53,1.3.53,2.64,1.08,3.99,1.64,1.35.55,2.7,1.11,4.01,1.65.88.36,1.74.71,2.57,1.05.42.17.82.34,1.22.5,2.96,1.21,5.43,2.23,6.83,2.8.3.12.56.23.76.31.45.18.91.37,1.38.56.06.03.13.05.19.08.41.17.83.34,1.25.52.08.03.16.06.24.1.94.39,1.91.79,2.89,1.2.17.07.34.14.51.21.32.13.64.26.96.4.18.07.35.15.53.22.34.14.68.28,1.02.43.3.13.6.25.9.38.31.13.61.26.92.38.24.1.48.2.71.3.26.11.53.22.79.33.21.09.42.18.63.26.3.13.6.25.9.38.35.15.7.29,1.05.44.28.12.56.23.84.35.29.12.57.24.86.36.12.05.24.1.36.15.3.13.6.25.89.37.16.07.33.14.49.21,2.26.95,4.35,1.83,6.1,2.57-15.99-.18-52.04-.56-69.18-.48-10.01.05-29.66-.46-41.2-.79.03-.01.06-.03.09-.04,7.6-3.53,18.6-8.59,21.16-9.5,6.7-2.37,31.51-11.91,31.53-11.92h0c.43-.18.88-.27,1.33-.27.02,0,.04,0,.06,0,.43,0,.87.09,1.27.26,0,0,1.93.79,4.82,1.98.28.11.56.23.85.35,1.28.52,2.7,1.11,4.22,1.73ZM10.9,100.58c-.18-.43-.27-.88-.27-1.33,0-.45.09-.91.27-1.33,0,0,.88-2.1,2.2-5.27.29-.7.61-1.46.94-2.25.26-.63.54-1.29.82-1.96,1.22-2.92,2.6-6.2,3.94-9.4.23-.54.45-1.08.68-1.62.74-1.77,1.46-3.49,2.13-5.08.55-1.31,1.06-2.52,1.51-3.6.12-.29.24-.57.35-.83.48-1.14.89-2.1,1.18-2.8.55-1.31,1.48-3.54,2.56-6.17.16-.38.32-.77.48-1.17,1.02-2.49,2.15-5.26,3.23-7.92.44-1.09.88-2.15,1.29-3.18.18-.43.35-.86.52-1.27.12-.28.23-.56.34-.84.16-.4.32-.79.47-1.17,1.34-3.31,2.28-5.62,2.28-5.62.09-.22.2-.42.33-.61,4.07,10.39,15.59,39.88,19.11,49.49,4.13,11.26,15.67,35.46,18.74,41.86-3.63,3.18-11.57,10.07-18.08,15.34-6.1,4.93-17.12,12.95-20.75,15.57-.06-.14-.13-.29-.2-.45-.02-.05-.04-.1-.07-.15-.07-.17-.15-.35-.24-.53,0-.02-.01-.03-.02-.05-.15-.34-.31-.71-.49-1.11-.04-.09-.08-.18-.12-.28-.09-.2-.18-.4-.27-.62-.12-.29-.26-.58-.39-.89-.08-.18-.16-.36-.24-.55-.09-.21-.18-.42-.27-.63-.14-.32-.28-.64-.42-.98-.1-.23-.2-.46-.3-.69-.09-.21-.18-.42-.28-.64-.17-.4-.35-.82-.53-1.24-.08-.18-.15-.36-.23-.54-.14-.34-.29-.68-.44-1.03-.1-.23-.2-.46-.29-.69-.18-.42-.36-.85-.54-1.28-.08-.19-.16-.38-.24-.57-.21-.5-.42-1.01-.64-1.52-.07-.16-.13-.31-.2-.47-.19-.44-.37-.89-.56-1.34-.07-.16-.13-.32-.2-.47-.23-.55-.46-1.11-.69-1.68-.07-.16-.13-.32-.2-.48-.24-.58-.48-1.17-.72-1.76-.04-.09-.08-.19-.12-.28-.22-.54-.44-1.08-.66-1.62-.06-.14-.11-.28-.17-.41-.24-.59-.48-1.19-.71-1.79-.06-.14-.11-.29-.17-.43-.24-.61-.48-1.23-.72-1.84,0-.01,0-.02-.01-.03-3.53-9.03-8.33-20.66-10.99-27.05-1.21-2.9-1.97-4.72-1.97-4.72Zm71.51,81.38c-1.08-.42-2.19-.85-3.3-1.29-2.03-.81-4.09-1.65-6.12-2.51-.22-.09-.44-.19-.66-.28-1.61-.69-3.19-1.39-4.72-2.09-.53-.24-1.07-.49-1.62-.74-.13-.06-.26-.12-.39-.18-.5-.23-1-.46-1.51-.69-.05-.02-.09-.04-.14-.06-.54-.24-1.09-.49-1.63-.74-.15-.07-.31-.14-.46-.21-.48-.21-.96-.43-1.44-.64-.09-.04-.17-.08-.26-.12-.54-.24-1.09-.48-1.63-.73-.16-.07-.33-.14-.49-.22-.43-.19-.87-.38-1.3-.58-.13-.06-.27-.12-.4-.18-.51-.23-1.02-.45-1.53-.67-.19-.09-.39-.17-.58-.26-.37-.16-.74-.32-1.11-.49-.18-.08-.37-.16-.55-.24-.48-.21-.96-.42-1.43-.62-.17-.07-.34-.15-.51-.22-.4-.17-.79-.34-1.18-.51-.12-.05-.24-.1-.36-.16-.48-.21-.94-.41-1.4-.61-.14-.06-.28-.12-.42-.18-.36-.16-.72-.31-1.06-.46-.12-.05-.24-.1-.36-.15-.43-.18-.84-.36-1.25-.54-.13-.06-.26-.11-.39-.17-.26-.11-.51-.22-.76-.33-.17-.07-.34-.15-.51-.22-.34-.15-.67-.29-.98-.42-.12-.05-.22-.1-.33-.14-.2-.09-.4-.17-.59-.25-.09-.04-.19-.08-.27-.12,4.13-3.51,12.99-11.04,19-16.23,6.19-5.33,14.76-11.97,18.42-14.77,3.73,1.28,16.31,5.65,30.96,11.2,10.22,3.87,40.33,15.27,50.26,19.03-4.42,1.78-19.11,7.73-27.11,11.56-7.07,3.38-31.77,12.83-31.77,12.83-.41.17-.84.25-1.27.26-.02,0-.04,0-.07,0-.45,0-.91-.09-1.33-.27,0,0-7-2.36-15.45-5.62Z"/>
</svg>