<?xml version="1.0" encoding="UTF-8"?>
<svg id="Layer_1" data-name="Layer 1" xmlns="http://www.w3.org/2000/svg" viewBox="0 0 198.43 198.43">
  <defs>
    <style>
      .cls-1 {
        fill: #fff;
        stroke-width: 0px;
      }
    </style>
  </defs>
  <path class="cls-1" d="m194.09,97.8s-10.93-24.15-14.88-34.43c-5.54-14.41-11.88-30.22-11.88-30.22-.38-.92-1.11-1.65-2.03-2.03,0,0-18.69-9-30.88-13.99-4.18-1.71-33.76-12.8-33.76-12.8-.92-.38-1.95-.38-2.87,0,0,0-16.14,6.72-33.65,13.59-4.24,1.66-31,13.17-31,13.17-.92.38-1.65,1.11-2.03,2.03,0,0-10.24,23.1-12.76,29.02-2.84,6.69-14.03,35.62-14.03,35.62-.38.92-.38,1.95,0,2.87,0,0,8.19,20.35,13.7,34.45,5.78,14.78,13.06,30.19,13.06,30.19.38.92,1.11,1.65,2.03,2.03,0,0,18.51,7.84,32.14,14.11,13.97,6.43,32.5,12.68,32.5,12.68.92.38,1.95.38,2.87,0,26.52-11.81,25.99-11.57,33.58-14.77,14.19-5.99,31.07-11.99,31.07-11.99.92-.38,1.65-1.11,2.03-2.03,0,0,11.24-24.8,14.24-32.78,1.83-4.86,12.55-31.86,12.55-31.86.38-.92.38-1.95,0-2.87Zm-6.57,2.82s-10.68,24.62-12.38,29.15c-2.79,7.43-12.55,31.02-12.55,31.02-.35.85-1.03,1.53-1.89,1.89,0,0-18.91,7.54-28.4,12.08-7.07,3.38-31.77,12.83-31.77,12.83-.85.35-1.81.35-2.67,0,0,0-17.25-5.82-30.25-11.8-12.69-5.84-29.91-13.14-29.91-13.14-.85-.35-1.53-1.03-1.89-1.89,0,0-6.57-14.65-11.95-28.41-5.13-13.13-12.96-31.77-12.96-31.77-.35-.85-.35-1.81,0-2.67,0,0,11.12-26.59,13.77-32.82,2.34-5.51,11.17-27.35,11.17-27.35.35-.85,1.03-1.53,1.89-1.89,0,0,24.65-11.58,28.64-12.99,6.71-2.37,31.53-11.92,31.53-11.92.85-.35,1.81-.35,2.67,0,0,0,26.65,10.94,30.54,12.53,11.34,4.64,29.62,12.41,29.62,12.41.85.35,1.53,1.03,1.89,1.89,0,0,9.86,22.67,11.72,26.99,4.05,9.42,13.19,33.18,13.19,33.18.35.85.35,1.81,0,2.67Zm-92.24-33.41c.36.1,9.87,4.93,13.6,6.96,3.73,2.04,13.53,8.96,13.53,8.96.44.25.71.72.71,1.23,0,0,.21,10.64.39,15.97.22,6.43-.39,15.31-.39,15.31,0,.51-.27.97-.71,1.23,0,0-7.47,4.62-14.08,8.41-4.06,2.33-13,7.23-13,7.23-.44.25-.98.25-1.42,0,0,0-21.14-11.59-15.4-8.34,5.74,3.25-11.69-7.3-11.69-7.3-.44-.25-.71-.72-.71-1.23,0,0-.72-3.56-.46-14.86.26-11.31.46-16.41.46-16.41,0-.51.27-.97.71-1.23,0,0,7.27-4.7,12.24-7.63s14.87-8,14.99-8.08c.73-.52,1.23-.21,1.23-.21Zm-1.16-4.61c-.17.1-11.74,6.83-17.08,9.95-5.34,3.12-14.21,8.28-14.21,8.28-.44.25-.71.72-.71,1.23,0,0,.17,13.35.1,18.5-.06,5.15-.1,17.4-.1,17.4,0,.51.27.97.71,1.23,0,0,8.49,4.73,14.03,7.76,5.87,3.21,17.06,10.19,17.06,10.19.44.25.98.25,1.42,0,0,0,11.24-6.09,15.59-9,4.35-2.91,15.5-8.95,15.5-8.95.44-.25.71-.72.71-1.23,0,0,.17-12.43.05-16.95-.17-6.62-.05-19.32-.05-18.94,0-.51-.27-.97-.71-1.23,0,0-8.85-5.51-16.24-9.49-7.39-3.98-14.96-8.74-14.96-8.74,0,0-.6-.29-1.1,0Zm27.73-21.43s12.11,10.34,18.5,16.02c5.66,5.03,17.72,15.15,20.4,17.39.34.28.52.7.5,1.14-.16,3.45-.41,19.55-.43,27.06-.02,7.5-1.08,21.11-1.23,24.34-.02.42-.22.8-.56,1.06-3.12,2.36-17.39,13.93-22.6,17.62-5,3.53-16.15,11.22-18.58,13.07-.37.29-.86.37-1.3.22-3.33-1.12-16.25-2.87-25.56-5.09-7.71-1.84-21.29-6.9-24.21-7.89-.36-.12-.66-.38-.82-.73-1.34-2.8-7.58-15.93-10.6-24.02-2.96-7.93-8.73-20.07-10.16-23.04-.2-.43-.18-.91.05-1.32,1.67-2.84,7.07-14.46,10.48-21.93,3.55-7.76,11.63-20.87,13.26-23.66.2-.35.54-.59.93-.67,3-.62,17.77-4.5,25.49-5.82,8.75-1.5,24.8-3.99,25.05-4.05.83-.19,1.39.3,1.39.3Zm1.69-4.85s-.64-.94-2.13-.67c-3.32.62-20.13,3.73-26.88,4.93-6.86,1.22-24.42,4.94-27.92,5.69-.39.08-.73.33-.93.68-1.55,2.7-8.52,14.94-12.99,24.92-4.42,9.87-11.34,22.06-13,24.95-.23.4-.25.88-.05,1.3,1.5,3.17,7.95,16.93,11.32,25.66,3.39,8.79,9.92,22.7,11.36,25.74.18.39.52.66.93.76,3.45.85,19.8,4.91,26.62,7.01s24.22,6.43,27.79,7.31c.41.1.83.02,1.17-.23,2.85-2.09,14.74-11.23,20.47-15.71,5.73-4.47,21.58-15.7,24.6-17.91.36-.26.57-.67.57-1.12.03-3.34.8-17.77.89-26.87.1-9.08.94-25.92.97-29.36,0-.4-.16-.78-.46-1.05-2.79-2.53-17.08-14.01-22.36-18.58-5.51-4.76-19.98-17.46-19.98-17.46Zm-10.72,119.33"/>
</svg>