<?xml version="1.0" encoding="UTF-8"?>
<svg id="Layer_1" data-name="Layer 1" xmlns="http://www.w3.org/2000/svg" viewBox="0 0 198.43 198.43">
  <defs>
    <style>
      .cls-1 {
        fill: #fff;
        stroke-width: 0px;
      }
    </style>
  </defs>
  <path class="cls-1" d="m194.09,97.8s-10.93-24.15-14.88-34.43c-5.54-14.41-11.88-30.22-11.88-30.22-.38-.92-1.11-1.65-2.03-2.03,0,0-18.69-9-30.88-13.99-4.18-1.71-33.76-12.8-33.76-12.8-.92-.38-1.95-.38-2.87,0,0,0-16.14,6.72-33.65,13.59-4.24,1.66-31,13.17-31,13.17-.92.38-1.65,1.11-2.03,2.03,0,0-10.24,23.1-12.76,29.02-2.84,6.69-14.03,35.62-14.03,35.62-.38.92-.38,1.95,0,2.87,0,0,8.19,20.35,13.7,34.46,5.78,14.78,13.06,30.19,13.06,30.19.38.92,1.11,1.65,2.03,2.03,0,0,18.51,7.84,32.14,14.11,13.97,6.43,32.5,12.68,32.5,12.68.92.38,1.95.38,2.87,0,26.52-11.81,25.99-11.57,33.58-14.77,14.19-5.99,31.07-11.99,31.07-11.99.92-.38,1.65-1.11,2.03-2.03,0,0,11.24-24.8,14.24-32.78,1.83-4.86,12.55-31.86,12.55-31.86.38-.92.38-1.95,0-2.87Zm-19.76-33.03c3.64,8.46,11.38,28.48,12.92,32.47l-23.38,1.96-15.5.41-6.73-8.25-6.41-7.86,2.92-26.89,13.69-10.16,11.02-8.12c1.52,3.48,9.79,22.52,11.48,26.44Zm-93.48,27.62l-18.62-10.45-.21-26.58s8.72-4.39,16.07-9.86c7.36-5.47,18.53-12.38,18.53-12.38l18.53,11.31,19.91,12.15-2.85,26.29s-16.69,6.34-22.67,9.03c-5.97,2.7-18.25,6.35-18.25,6.35l-10.45-5.86Zm8.78,8.45v30.51l-21.52,5.24-16.52,4.02s-8.93-20.37-11.21-24.19c-2.28-3.82-7.8-16.84-7.8-16.84l13.75-7.34,14.36-7.66,18.84,9.76,10.1,6.49Zm2.55,14.65c.73-13.14.51-14.49.51-14.49,0,0,4.89-1.6,18.14-7.33,12.71-5.18,22.3-7.87,22.3-7.87l6.55,8.03,6.42,7.87-.86,14.82-1.2,20.72s-9.21,4.19-16.31,6.79c-7.1,2.6-17.71,5.66-17.71,5.66l-17.33-17.75s-1.24-3.3-.51-16.44Zm8.37-104.53s26.65,10.94,30.54,12.53c11.34,4.64,29.62,12.41,29.62,12.41.06.02.1.06.16.08l-10.29,7.58-13.99,10.38-20.32-12.4-18.12-11.06.37-10.91.35-8.84c.56-.06,1.14.01,1.67.23Zm-34.2,11.92c5.52-1.95,23.3-8.76,29.42-11.11l-.28,6.91-.4,11.79s.05-.03.14-.09c-1.48.95-4.31,2.77-9.4,6.04-16.5,10.6-25.24,16.22-25.24,16.22l-11.62-9.73-9.32-7.95c5.89-2.75,23.39-10.91,26.7-12.08Zm-41.7,42.22c2.34-5.51,11.17-27.35,11.17-27.35.2-.49.52-.91.9-1.25l10.24,8.71,11.98,10.04.21,26.67-13.99,7.47-14.97,7.99s.15.59-9.61.44c-2.8-.04-7.05-.17-9.54-.29,1.36-3.24,11.15-26.64,13.6-32.43Zm-.81,67.25c-5.13-13.13-12.96-31.77-12.96-31.77-.03-.07-.04-.15-.07-.22l10.2.04,8.59.04,8.01,17.29,11.36,24.51-5.57,7.99-7.64,10.47c-.4-.88-6.72-15.04-11.93-28.36Zm43.75,43.43c-11.61-5.34-27-11.9-29.54-12.98l8.37-11.52,5.24-7.53s8.33-1.23,16.95-4.13c8.62-2.9,22.06-5.38,22.06-5.38l17.24,17.66-3.92,14.61-.72,2.66-4.98,18.54c-.15-.04-.3-.08-.45-.14,0,0-17.25-5.82-30.25-11.8Zm64.69-1.03c-7.07,3.38-31.77,12.83-31.77,12.83-.02,0-.04,0-.06.02.25-.09.61-.24,1.11-.43l4.55-19.15,4.78-15.4,17-6.22,17.07-6.25s1.76,2.33,8.64,10.72c4.26,5.19,7.08,9.42,8.06,11.16-.29.26-.62.48-.98.64q-18.49,7.37-28.4,12.08Zm42.84-44.98c-2.38,6.35-9.86,24.5-11.98,29.64l-7.74-10.36-8.33-11.19,1.23-21.17.81-14.06,14.9-.88,23.6-1.5c-.04.13-.06.25-.11.38,0,0-10.68,24.62-12.38,29.15Z"/>
</svg>