<svg xmlns="http://www.w3.org/2000/svg" viewBox="0 0 198.43 198.43" fill="#fff">
  <path d="m167.33,33.15s11.32,24.24,13.32,28.88c4.35,10.12,13.44,35.77,13.44,35.77.38.92.38,1.95,0,2.87,0,0-10.73,27-12.55,31.86-2.99,7.98-14.24,32.78-14.24,32.78-.38.92-1.11,1.65-2.03,2.03,0,0-20.32,8.1-30.51,12.97-7.59,3.63-34.14,13.79-34.14,13.79-.92.38-1.95.38-2.87,0,0,0-18.53-6.25-32.5-12.68-13.63-6.27-32.14-14.11-32.14-14.11-.92-.38-1.65-1.11-2.03-2.03,0,0-7.28-15.42-13.06-30.19-5.51-14.11-13.7-34.45-13.7-34.45-.38-.92-.38-1.95,0-2.87,0,0,11.2-28.93,14.03-35.62,2.51-5.92,12.76-29.02,12.76-29.02.38-.92,1.11-1.65,2.03-2.03,0,0,26.48-12.44,30.77-13.96,7.21-2.55,33.87-12.8,33.87-12.8.92-.38,1.95-.38,2.87,0,0,0,29.58,11.09,33.76,12.8,12.18,4.99,30.88,13.99,30.88,13.99.92.38,1.65,1.11,2.03,2.03Z"/>
</svg>