<svg xmlns="http://www.w3.org/2000/svg" viewBox="0 0 198.43 198.43" fill="#fff">
  <path d="m194.09,97.81s-10.93-24.15-14.88-34.43c-5.54-14.41-11.88-30.22-11.88-30.22-.38-.92-1.11-1.65-2.03-2.03,0,0-18.69-9-30.88-13.99-4.18-1.71-33.76-12.8-33.76-12.8-.92-.38-1.95-.38-2.87,0,0,0-16.14,6.72-33.65,13.59-4.24,1.66-30.99,13.17-30.99,13.17-.92.38-1.65,1.11-2.03,2.03,0,0-10.24,23.1-12.76,29.02-2.84,6.69-14.03,35.61-14.03,35.61-.38.92-.38,1.95,0,2.87,0,0,8.19,20.35,13.7,34.45,5.78,14.78,13.06,30.19,13.06,30.19.38.92,1.11,1.65,2.03,2.03,0,0,18.51,7.84,32.14,14.11,13.97,6.43,32.5,12.68,32.5,12.68.92.38,1.95.38,2.87,0,26.52-11.81,25.99-11.57,33.58-14.77,14.19-5.99,31.07-11.99,31.07-11.99.92-.38,1.65-1.11,2.03-2.03,0,0,11.24-24.79,14.24-32.77,1.83-4.86,12.55-31.86,12.55-31.86.38-.92.38-1.95,0-2.87Zm-6.57,2.82s-10.68,24.62-12.38,29.14c-2.79,7.43-12.55,31.02-12.55,31.02-.35.85-1.03,1.53-1.89,1.89q-18.49,7.37-28.4,12.07c-7.07,3.38-31.77,12.83-31.77,12.83-.85.35-1.81.35-2.67,0,0,0-17.25-5.82-30.25-11.8-12.69-5.84-29.91-13.14-29.91-13.14-.85-.35-1.53-1.03-1.89-1.89,0,0-6.57-14.65-11.95-28.41-5.13-13.13-12.96-31.77-12.96-31.77-.35-.85-.35-1.81,0-2.67,0,0,11.12-26.59,13.77-32.82,2.34-5.51,11.17-27.34,11.17-27.34.35-.85,1.03-1.53,1.89-1.89,0,0,24.65-11.58,28.64-12.99,6.64-2.35,31.05-11.73,31.51-11.91-6.03,4.13-19.85,13.94-26.7,18.55-8.65,5.82-24.21,16.58-24.22,16.59-1.28.76-2.1,2.12-2.57,3.47-2.1,5.08-5.15,13.68-7.29,18.84-1.27,2.91-10.77,25.18-11.85,27.56-.65,1.34-1.07,2.97-.53,4.49.4,1.11,6.59,16.35,9.89,23.82,3.3,7.46,10.62,25.51,10.62,25.51.48,1.44,1.86,2.67,3.34,3.15,7.17,2.94,18.04,7.34,23.12,9.42,8.98,3.66,18.31,7.68,25.39,10.59,1.16.52,2.51.6,3.7.17l2.91-1.2s15.3-6.42,21.28-8.85c9.06-3.69,23.65-9.84,23.65-9.84l1.4-.58c1.17-.45,2.16-1.35,2.68-2.49,2.92-7.06,6.6-16.87,9.93-24.68,3.19-7.5,9.82-23.25,10.4-24.6.48-1.09.55-2.48.09-3.61l-.6-1.45s-6.23-15.07-9.72-22.55c-2.22-4.76-7.7-19.32-10.14-25.19-.48-1.36-1.83-2.41-3.2-2.85,0,0-10.93-4.55-23.23-9.7-9-3.77-17.63-7.15-24.57-10.01-1.37-.7-3.01-.9-4.43-.21l-.19.16s-13.71,11.56-21.02,17.05c-6.36,4.77-16.86,14.07-16.86,14.07-.93.78-2.09,1.57-2.54,2.75-1.69,4.11-4.21,10.43-8.28,20.08-4.07,9.65-7.39,17.92-7.39,17.92-.18.44-.46,1.31-.34,1.87.04,1,5.16,13.14,7.82,19.29,2.34,5.42,6.47,15.47,8.73,20.92.39.74,1.04,1.33,1.8,1.65,4.96,2.07,12.9,4.96,17.14,7.07s14.23,5.83,19.98,8.24c.79.29,1.8.85,2.63.95,1.05.19,2.11-.38,3.01-.74l2.26-.94c3.64-1.52,11.91-4.65,18.27-7.06,6.35-2.41,14.28-6.49,15.68-7.06.82-.38,1.98-.66,2.6-1.44.39-.4.61-.93.82-1.43.3-.69,4.33-10.52,7.51-17.66,3.18-7.14,6.22-15.58,8.26-20.58l.06-.14.08-.22c.44-.99-.02-2.38-.4-3.18-.28-.7-7.62-18.01-9.99-24.27-2.38-6.26-3.98-9.3-5.78-13.64-.32-.83-1.05-1.6-1.91-1.9,0,0-8.52-3.01-17.92-5.91-10.03-3.09-20.81-6.95-20.84-6.96-.25-.1-.57-.27-1.09-.34-1.16-.25-2.23,1.1-2.96,1.67,0,0-5.46,3.89-11.19,9.45-5.65,5.49-14.82,13.43-15.78,14.31-.93,1-1.2,2.39-1.74,3.49-.76,1.85-2.27,6.3-4.66,11.3-3.03,6.32-5.47,13.27-5.77,14.01-.25.59-.12,1.41.11,1.94,0,0,3.79,9.35,5.51,13.24,1.72,3.89,5.95,14.5,6.31,15.03.37.65,1.24.95,1.87,1.21,0,0,6.2,2.21,10.68,4.41,4.47,2.2,13.39,5.52,16.72,6.88,1.08.41,2.16-.3,3.08-.65,1.89-.79,4.13-1.64,8.62-3.59,4.49-1.95,17.96-7.43,17.96-7.43.59-.24,1.04-.7,1.28-1.28,0,0,3.38-7.93,5.62-13.55,2.24-5.62,5.99-14.45,5.99-14.45.24-.59.24-1.23,0-1.82,0,0-3.58-7.93-5.91-14.27-2.33-6.35-5.68-13.73-5.68-13.73-.24-.59-.7-1.04-1.36-1.31,0,0-11.16-3.19-16.07-4.61-2.84-.82-11.64-3.32-11.64-3.32-.62-.26-1.57-.2-2.25.51,0,0-8.47,8.22-10.22,9.88-3.08,2.91-8.4,7.93-8.4,7.93-.27.32-.5.68-.66,1.07,0,0-2.32,6.02-3.5,8.95-1.66,4.16-3.98,9.09-3.98,9.09-.19.45-.19.95,0,1.4,0,0,2.92,7.13,3.74,9.05.82,1.92,3.92,9.48,3.92,9.48.19.45.54.8.99.99,0,0,5.73,2.44,8.68,3.6,2.95,1.16,9.85,4.08,9.85,4.08.45.19.94.19,1.39,0,0,0,7.38-2.86,10.1-4.18s8.42-3.49,8.42-3.49c.45-.19.8-.54.99-.99l5.03-12.88,2.65-5.64c.19-.45.19-.95,0-1.39l-7.61-18.5c-.19-.45-.54-.8-.99-.99l-17.46-4.26c-.9-.24-1.36-.03-2.06.57l-11.58,11.01c-.27.28-.58.62-.76,1.1,0,0-.73,1.41-2.05,4.94-1.32,3.53-2.72,6.56-2.72,6.56-.15.36-.15.76,0,1.12l4.76,11.5c.15.36.43.64.79.79l11.49,4.76c.36.15.76.15,1.12,0l11.5-4.76c.36-.15.64-.43.79-.79l4.76-11.5c.15-.36.15-.76,0-1.12l-2.91-6.55-1.85-4.95c-.15-.36-.43-.64-.79-.79l-9.82-2.07c-.58-.08-1.02.05-1.45.43,0,0-1.09,1.18-2.6,3.4-1.52,2.22-3.79,4.96-3.79,4.96l-.07.1s-.05.1-.1.21c0,0,0,0,0,0l-2.3,5.55c0,.08,0,.15,0,.23l.82,1.74c.17.37.33.74.47,1.12l.99,2.65c.06.07.12.13.19.21l2.47,1.22,3.07,1.07h.25s1.62-.54,2.79-.87c1.17-.34,2.75-1.42,2.75-1.42.06-.06.11-.11.17-.17,0,0,.67-1.16,1.43-2.99.76-1.83.86-2.55.86-2.55,0-.08,0-.16,0-.25l-2.29-5.54c-.06-.06-.11-.11-.17-.17,0,0-1.31-.69-3.03-1.39-1.71-.7-2.51-.91-2.51-.91h-.25l-2.96,1.22,4.83-6.32c.07-.02.12-.04.18-.07l4.74,1,4.75,1,4.75,11.43-1.07,3.14c-.66,1.95-1.45,3.85-2.37,5.7l-1.31,2.63-11.46,4.76-11.47-4.74-1.53-3c-1.12-2.19-2.04-4.48-2.74-6.84l-.49-1.63s1.61-3.45,2.86-6.91,1.91-4.61,1.91-4.61c.09-.24.27-.43.42-.58l11.53-10.96q.38-.32.7-.23l17.23,4.2c.06.05.14.12.2.17l7.61,18.5c0,.09,0,.16,0,.25l-7.68,18.52c-.06.06-.11.11-.17.17,0,0-2.64,1.31-8.96,4.05-6.32,2.74-9.57,3.62-9.57,3.62h-.25s-6.48-2.29-9.55-3.7c-3.08-1.41-8.97-3.98-8.97-3.98-.06-.06-.11-.11-.17-.17,0,0-2.55-5.67-3.99-9.23-1.44-3.56-3.68-9.29-3.68-9.29v-.25s2.37-6.13,3.68-9.08c1.33-2.99,3.8-8.96,3.8-8.96.1-.25.24-.47.36-.62,0,0,7.15-7.21,9.14-8.96,3.49-3.08,9.44-8.81,9.44-8.81.23-.23.49-.24.7-.16,0,0,9.91,2.4,12.14,2.94,4.41,1.08,15.57,4.99,15.57,4.99.21.09.38.26.47.47,0,0,3.55,9.11,5.81,14.03,2.26,4.92,5.78,13.97,5.78,13.97.09.21.09.45,0,.67,0,0-4.12,9.47-5.74,13.84-1.61,4.37-5.87,14.15-5.87,14.15-.09.21-.26.38-.47.47,0,0-15.91,6.8-18.73,7.75-2.82.95-6.14,2.53-8.69,3.58-.25.1-.63.27-.72.28-.32.12-.96-.25-1.24-.34-2.17-.91-12.16-5.07-16.54-6.89-4.39-1.83-8.19-3.41-10.73-4.47-.4-.19-.39-.45-.62-.95l-.34-.83s-3.26-7.83-5.46-13.26c-2.2-5.43-5.46-13.26-5.46-13.26-.23-.41-.06-.69.08-1.04,1.25-3,4.54-10.3,5.68-13.41,1.83-4.99,4.66-11.4,4.66-11.4l.69-1.65c.25-.62.38-.94.69-1.26l2.65-2.32c3.8-3.32,6.73-6.33,11.26-10.29,4.02-3.51,9.64-7.98,13-10.91l1.32-1.15c.11-.09.31.03.66.17.03.01,11.04,3.41,21.26,6.57,7.95,2.45,16.19,6.21,17.49,6.46.19.08.36.21.48.38.07.1.1.14.16.31l.23.57c2.12,5.13,4.35,11.12,7.21,17.5,2.86,6.37,6.07,14.78,8.57,20.85.14.41-.34,1.29-.47,1.64l-.94,2.26c-1.81,4.32-3.19,6.55-6.4,15.37s-5.94,14.27-8.21,19.7l-.12.28-.09.2c-.08.16-.21.3-.36.39-.07.05-.14.07-.37.17l-1.13.47c-4.47,1.84-7.4,3.57-15.55,7.06-6.9,2.96-13.64,4.96-18.45,6.94l-2.27.93-1.13.47c-.22.09-.34.1-.52.08-.09-.01-.16-.03-.25-.07l-.57-.24c-5.8-2.44-13.63-5.86-21-8.74-7.36-2.87-16.68-6.96-17.17-7.17-.17-.07-.32-.21-.41-.38,0,0-5.63-12.47-8.9-20.27-3.49-8.31-6.92-18.14-6.92-18.14l-.21-.5c-.05-.13-.06-.27-.03-.41,1.23-3.07,4.79-11.94,6.82-17.7,2.99-8.48,7.27-16.13,8.85-19.94.15-.31.29-.83.58-1.05.3-.25.97-.83,1.31-1.08,2.45-1.99,12.8-11.31,18.69-16.01,5.89-4.7,15.95-12.25,19.09-14.79.49-.11,1.05.25,1.45.38,7.39,3.06,18.15,7.89,23.8,10.23,5.65,2.34,17.34,6.94,23.93,9.66.46.23,1.11.31,1.28.94,2.5,6.07,8.68,20.58,11.09,26,2.66,5.99,8.95,22.83,9.16,23.18.24.47-.24,1.13-.35,1.54l-.58,1.4c-2.49,5.94-6.52,16.79-8.56,21.27s-7.64,17.68-10.75,25.06l-.26.63c-.07.14-.17.26-.3.35-.03.02-.07.04-.1.06l-.05.02-.16.06-1.41.58c-6.45,2.65-16.24,7.65-23.89,10.47-4.09,1.51-17.73,6.67-23.83,9.17-.16.06-.35.06-.51,0l-.23-.09-.7-.29s-16.47-6.13-25.11-9.95c-6.6-2.92-16.43-7.35-22.97-10.08-.17-.07-.39-.15-.48-.33-.05-.08-.02,0-.15-.33-2.25-5.46-8.15-18.52-11.65-26.33-3.51-7.84-7.46-20.13-8.56-22.75,0-.1,0-.18,0-.27l2.18-5.26s6.58-17.39,9.2-23.6c3.16-7.48,5.71-12.19,7.18-15.71.27-.63,1.33-3.26,1.6-3.79.11-.2.33-.27.49-.41,0,0,18.83-13.67,24.49-17.83,5.05-3.71,23.29-17.97,28.9-20.19,6.73,2.76,24.88,10.21,28.03,11.5,11.34,4.64,29.62,12.41,29.62,12.41.85.35,1.53,1.03,1.89,1.89,0,0,9.86,22.67,11.72,26.99,4.05,9.42,13.19,33.18,13.19,33.18.35.85.35,1.81,0,2.67Z"/>
</svg>