<?xml version="1.0" encoding="UTF-8"?>
<svg id="Layer_1" data-name="Layer 1" xmlns="http://www.w3.org/2000/svg" viewBox="0 0 198.43 198.43">
  <defs>
    <style>
      .cls-1 {
        fill: #fff;
        stroke-width: 0px;
      }
    </style>
  </defs>
  <path class="cls-1" d="m194.09,97.8s-4.61-16.63-13.44-35.77c-8.83-19.14-13.32-28.88-13.32-28.88-.38-.92-1.11-1.65-2.03-2.03,0,0-7.51-4.12-31.42-14.21-24.05-10.15-33.21-12.58-33.21-12.58-.92-.38-1.95-.38-2.87,0,0,0-8.09,3.11-16.57,6.33-6.91,2.63-14.07,5.32-17.31,6.47-4.29,1.52-30.77,13.96-30.77,13.96-.92.38-1.65,1.11-2.03,2.03,0,0-3.61,8.14-7.07,15.99-2.37,5.38-4.67,10.63-5.69,13.03-1.38,3.26-4.75,11.8-7.84,19.71-3.25,8.31-6.19,15.91-6.19,15.91-.38.92-.38,1.95,0,2.87,0,0,7.43,18.57,13.7,34.45,5.83,14.76,13.06,30.19,13.06,30.19.38.92,1.11,1.65,2.03,2.03,0,0,7.83,3.82,17.06,7.86,4.96,2.17,10.32,4.56,15.08,6.75,6.34,2.92,13.62,5.8,19.69,8.08,7.29,2.74,12.81,4.1,12.81,4.1.92.38,1.95.38,2.87,0,0,0,19.81-7.58,30.1-11.98,1.62-.69,3-1.31,4.04-1.8,10.2-4.88,30.51-12.97,30.51-12.97.92-.38,1.65-1.11,2.03-2.03,0,0,11.24-24.8,14.24-32.78,1.02-2.71,4.79-12.28,7.94-20.23,2.51-6.33,4.61-11.63,4.61-11.63.38-.92.38-1.95,0-2.87Zm-4.14-.73c-5.1-4.89-10.42-9.32-15.93-13.24,2.3-3.46,4.46-7.08,6.5-10.8,3.79,9.45,8.25,20.97,9.43,24.04Zm-26.94,66.11c-7.23-.11-13.96-.65-20.27-1.58,1.01-5.56,1.64-11.2,1.9-16.9,5.66-.44,11.34-1.26,17.01-2.44,1.25,6.96,1.75,13.97,1.35,20.92Zm-15.94-63.75c1.67-2.96,3.24-6.01,4.7-9.12,3.23,2.78,6.3,5.7,9.19,8.75-2.82,3.21-5.81,6.27-8.93,9.18-1.53-2.98-3.19-5.92-4.96-8.81Zm9.01,23.12c-3.84,1.88-7.76,3.57-11.77,5.06-.29-3.43-.7-6.86-1.25-10.3,2.66-2.07,5.26-4.25,7.78-6.54,1.95,3.86,3.7,7.8,5.23,11.78Zm-12.57-54.95c-3.8-1.42-7.64-2.65-11.52-3.69-.73-2.8-1.54-5.57-2.43-8.28,4.59-.19,9.19-.13,13.77.17.24,3.93.3,7.87.17,11.8Zm.94,3.09c4.05,1.51,8.02,3.23,11.9,5.15-1.35,3.92-2.9,7.78-4.62,11.55-2.63-2.22-5.35-4.36-8.17-6.4.42-3.4.72-6.84.89-10.3Zm-8.74,42.91c.04-.39.08-.78.11-1.17.89-2.35,1.72-4.73,2.48-7.15.31,1.23.6,2.47.87,3.71-1.12,1.56-2.27,3.09-3.46,4.61Zm3.94-2.44c.44,2.12.83,4.24,1.18,6.36-2.01,1.48-4.06,2.9-6.16,4.27.25-1.61.48-3.23.67-4.86,1.48-1.88,2.91-3.81,4.3-5.77Zm-3.24-12.8c.4,1.35.78,2.72,1.15,4.08-.42,1.33-.86,2.66-1.32,3.98.12-2.4.18-4.82.18-7.25,0-.27,0-.54,0-.81Zm2.31.23c-.77-2.54-1.61-5.07-2.53-7.59-.07-1.25-.16-2.49-.26-3.73,1.45,1.88,2.86,3.79,4.23,5.74-.44,1.87-.91,3.73-1.44,5.58Zm-3.17-15.27c-.2-1.86-.44-3.7-.71-5.53,2.49,1.58,4.93,3.22,7.31,4.93-.37,2.46-.82,4.92-1.34,7.37-1.67-2.29-3.42-4.55-5.25-6.77Zm-1.18-8.44c-.46-2.68-1.01-5.33-1.63-7.94,3.6.97,7.16,2.09,10.66,3.36-.17,3.31-.48,6.62-.91,9.92-2.63-1.86-5.33-3.64-8.12-5.34Zm-.7,9.67c-.04-.11-.09-.21-.14-.32.04.05.08.1.12.15,0,.06.01.11.02.17Zm-.51-4.07c-.87-1-1.75-1.99-2.65-2.97-.54-1.13-1.1-2.24-1.66-3.34,1.23.7,2.45,1.43,3.65,2.16.24,1.38.46,2.76.66,4.15Zm-2.84-14.18c.61,2.36,1.16,4.73,1.64,7.13-1.63-.95-3.29-1.87-4.97-2.77-1.09-1.99-2.22-3.93-3.39-5.84,2.26.43,4.5.92,6.73,1.47Zm-4.6,6.22c-.08-.08-.16-.16-.25-.24.05.03.11.06.16.09.03.05.05.1.08.15Zm-2.03-3.56c-1.18-.59-2.38-1.17-3.58-1.73-1.4-1.25-2.81-2.47-4.24-3.65,1.65.21,3.3.46,4.93.73.99,1.52,1.96,3.07,2.89,4.64Zm-2.16-7.4c-1.1-1.69-2.24-3.34-3.4-4.96,2.98-.39,5.98-.68,8.97-.86.87,2.47,1.67,4.98,2.39,7.51-2.64-.65-5.3-1.21-7.97-1.69Zm-2.9-.49c-2.35-.37-4.7-.67-7.06-.9-.9-.68-1.8-1.35-2.7-2.01,2.25-.46,4.51-.87,6.78-1.21,1.02,1.35,2.02,2.73,2.99,4.12Zm-4.85,3.39c-1.28-.52-2.56-1.03-3.84-1.51.73.06,1.45.12,2.17.19.56.43,1.11.87,1.66,1.31Zm-8.07-8.52c-1.66-1.14-3.34-2.23-5.04-3.28,2.61-1.5,5.26-2.91,7.96-4.23,1.75,1.95,3.45,3.96,5.08,6.02-2.69.41-5.36.91-8.01,1.49Zm.39,2.83c.52.36,1.04.71,1.56,1.08-1.67-.11-3.34-.19-5.01-.23,1.15-.3,2.3-.58,3.45-.84Zm-10.13-.3c-1.09-.29-2.18-.56-3.26-.82,1.9-1.29,3.83-2.53,5.8-3.72,1.46.86,2.91,1.75,4.34,2.67-2.31.56-4.6,1.18-6.87,1.87Zm2.02-7.43c-2.5-1.47-5.02-2.85-7.57-4.13,2.66-2.89,5.45-5.66,8.37-8.3,2.78,2.49,5.44,5.09,7.99,7.81-3,1.43-5.93,2.98-8.79,4.62Zm-2.23,1.32c-2.33,1.41-4.61,2.89-6.83,4.44-1.97-.41-3.94-.78-5.91-1.1,1.83-2.39,3.75-4.71,5.74-6.95,2.37,1.13,4.7,2.34,7,3.62Zm-3.54,7.3c-.09.03-.19.06-.28.09-.83.05-1.66.11-2.48.17.3-.22.61-.44.91-.66.62.13,1.23.26,1.85.4Zm-5.69-1.15c-.88.64-1.75,1.29-2.61,1.96-1.62.19-3.24.41-4.85.67.8-1.16,1.6-2.3,2.43-3.43,1.68.24,3.35.5,5.03.8Zm-6.2,4.82c-.9.74-1.78,1.5-2.66,2.26-.75.36-1.49.73-2.23,1.11.63-1.02,1.27-2.03,1.92-3.03.98-.12,1.97-.24,2.97-.34Zm-5.13-1.51c-2.45.47-4.9,1.01-7.33,1.62.66-2.3,1.38-4.57,2.16-6.82,2.78.14,5.56.38,8.33.69-1.09,1.48-2.14,2.99-3.17,4.51Zm-15.86,41.92c.33,1.06.68,2.11,1.04,3.16.03.68.06,1.36.1,2.04-.63-.87-1.24-1.75-1.85-2.64.23-.85.47-1.7.71-2.56Zm-.58-13.66c.76-.99,1.54-1.98,2.34-2.97-.13,1.2-.25,2.39-.35,3.59-.38,1.09-.75,2.19-1.1,3.29-.31-1.3-.61-2.6-.88-3.91Zm2.11,24.22c.15,1.61.33,3.22.54,4.82-1.65-1.15-3.26-2.34-4.85-3.56.33-1.87.71-3.73,1.15-5.59,1.03,1.47,2.08,2.91,3.16,4.33Zm1.1,8.61c.38,2.37.84,4.73,1.35,7.06-2.74-.84-5.45-1.75-8.13-2.73.16-2.9.46-5.77.87-8.61,1.93,1.49,3.9,2.91,5.9,4.28Zm-.26-40.48c-1.21,1.54-2.39,3.1-3.53,4.69-.42-2.29-.79-4.58-1.09-6.88,1.82-1.27,3.69-2.49,5.61-3.66-.37,1.95-.7,3.9-.99,5.85Zm-4.87-4.22c-.37-3.2-.61-6.41-.73-9.63,3-1.05,6.02-1.93,9.07-2.67-.72,2.6-1.35,5.2-1.91,7.82-2.18,1.43-4.33,2.92-6.43,4.48Zm8.26-3.06c1.06-.61,2.12-1.21,3.21-1.8-.54,1.03-1.08,2.06-1.59,3.11-.78.87-1.55,1.75-2.3,2.64.21-1.32.43-2.64.68-3.95Zm.59-2.96c.48-2.28,1.02-4.53,1.63-6.77,2.08-.46,4.18-.85,6.31-1.19-1.08,1.68-2.11,3.39-3.1,5.11-1.63.92-3.24,1.87-4.84,2.86Zm.03-8.18c-3.25.88-6.48,1.88-9.67,3.02-.09-3.44-.04-6.89.15-10.33,3.97-.23,7.95-.28,11.93-.14-.88,2.47-1.68,4.96-2.41,7.45Zm-9.21,29.12c.46,2.1.98,4.19,1.55,6.26-.4,1.46-.77,2.93-1.11,4.41-1.27-1.95-2.48-3.93-3.64-5.94,1.02-1.6,2.09-3.17,3.2-4.73Zm-4.21,2.95c-1.56-2.82-3.02-5.69-4.36-8.62,2.14-1.91,4.35-3.7,6.62-5.4.36,2.79.82,5.56,1.37,8.3-1.26,1.87-2.47,3.78-3.63,5.71Zm-5.01-10.03c-1.7-3.81-3.21-7.71-4.53-11.67,3.62-1.88,7.21-3.49,10.8-4.86.11,3.57.37,7.1.77,10.61-2.41,1.88-4.76,3.86-7.05,5.92Zm3.43,12.75c-1.51,2.66-2.92,5.39-4.24,8.17-3.03-2.87-5.92-5.89-8.65-9.05,2.63-3.12,5.33-5.98,8.12-8.62,1.47,3.25,3.06,6.42,4.77,9.51Zm-4.24,11.68c2.6,2.44,5.29,4.76,8.05,6.96-.38,3.07-.64,6.17-.8,9.27-3.95-1.49-7.81-3.13-11.54-4.88,1.25-4,2.68-7.76,4.3-11.35Zm1.14-2.45c1.25-2.59,2.6-5.09,4.05-7.52,1.4,2.44,2.89,4.82,4.44,7.15-.45,2.21-.83,4.43-1.16,6.67-2.52-2.01-4.97-4.1-7.33-6.29Zm7.42,22.82c3,1.01,6.04,1.91,9.11,2.69.72,2.89,1.55,5.75,2.47,8.57-3.76.09-7.5.04-11.17-.13-.34-3.82-.48-7.52-.41-11.13Zm9.07-9.88c-.13-1-.25-2.01-.36-3.02.73.88,1.46,1.75,2.21,2.61.37.78.76,1.55,1.15,2.33-1.01-.63-2.01-1.27-3-1.92Zm5.62,6.85c.88,1.56,1.78,3.11,2.72,4.63-2.24-.53-4.47-1.11-6.68-1.75-.42-1.98-.79-3.99-1.12-6.01,1.67,1.08,3.36,2.12,5.08,3.12Zm-3.18,6.3c2.64.62,5.3,1.15,7.99,1.6,1.26,1.92,2.58,3.8,3.95,5.66-3.23.32-6.46.54-9.68.66-.86-2.61-1.6-5.25-2.25-7.92Zm7.34-3.98c1.01.54,2.02,1.06,3.04,1.57.83.75,1.67,1.48,2.52,2.21-1.29-.23-2.57-.48-3.86-.75-.58-1-1.14-2.01-1.7-3.02Zm3.5,6.03c1.88.27,3.77.51,5.67.7,1.45,1.15,2.92,2.26,4.42,3.34-2.27.37-4.55.68-6.84.94-1.12-1.63-2.2-3.29-3.25-4.99Zm13.27,6.26c1.9,1.29,3.84,2.53,5.82,3.71-2.86,1.53-5.76,2.97-8.7,4.31-1.79-2.09-3.49-4.24-5.11-6.45,2.68-.44,5.34-.97,7.99-1.58Zm13.68-.8c-1.95,1.21-3.94,2.37-5.96,3.49-1.66-1.08-3.29-2.2-4.91-3.37,1.84-.47,3.68-.97,5.5-1.52,1.78.5,3.56.97,5.36,1.4Zm-5.33-4.13c.45,0,.9-.03,1.35-.04-.27.07-.55.14-.82.21-.18-.06-.35-.11-.53-.17Zm4.28,1.34c1.73-.59,3.45-1.21,5.16-1.87,1.14-.1,2.27-.22,3.41-.36-1.57,1.13-3.17,2.23-4.8,3.29-1.25-.33-2.51-.69-3.77-1.07Zm-12.64.83c-1.03-.79-2.05-1.6-3.07-2.43.86.06,1.72.11,2.58.14,1.44.52,2.89,1.02,4.35,1.5-1.28.28-2.56.54-3.85.79Zm9.2,8.45c2.5,1.4,5.05,2.72,7.65,3.96-2.99,3.16-6.08,6.16-9.22,8.99-2.86-2.5-5.52-5.11-8.02-7.82,3.27-1.57,6.47-3.28,9.59-5.13Zm1.68-1.02c2.35-1.45,4.66-2.97,6.91-4.57,2.14.43,4.3.81,6.46,1.14-2.06,2.51-4.19,4.95-6.38,7.31-2.38-1.21-4.71-2.51-7-3.89Zm9.25-6.26c2.11-1.57,4.18-3.21,6.19-4.92,1.47-.23,2.93-.48,4.4-.76-1.63,2.32-3.33,4.6-5.1,6.83-1.83-.34-3.66-.73-5.49-1.15Zm2.64-5.9c.59-.25,1.17-.52,1.75-.78-.3.23-.61.46-.92.69-.28.03-.55.06-.83.09Zm5.54-.73c1.52-1.34,3.01-2.71,4.47-4.12.68-.37,1.36-.73,2.04-1.11-.97,1.56-1.97,3.11-3.02,4.64-1.16.21-2.32.41-3.49.59Zm6.17.19c1.65-.36,3.3-.74,4.94-1.17-.85,3.46-1.82,6.87-2.92,10.23-2.49-.21-4.96-.51-7.43-.89,1.9-2.65,3.71-5.38,5.41-8.17Zm.88-1.48c1.21-2.06,2.37-4.15,3.47-6.27.78-.47,1.56-.95,2.33-1.44-.42,2.25-.89,4.49-1.42,6.71-1.45.36-2.92.69-4.38,1Zm4.65-8.61c.65-1.31,1.28-2.63,1.88-3.97.04-.04.08-.09.11-.13-.16,1.07-.34,2.13-.52,3.2-.49.3-.98.61-1.47.91Zm.14-4.85c-1.76,1.99-3.58,3.94-5.48,5.83-1.57,1.57-3.21,3.09-4.91,4.58-2.39,1.16-4.82,2.27-7.29,3.29-2.05.85-4.15,1.63-6.29,2.35-2.65.16-5.32.25-7.99.25-1.76,0-3.53-.06-5.31-.16-2.4-.88-4.81-1.82-7.25-2.83-2.69-1.12-5.33-2.32-7.93-3.6-1.39-1.31-2.78-2.66-4.16-4.04-2.06-2.06-4.04-4.19-5.95-6.36-.78-1.75-1.55-3.52-2.3-5.33-1.12-2.69-2.13-5.41-3.06-8.15-.06-1.91-.09-3.84-.09-5.8,0-2.25.06-4.5.17-6.73.9-2.42,1.87-4.88,2.91-7.39,1.06-2.56,2.2-5.07,3.41-7.53,1.35-1.43,2.75-2.86,4.19-4.3,1.96-1.96,3.97-3.84,6.03-5.66,1.8-.8,3.63-1.59,5.52-2.37,2.56-1.06,5.14-2.03,7.74-2.92,1.97-.05,3.97-.08,6.01-.08,1.33,0,2.65.03,3.97.07,3.59,1.14,7.14,2.42,10.66,3.88,1.95.85,3.88,1.74,5.79,2.67,1.85,1.65,3.66,3.35,5.43,5.12,1.47,1.53,2.92,3.09,4.33,4.68,1.08,2.23,2.1,4.5,3.06,6.81.78,1.98,1.51,3.97,2.21,5.99.14,2.48.22,4.96.22,7.46-.09,4.75-.4,9.52-.92,14.27-.84,2.02-1.75,4.02-2.74,6.01Zm3.56,4.1c2.25-1.49,4.47-3.05,6.65-4.68.49,3.17.86,6.35,1.13,9.53-3.06,1.08-6.17,2.04-9.31,2.88.58-2.55,1.09-5.12,1.53-7.73Zm6.5-17c-.43-1.77-.89-3.54-1.39-5.31.62-2.22,1.19-4.47,1.7-6.73,1.29,1.89,2.54,3.81,3.74,5.75-1.29,2.13-2.64,4.23-4.06,6.3Zm.95-15.02c.54-2.65,1.01-5.32,1.39-8.01,2.59,1.9,5.1,3.88,7.54,5.94-1.4,2.93-2.92,5.8-4.54,8.62-1.39-2.21-2.85-4.39-4.38-6.55Zm10.88-3.3c1.73-3.85,3.3-7.81,4.71-11.87,4.96,2.51,9.76,5.35,14.39,8.5-2.9,4.39-6.05,8.59-9.45,12.57-3.04-3.21-6.26-6.28-9.65-9.2Zm4.39-14.65c-4.12-2.1-8.31-3.97-12.56-5.59.12-4.01.07-8.06-.16-12.12,5.58.42,11.15,1.21,16.67,2.35-1.01,5.21-2.33,10.34-3.96,15.36Zm-12.86-20.07c-.38-5.32-1.08-10.66-2.08-16.02,6.95-1.25,14.05-1.94,21.25-2.06-.11,7.01-.77,13.93-1.97,20.71-5.76-1.27-11.5-2.14-17.2-2.63Zm-1.08-.09c-4.87-.38-9.7-.49-14.49-.34-1.33-3.77-2.83-7.44-4.47-11.02,5.46-1.82,11.04-3.27,16.73-4.35,1.07,5.2,1.81,10.45,2.22,15.71Zm-17.02-.23c-3.32.18-6.62.48-9.89.91-1.75-2.31-3.55-4.55-5.42-6.72,3.57-1.65,7.21-3.15,10.91-4.47,1.61,3.36,3.08,6.79,4.39,10.28Zm-17.08-7.82c-2.67-2.97-5.46-5.79-8.35-8.47,3.89-3.37,7.98-6.51,12.27-9.41,2.84,4.28,5.42,8.71,7.71,13.27-3.98,1.36-7.87,2.9-11.64,4.61Zm-10.09-10.06c-4.11-3.67-8.42-7.03-12.9-10.1,3.81-5.45,8.05-10.65,12.73-15.54,4.79,5.05,9.13,10.42,13,16.05-4.52,2.98-8.8,6.18-12.82,9.58Zm-2,1.73c-3.16,2.78-6.16,5.69-8.99,8.71-3.73-1.78-7.51-3.37-11.33-4.77,2.33-4.62,4.95-9.11,7.84-13.45,4.36,2.92,8.53,6.1,12.49,9.5Zm-10.71,10.58c-2.23,2.47-4.34,5.02-6.35,7.63-3.03-.42-6.05-.74-9.05-.96,1.38-3.73,2.92-7.39,4.64-10.97,3.65,1.27,7.24,2.7,10.76,4.29Zm-17.27,6.57c-4.24-.24-8.46-.26-12.64-.09.39-5.16,1.08-10.31,2.09-15.42,5.24,1.05,10.39,2.41,15.43,4.09-1.81,3.76-3.44,7.57-4.89,11.42Zm-14.99.03c-5.36.32-10.66.98-15.86,1.96-1.16-6.55-1.84-13.22-1.99-19.99,6.85.18,13.6.89,20.22,2.1-1.12,5.33-1.91,10.65-2.37,15.93Zm-.21,2.64c-.25,3.72-.33,7.42-.27,11.1-3.81,1.44-7.57,3.07-11.27,4.87-1.45-4.55-2.66-9.19-3.6-13.9,5.02-.99,10.07-1.68,15.14-2.07Zm-8.48,31.01c-2.97,2.79-5.82,5.73-8.55,8.82-3.41-4.04-6.58-8.3-9.5-12.76,4.58-3.25,9.01-6.04,13.38-8.43,1.36,4.24,2.91,8.36,4.66,12.37Zm-10.1,10.6c-3.7,4.35-7.15,8.97-10.33,13.85-6.51-4.2-12.15-8.65-16.52-13.1,6.03-5.41,11.72-10.07,17.19-14.06,2.99,4.69,6.22,9.13,9.66,13.31Zm1.09,1.29c2.87,3.4,5.89,6.61,9.04,9.64-1.72,3.82-3.27,7.74-4.63,11.74-4.97-2.39-9.68-4.98-14.03-7.69,3.14-5.07,6.33-9.61,9.63-13.7Zm4.86,25.46c4.04,1.94,8.19,3.65,12.42,5.13-.09,3.84,0,7.69.25,11.56-5.5-.31-10.85-.9-15.91-1.74.87-5.35,1.95-10.31,3.25-14.95Zm12.93,20.17c.47,5.21,1.26,10.42,2.36,15.63-7.57,1.64-14.71,2.47-20.94,2.42.4-7.4,1.05-14.15,1.96-20.37,5.51,1.17,11.06,1.93,16.63,2.32Zm1.71.11c4,.22,8,.24,11.99.07,1.35,3.75,2.89,7.43,4.6,11.02-4.7,1.59-9.35,2.92-13.87,3.97-1.24-5.28-2.14-10.28-2.72-15.06Zm14.18-.06c3.59-.22,7.17-.59,10.74-1.12,1.81,2.31,3.71,4.57,5.69,6.77-3.97,1.77-7.97,3.37-11.96,4.78-1.7-3.45-3.18-6.92-4.46-10.43Zm19,8.43c2.66,2.79,5.46,5.47,8.38,8.04-4.29,3.8-8.67,7.26-13.02,10.31-3.16-4.39-5.9-8.79-8.27-13.21,4.41-1.48,8.72-3.19,12.91-5.15Zm11.02,10.3c3.95,3.3,8.12,6.39,12.51,9.26-4.04,5.81-8.64,11.11-13.84,15.75-4.77-4.92-8.96-9.79-12.62-14.65,4.92-3.12,9.57-6.59,13.95-10.36Zm.96-.83c3.47-3.06,6.76-6.3,9.86-9.73,3.47,1.54,7.03,2.94,10.66,4.18-2.37,5.05-5.08,9.87-8.12,14.4-4.49-2.79-8.6-5.74-12.39-8.85Zm10.81-10.79c2.38-2.69,4.65-5.49,6.8-8.38,2.69.33,5.39.57,8.11.73-1.37,4.03-2.93,7.96-4.67,11.77-3.54-1.21-6.94-2.59-10.24-4.12Zm17.18-7.54c4.48.18,8.99.13,13.52-.15-.26,5.57-.91,11.06-2,16.41-5.81-.96-11.26-2.28-16.43-3.93,1.83-4,3.47-8.11,4.91-12.32Zm.46-1.4c1.19-3.61,2.23-7.3,3.13-11.05,3.25-.9,6.48-1.92,9.69-3.06.36,4.73.46,9.44.29,14.1-4.45.28-8.8.27-13.11,0Zm11.95-34.95c1.53-2.28,3-4.62,4.41-7,1.61,2.67,3.13,5.38,4.55,8.13-2.42,2.17-4.92,4.24-7.5,6.23-.42-2.45-.91-4.9-1.46-7.35Zm3.3,34.78c.18-4.88.08-9.79-.29-14.73,4.07-1.52,8.09-3.25,12.06-5.17,2.12,5.67,3.77,11.44,4.91,17.24-5.73,1.33-11.27,2.2-16.68,2.65Zm7.84-34.22c3.17-2.96,6.23-6.1,9.16-9.39,3.9,4.19,7.45,8.62,10.59,13.25-4.59,3.15-9.36,5.99-14.28,8.51-1.6-4.19-3.43-8.31-5.48-12.37Zm10.58-11c3.44-3.99,6.69-8.21,9.74-12.65,5.8,4.03,11.31,8.56,16.48,13.57-4.78,4.63-9.86,8.86-15.19,12.65-3.34-4.74-7.03-9.28-11.02-13.57Zm13.55-34.57c.34.79.71,1.67,1.11,2.63.6,1.45,1.27,3.07,1.96,4.79-2.06,4.14-4.3,8.16-6.76,12.02-4.8-3.35-9.74-6.33-14.78-8.96,1.66-5.07,3.05-10.29,4.16-15.64,4.62,1.01,9.2,2.3,13.73,3.82.23.54.43,1,.58,1.34Zm-1.63-3.77c-4.09-1.34-8.19-2.51-12.27-3.45,1.21-6.25,2.01-12.67,2.42-19.24,1.75,4.03,6.99,16.07,9.86,22.69Zm-13.18-26.34c-6.87.17-13.57.79-20.06,1.89-.77-3.84-1.73-7.68-2.83-11.51,9.38,3.9,19.97,8.39,22.89,9.62Zm-29.75-12.46c1.55.63,3.22,1.32,4.95,2.04,1.36,4.14,2.54,8.31,3.47,12.52-5.95,1.06-11.72,2.5-17.3,4.28-2.35-4.86-4.98-9.53-7.87-13.99,3.84-2.48,7.84-4.74,11.96-6.82,2.26.93,3.99,1.64,4.79,1.97Zm-7.22-2.96c-3.69,1.89-7.27,3.9-10.69,6.06-3.71-5.51-7.84-10.67-12.32-15.5,2.1.86,6.59,2.7,11.5,4.72,3.89,1.6,8.05,3.3,11.5,4.72Zm-27.4-9.82c-4.74,5.09-9,10.42-12.82,15.94-3.69-2.45-7.51-4.68-11.41-6.72,3.05-1.15,6.5-2.45,9.82-3.72,6.68-2.54,12.87-4.92,14.4-5.51Zm-32.13,12.14c1.04-.37,2.5-.9,4.23-1.54,4.68,2.31,9.18,4.88,13.5,7.69-2.97,4.49-5.65,9.09-8.03,13.79-5.28-1.85-10.63-3.34-16.02-4.47,1.08-4.9,2.45-9.77,4.11-14.57.97-.41,1.73-.72,2.21-.89Zm-4.62,1.94c-1.47,4.37-2.73,8.74-3.74,13.11-6.62-1.28-13.29-2-19.97-2.21,2.16-1.01,6.97-3.26,12.06-5.6,4.12-1.9,8.43-3.87,11.65-5.29Zm-27,13.74c.16,0,.32,0,.48,0,.14,7,.78,13.81,1.88,20.41-4.04.83-8.02,1.87-11.93,3.08,1.02-2.48,2.26-5.52,3.51-8.58,2.69-6.61,5.43-13.36,6.06-14.92Zm-11.38,27.85c.1-.24.22-.52.35-.82,4.58-1.53,9.22-2.8,13.89-3.81.93,4.97,2.12,9.81,3.56,14.52-4.79,2.45-9.47,5.21-14.01,8.27-2.36-3.75-4.53-7.65-6.52-11.66,1.18-2.8,2.16-5.13,2.74-6.49Zm-3.74,8.88c1.82,3.61,3.75,7.11,5.82,10.46-5.37,3.74-10.53,7.94-15.46,12.55,1.01-2.41,2.85-6.81,4.87-11.63,1.58-3.78,3.28-7.82,4.77-11.38Zm-9.63,29.67c4.52,4.47,9.32,8.53,14.39,12.15-1.93,3.1-3.74,6.31-5.44,9.61-1.34-3.32-2.71-6.67-3.98-9.76-2.11-5.15-3.96-9.58-4.97-12Zm12.54,30.79c-.78-2-1.62-4.12-2.49-6.28,2.04-3.95,4.08-7.64,6.13-11.09,4.64,3.19,9.48,6.02,14.48,8.5-1.55,4.99-2.83,10.11-3.8,15.34-4.63-.84-9-1.9-13-3.14-.44-1.11-.89-2.23-1.32-3.33Zm2.39,6c3.78,1.28,7.59,2.38,11.43,3.27-1.04,6.31-1.64,12.78-1.8,19.36-.82-1.84-3.25-7.34-6.12-14.14-1.13-2.68-2.32-5.55-3.51-8.49Zm13.76,26.04c6.59-.04,13.07-.59,19.39-1.63.89,3.84,1.98,7.68,3.23,11.49-3.91-1.75-7.91-3.51-11.51-5.08-4.77-2.08-8.85-3.83-11.11-4.79Zm28.95,12.74c-1.16-.54-2.37-1.08-3.59-1.64-1.48-4.57-2.76-8.93-3.81-13.09,5.02-.92,9.94-2.15,14.74-3.66,2.47,4.82,5.27,9.46,8.4,13.89-3.76,2.54-7.48,4.74-11.06,6.57-1.59-.68-3.16-1.38-4.68-2.07Zm7.28,3.17c3.46-1.66,6.84-3.47,10.09-5.44,3.66,4.93,7.75,9.57,12.23,13.88-2.14-.74-6.26-2.19-11.16-4.04-3.47-1.31-7.33-2.81-11.16-4.41Zm29.22,8.01c4.12-4.58,7.92-9.45,11.33-14.61,3.38,2.13,6.89,4.11,10.49,5.97-2.16.89-4.49,1.83-6.83,2.76-5.86,2.34-11.75,4.62-15,5.88Zm30.2-12.25c-1.44.69-3.61,1.63-6.14,2.69-4.22-2.03-8.16-4.14-11.86-6.36,3.06-4.75,5.8-9.72,8.22-14.89,5.4,1.76,10.96,3.18,16.65,4.26-.96,4.4-2.21,8.7-3.77,12.86-1.1.5-2.15.99-3.1,1.44Zm6.48-2.95c1.04-3.6,1.93-7.25,2.64-10.94,6.18,1.06,12.52,1.7,18.97,1.92-2.32.93-7.78,3.14-13.64,5.6-2.66,1.12-5.41,2.29-7.98,3.42Zm26.35-15.34c-.36-5.69-1.12-11.36-2.26-16.96,3.44-.78,6.88-1.7,10.31-2.76-2.69,6.7-6.08,14.96-8.05,19.72Zm11.33-28.08c-.57,1.51-1.41,3.67-2.41,6.16-3.93,1.34-7.76,2.49-11.51,3.43-1.29-5.97-3.03-11.86-5.19-17.65,4.97-2.5,9.85-5.32,14.61-8.46,2.45,3.72,4.63,7.58,6.51,11.55-.94,2.24-1.67,4.03-2.02,4.97Zm3.38-8.2c-1.85-3.28-3.85-6.49-5.99-9.6,5.26-3.59,10.35-7.58,15.25-11.97-.52,1.2-2.59,5.97-4.92,11.4-1.45,3.37-3,6.99-4.34,10.16Z"/>
</svg>