<?xml version="1.0" encoding="UTF-8"?><svg id="Logo" xmlns="http://www.w3.org/2000/svg" viewBox="0 0 1094 578"><defs><style>.cls-1{fill:#7f2141;}.cls-2{fill:#e585a1;}.cls-3{fill:#ff7e2a;}.cls-4{fill:#d4b88c;}.cls-5{fill:#ef4136;}</style></defs><path d="M700.78,471.73v-77.53c0-25.06,12.29-43.26,40.66-43.26s40.89,18.2,40.89,43.26v77.53c0,24.82-12.29,43.26-40.89,43.26s-40.66-18.44-40.66-43.26ZM755.38,475.99v-86.04c0-9.69-4.26-16.54-13.95-16.54s-13.71,6.85-13.71,16.54v86.04c0,9.69,4.26,16.55,13.71,16.55s13.95-6.85,13.95-16.55Z"/><path d="M785.27,511.3l29.68-157.22c.14-.72.76-1.24,1.49-1.24h28.21c.73,0,1.36.52,1.49,1.24l29.91,157.22c.18.94-.54,1.8-1.49,1.8h-24.54c-.74,0-1.37-.53-1.5-1.27l-4.54-26.78c-.12-.73-.76-1.27-1.5-1.27h-26.02c-.75,0-1.38.54-1.5,1.28l-4.31,26.76c-.12.74-.75,1.28-1.5,1.28h-22.4c-.95,0-1.67-.87-1.49-1.8ZM820.52,462.28h17.93c.94,0,1.65-.84,1.5-1.77l-10.34-62.53h-.24l-10.34,62.53c-.15.93.56,1.77,1.5,1.77Z"/><path d="M885.48,352.84h23.91c.84,0,1.52.68,1.52,1.52v135.24c0,.84.68,1.52,1.52,1.52h29.11c.84,0,1.52.68,1.52,1.52v18.94c0,.84-.68,1.52-1.52,1.52h-56.05c-.84,0-1.52-.68-1.52-1.52v-157.22c0-.84.68-1.52,1.52-1.52Z"/><path d="M944.94,478.59v-19.99c0-.84.68-1.52,1.52-1.52h22.02c.84,0,1.52.68,1.52,1.52v20.46c0,8.77,3.83,13.93,12.58,14.17,7.15.2,12.94-5.8,12.94-12.95v-7.37c0-9.22-3.78-14.89-12.06-22.69l-15.84-15.84c-15.36-15.13-22.46-24.35-22.46-42.78v-5.44c0-19.85,11.58-35.22,37.82-35.22s37.58,13.24,37.58,36.4v11.48c0,.84-.68,1.52-1.52,1.52h-21.55c-.84,0-1.52-.68-1.52-1.52v-12.43c0-9.22-4.25-13.71-12.76-13.71-7.56,0-12.76,4.25-12.76,13.24v3.31c0,8.98,4.96,14.18,12.76,21.75l17.25,17.02c14.66,14.89,21.75,23.87,21.75,41.6v7.8c0,21.98-11.82,37.58-39.24,37.58s-38.06-15.37-38.06-36.4Z"/><path d="M646.76,514.95c1.18.07,2.39.12,3.64.12,7.75,0,13.64-1.56,18.76-3.63,14.57-5.9,19.8-19.08,19.8-36.59v-16.45s0-29.35,0-29.35c0-.84-.68-1.52-1.52-1.52h-34.21c-.84,0-1.52.68-1.52,1.52v18.25c0,.84.68,1.52,1.52,1.52h9.74c.84,0,1.52.68,1.52,1.52v26.87c0,10.26-4.81,15.23-13.32,15.37-7.35,0-10.91-3.58-13.04-8.41-.82-2.35-1.21-5.11-1.21-8.13v-88.5c0-7.72,6.18-14.16,13.9-14.18,9.74-.02,13.54,5.66,13.54,15.61v14.81c0,.84.68,1.52,1.52,1.52h21.57c.84,0,1.52-.68,1.52-1.52v-12.68c0-23.66-8.75-40.22-38.56-40.22s-40.46,18.22-40.46,43.3v59.51h0v18.09c0,.93.02,1.86.06,2.77.83,22.56,11.99,38.96,36.76,40.41"/><path d="M648.61,281.78v33.96c0,11.25-4.65,19.69-17.85,19.69h-18.35c-.38,0-.68-.31-.68-.68v-71.97c0-.38.31-.68.68-.68h18.35c13.2,0,17.85,8.33,17.85,19.69ZM629.25,325.37c5.08,0,7.03-3.03,7.03-7.46v-38.4c0-4.33-1.95-7.36-7.03-7.36h-4.51c-.38,0-.68.31-.68.68v51.85c0,.38.31.68.68.68h4.51Z"/><path d="M654.7,262.09h28.05c.38,0,.68.31.68.68v8.69c0,.38-.31.68-.68.68h-15.72c-.38,0-.68.31-.68.68v19.62c0,.38.31.68.68.68h10.86c.38,0,.68.31.68.68v8.59c0,.38-.31.68-.68.68h-10.86c-.38,0-.68.31-.68.68v20.92c0,.38.31.68.68.68h15.72c.38,0,.68.31.68.68v8.69c0,.38-.31.68-.68.68h-28.05c-.38,0-.68-.31-.68-.68v-71.97c0-.38.31-.68.68-.68Z"/><path d="M725.58,262.9l-13.69,71.97c-.06.32-.34.56-.67.56h-12.28c-.33,0-.61-.23-.67-.56l-13.69-71.97c-.08-.42.24-.81.67-.81h11.14c.33,0,.62.24.67.57l8.34,50.59h.11l8.56-50.59c.06-.33.34-.57.67-.57h10.17c.43,0,.75.39.67.81Z"/><path d="M728.58,262.09h28.05c.38,0,.68.31.68.68v8.69c0,.38-.31.68-.68.68h-15.72c-.38,0-.68.31-.68.68v19.62c0,.38.31.68.68.68h10.86c.38,0,.68.31.68.68v8.59c0,.38-.31.68-.68.68h-10.86c-.38,0-.68.31-.68.68v20.92c0,.38.31.68.68.68h15.72c.38,0,.68.31.68.68v8.69c0,.38-.31.68-.68.68h-28.05c-.38,0-.68-.31-.68-.68v-71.97c0-.38.31-.68.68-.68Z"/><path d="M762.98,262.09h10.96c.38,0,.68.31.68.68v61.91c0,.38.31.68.68.68h13.34c.38,0,.68.31.68.68v8.69c0,.38-.31.68-.68.68h-25.67c-.38,0-.68-.31-.68-.68v-71.97c0-.38.31-.68.68-.68Z"/><path d="M790.2,316.5v-35.48c0-11.47,5.62-19.79,18.6-19.79s18.71,8.33,18.71,19.79v35.48c0,11.36-5.63,19.79-18.71,19.79s-18.6-8.44-18.6-19.79ZM815.18,318.44v-39.37c0-4.43-1.95-7.57-6.38-7.57s-6.27,3.14-6.27,7.57v39.37c0,4.43,1.95,7.57,6.27,7.57s6.38-3.14,6.38-7.57Z"/><path d="M832.92,262.77c0-.38.31-.68.68-.68h17.6c12.44,0,16.98,6.17,16.98,16.44v15.47c0,10.27-4.54,16.55-16.98,16.55h-5.27c-.38,0-.68.31-.68.68v23.51c0,.38-.31.68-.68.68h-10.96c-.38,0-.68-.31-.68-.68v-71.97ZM845.25,272.83v27.51c0,.38.31.68.68.68h3.86c4.22,0,6.06-2.06,6.06-6.06v-16.87c0-4-1.84-5.95-6.06-5.95h-3.86c-.38,0-.68.31-.68.68Z"/><path d="M905.93,287.83h-.32l-8.23,47.03c-.06.33-.34.57-.67.57h-4.6c-.33,0-.61-.23-.67-.55l-9.09-47.04h-.22v46.91c0,.38-.31.68-.68.68h-8.8c-.38,0-.68-.31-.68-.68v-71.97c0-.38.31-.68.68-.68h13.14c.33,0,.61.23.67.55l7.9,40.77h.11l7.04-40.75c.06-.33.34-.57.67-.57h14.32c.38,0,.68.31.68.68v71.97c0,.38-.31.68-.68.68h-9.88c-.38,0-.68-.31-.68-.68v-46.91Z"/><path d="M923.27,262.09h28.05c.38,0,.68.31.68.68v8.69c0,.38-.31.68-.68.68h-15.72c-.38,0-.68.31-.68.68v19.62c0,.38.31.68.68.68h10.86c.38,0,.68.31.68.68v8.59c0,.38-.31.68-.68.68h-10.86c-.38,0-.68.31-.68.68v20.92c0,.38.31.68.68.68h15.72c.38,0,.68.31.68.68v8.69c0,.38-.31.68-.68.68h-28.05c-.38,0-.68-.31-.68-.68v-71.97c0-.38.31-.68.68-.68Z"/><path d="M967.37,289.35v45.39c0,.38-.31.68-.68.68h-9.02c-.38,0-.68-.31-.68-.68v-71.97c0-.38.31-.68.68-.68h10.93c.3,0,.56.19.65.48l13.15,41.6v-41.39c0-.38.31-.68.68-.68h8.91c.38,0,.68.31.68.68v71.97c0,.38-.31.68-.68.68h-9.63c-.3,0-.56-.19-.65-.48l-14.34-45.6Z"/><path d="M996.28,262.09h31.41c.38,0,.68.31.68.68v8.69c0,.38-.31.68-.68.68h-8.8c-.38,0-.68.31-.68.68v61.91c0,.38-.31.68-.68.68h-11.07c-.38,0-.68-.31-.68-.68v-61.91c0-.38-.31-.68-.68-.68h-8.8c-.38,0-.68-.31-.68-.68v-8.69c0-.38.31-.68.68-.68Z"/><path d="M613.25,63.9h26.9c.93,0,1.68.75,1.68,1.68v176.59c0,.93-.75,1.68-1.68,1.68h-26.9c-.93,0-1.68-.75-1.68-1.68V65.58c0-.93.75-1.68,1.68-1.68Z"/><path d="M680.84,130.79v111.39c0,.93-.75,1.68-1.68,1.68h-22.13c-.93,0-1.68-.75-1.68-1.68V65.58c0-.93.75-1.68,1.68-1.68h26.82c.73,0,1.38.47,1.6,1.17l32.27,102.07v-101.57c0-.93.75-1.68,1.68-1.68h21.86c.93,0,1.68.75,1.68,1.68v176.59c0,.93-.75,1.68-1.68,1.68h-23.63c-.73,0-1.38-.47-1.6-1.17l-35.2-111.89Z"/><path d="M781.69,130.79v111.39c0,.93-.75,1.68-1.68,1.68h-22.13c-.93,0-1.68-.75-1.68-1.68V65.58c0-.93.75-1.68,1.68-1.68h26.82c.73,0,1.38.47,1.6,1.17l32.27,102.07v-101.57c0-.93.75-1.68,1.68-1.68h21.86c.93,0,1.68.75,1.68,1.68v176.59c0,.93-.75,1.68-1.68,1.68h-23.63c-.73,0-1.38-.47-1.6-1.17l-35.2-111.89Z"/><path d="M858.73,63.9h68.84c.93,0,1.68.75,1.68,1.68v21.33c0,.93-.75,1.68-1.68,1.68h-38.58c-.93,0-1.68.75-1.68,1.68v48.14c0,.93.75,1.68,1.68,1.68h26.64c.93,0,1.68.75,1.68,1.68v21.07c0,.93-.75,1.68-1.68,1.68h-26.64c-.93,0-1.68.75-1.68,1.68v51.32c0,.93.75,1.68,1.68,1.68h38.58c.93,0,1.68.75,1.68,1.68v21.33c0,.93-.75,1.68-1.68,1.68h-68.84c-.93,0-1.68-.75-1.68-1.68V65.58c0-.93.75-1.68,1.68-1.68Z"/><path d="M967.75,161.31v80.86c0,.93-.75,1.68-1.68,1.68h-26.9c-.93,0-1.68-.75-1.68-1.68V65.58c0-.93.75-1.68,1.68-1.68h42.38c30.52,0,41.67,15.13,41.67,40.34v23.09c0,19.38-6.9,30.79-24.15,34.77l28.14,79.51c.39,1.09-.42,2.23-1.58,2.23h-28.28c-.72,0-1.35-.45-1.58-1.13l-28.01-81.41ZM967.75,90.26v52.65c0,.93.75,1.68,1.68,1.68h8.41c10.35,0,14.86-5.31,14.86-14.86v-26.54c0-9.82-4.51-14.6-14.86-14.6h-8.41c-.93,0-1.68.75-1.68,1.68Z"/><path class="cls-5" d="M311.26,129.78c-87.71,0-160.13,71.83-160.13,160.13s71.83,160.13,160.13,160.13c94.1,0,163.16-73.88,160.13-160.13-3.1-88.24-71.83-160.13-160.13-160.13ZM311.26,429.33c-85.34-5.41-139.4-62.54-139.4-139.4s62.54-139.4,139.4-139.4c81.35,4.41,139.4,62.54,139.4,139.4s-62.69,144.27-139.4,139.4Z"/><path class="cls-3" d="M311.1,83.38c-113.88,0-206.53,105.93-206.53,206.53,0,113.88,92.65,206.53,206.53,206.53,103.5,0,197.48-78.51,206.53-206.53,8.03-113.6-103.91-206.53-206.53-206.53ZM311.1,471.77c-114.85,3.43-181.86-81.58-181.86-181.86s93.63-181.86,181.86-181.86c100.28,0,181.86,81.58,181.86,181.86s-81.63,178.86-181.86,181.86Z"/><path class="cls-4" d="M311.23,211.43c-43.27,0-78.48,40.26-78.48,78.48,0,43.27,35.21,78.48,78.48,78.48,39.33,0,75.04-29.83,78.48-78.48,3.05-43.17-39.48-78.48-78.48-78.48ZM311.23,348.49c-36.99,1.1-58.58-26.28-58.58-58.57s30.16-58.58,58.58-58.57c32.3,0,58.58,26.28,58.58,58.57s-26.29,57.61-58.58,58.57Z"/><path class="cls-2" d="M311.34,171.76c-68.57,0-118.14,52.89-118.14,118.14-2.19,61.76,49.58,115.59,118.14,118.14,70.94,0,118.14-52.89,118.14-118.14,0-68.57-52.89-118.14-118.14-118.14ZM380.89,359.46c-18.58,18.58-43.28,28.81-69.56,28.81s-50.98-10.23-69.56-28.81c-18.58-18.58-29.63-50.46-28.81-69.56-.04-31.8,10.23-50.98,28.81-69.56,18.58-18.58,43.28-28.81,69.56-28.81,34.99,1.66,50.98,10.23,69.56,28.81,18.58,18.58,28.81,43.28,28.81,69.56-.5,26.54-9.73,53.78-28.81,69.56Z"/><path class="cls-1" d="M309.71,45.06c-134.63-6.82-244.07,116.19-244.07,244.07,0,134.49,109.28,244.07,244.07,244.07,157.49,0,244.07-117.19,244.07-244.07,0-134.8-92.16-236.38-244.07-244.07ZM309.69,513.37c-123.85,0-215.92-100.68-224.25-224.25-7.07-104.92,100.56-230.51,224.25-224.25,139.58,7.07,224.25,100.4,224.25,224.25,0,114.97-82.86,224.25-224.25,224.25Z"/></svg>