<svg xmlns="http://www.w3.org/2000/svg" fill="black" stroke="black" viewBox="0 0 1245.2 663.6"><path d="M553.4 135.8C447.2 15.9 258.1 5.2 138 109.9c-2 1.7-3.8 3.3-5.5 4.9l11.9 13.1c-27.4 24.7-50 54.8-65.9 88.2C46.2 283.3 42 363.3 67.2 433.7c68.5 193.4 313.4 253.8 465.4 116.5 119.9-106.2 129-296.5 20.8-414.5Zm45.3 268.9-91.5-26.1c3.9-18.6 4.5-37.8 2.2-56.6l96-8.9c2.9 30.5.7 61.5-6.7 91.5Zm-168.5 86.1 48.8 78.8c-27 17-56.5 28.7-87 35.2l-16.9-90.5c19.5-4.7 38.2-12.6 55.2-23.5Zm-206.1-27.4c-85-79.1-63.2-220.5 42.7-268.7 57.4-26.8 129.7-15.2 175.4 28.6l.8.8 9.8-10.8c16.2 15.3 29.4 33.7 38.6 53.9 18.8 40.9 20.5 89.1 4.6 131.1-41.7 111.8-184.5 146.8-272 65.2Zm75.5 52.8-16.5 90.3c-31.3-5.6-61.6-16.6-89.5-32.7l48.9-79c18.1 10.7 37.4 17.7 57.1 21.4Zm-113-72.7-75.4 56.9c-19.8-26.2-34.2-55.2-43.4-85.7l92.3-26.3c5.5 19.3 14.2 38 26.4 55.1Zm154.6-288.7V69c30.2.3 60.4 5.7 88.9 16.1l-31 80c-18.6-6.4-38.2-9.8-57.9-10.3Zm149.5 107.3 87.8-43.7c13.5 27.5 22.2 57.2 25.9 87.4l-96.3 8.9c-3.1-18.3-8.9-36.1-17.5-52.6Zm10.4 138.1c1.7-4.7 3.1-9.5 4.3-14.3l91.3 26c-8.1 29.3-21.2 57.6-39.7 83.6L482.2 439c7.6-11.8 14-24.7 18.9-38.8Zm74.1-188.4-88.1 43.8c-9-15.8-20.6-30.2-34.4-42.3l67.1-73.6c22.9 21 41.4 45.5 55.3 72.1Zm-60.8-77-57.3 62.9c-15.2-12.8-32.6-22.9-51-30l31-79.9c3.9 1.6 7.8 3.2 11.6 5 24.7 11.2 46.7 25.5 65.8 42.1ZM333.8 69.1v85.8c-19.7.3-39.3 3.7-57.8 10.3l-30.8-79.4c28.3-10.7 58.4-16.2 88.6-16.7Zm-95.5 19.4 30.7 79.3c-4.2 1.7-8.3 3.6-12.4 5.6-14.1 6.9-26.9 15.2-38.2 24.7L161.8 136c22.5-20 48.5-36.2 76.5-47.6ZM144.4 128l68.4 75c-15 13.7-27.3 29.6-36.7 46.8L86.2 205c14.4-28.4 33.8-54.6 58.2-77.1ZM83 211.7l89.7 44.7c-9 18.1-14.9 37.5-17.6 57.3l-97.8-9.1c3.2-32 11.8-63.5 25.7-92.9ZM56.7 312l97.5 9c-2 20.1-.6 40.6 4.1 60.4l-92.5 26.3c-8.5-31.2-11.5-63.7-9.1-95.8Zm74.2 211.8c-5.3-5.6-10.4-11.4-15.1-17.3l75.3-56.8c6.8 8.7 14.5 17 23.2 24.7 7 6.2 14.3 11.8 21.9 16.7l-49 79.1c-20.4-12.6-39.4-28-56.3-46.4Zm159.5 84.1 16.5-90.3c20.4 2.9 41 2.3 60.9-1.6l16.9 90.4c-31.1 5.8-63 6.3-94.2 1.5Zm230.3-70.6c-11.1 10.6-23 20.1-35.5 28.4l-48.8-78.9c15.9-11.2 30.2-25.1 41.9-41.6l74.6 56.4c-9.4 12.6-20.1 24.6-32.1 35.8ZM681.9 53.6h37.4v222.6h-37.4V53.6Zm85.6 82.8v139.8H736V53.6h36.8l40.4 127.7V53.6h31.2v222.6h-32.8l-44-139.8Zm124.8 0v139.8h-31.5V53.6h36.8L938 181.3V53.6h31.2v222.6h-32.8l-44-139.8Zm93.2-82.8h89.3v30.5h-51.9v63.7h37.1V178h-37.1v67.6h51.9v30.5h-89.3V53.6ZM1124 174.1v102.1h-37.4V53.6h54.5c37.7 0 51.5 18.7 51.5 49.9v28.6c0 24-8.5 38.1-29.9 43l35.8 101.1h-39.4L1124 174.1Zm0-89.9v69.3h12.5c12.8 0 18.4-6.6 18.4-18.4v-32.8c0-12.1-5.6-18.1-18.4-18.1H1124ZM727.1 323.6v41.8c0 13.9-5.7 24.2-22 24.2h-23.4v-90.3h23.4c16.2 0 22 10.3 22 24.2Zm-23.8 53.7c6.3 0 8.7-3.7 8.7-9.2v-47.3c0-5.3-2.4-9.1-8.7-9.1h-6.4v65.5h6.4Zm30.4-78h36.2v12.4h-21v25.8h15v12.3h-15v27.4h21v12.4h-36.2v-90.3Zm88.3 0-17.2 90.3h-16.5l-17.2-90.3h15.4l10.4 63h.1l10.7-63h14.2Zm4.3 0h36.2v12.4h-21v25.8h15v12.3h-15v27.4h21v12.4h-36.2v-90.3Zm42.3 0h15.2v77.9h18.1v12.4h-33.3v-90.3Zm34.3 67v-43.7c0-14.1 6.9-24.4 22.9-24.4s23 10.3 23 24.4v43.7c0 14-6.9 24.4-23 24.4s-22.9-10.4-22.9-24.4Zm30.8 2.4v-48.5c0-5.5-2.4-9.3-7.9-9.3s-7.7 3.9-7.7 9.3v48.5c0 5.5 2.4 9.3 7.7 9.3s7.9-3.9 7.9-9.3Zm21.8-69.4H978c15.3 0 20.9 7.6 20.9 20.2v19c0 12.7-5.6 20.4-20.9 20.4h-7.3v30.6h-15.2v-90.3Zm15.2 12.4v35.6h5.6c5.2 0 7.5-2.5 7.5-7.5V319c0-4.9-2.3-7.3-7.5-7.3h-5.6Zm75.9 19.3h-.4l-10.3 58.6h-7.1l-11.3-58.6h-.3v58.6h-12.5v-90.3h17.7l9.9 50.9h.1l8.8-50.9h19.2v90.3h-13.9V331Zm21.8-31.7h36.2v12.4h-21v25.8h15v12.3h-15v27.4h21v12.4h-36.2v-90.3Zm55.1 33.6v56.7h-12.8v-90.3h14.9l16.4 51.8v-51.8h12.7v90.3h-13.3l-17.8-56.7Zm34.8-33.6h40.4v12.4h-12.5v77.9h-15.3v-77.9h-12.5v-12.4Zm-428.5 206h47.6v106.3h-24.1v-21.7c-4.4 15-13.8 24.1-32 24.1-28.8 0-42-22.9-42-53.7V464c0-31.1 15-53.7 50.2-53.7s47.8 20.5 47.8 49.9v17.6h-30.5v-20.3c0-12.3-4.7-19.4-16.7-19.4s-17.3 8.5-17.3 20.5v106.9c0 12 5 20.5 16.4 20.5s16.4-6.2 16.4-19.1v-35.2h-15.9v-26.4Zm62.2 54.9v-96.3c0-31.1 15.3-53.7 50.5-53.7s50.8 22.6 50.8 53.7v96.3c0 30.8-15.3 53.7-50.8 53.7S792 591 792 560.2Zm67.8 5.3V458.6c0-12-5.3-20.5-17.3-20.5s-17 8.5-17 20.5v106.9c0 12 5.3 20.5 17 20.5s17.3-8.5 17.3-20.5Zm36.7 46.1 37.6-199h38.2l37.9 199h-34.3l-6.2-36.4h-35.5l-5.9 36.4h-31.7Zm42-63.1h26.7L952 468.7h-.3l-13.2 79.8Zm81-135.9h33.5v171.7h39.9v27.3h-73.4v-199Zm75.7 156.1V542h31.1v27.3c0 11.2 5 17.6 16.4 17.6s15.3-7 15.3-17.6v-7.6c0-11.4-4.7-18.5-15-28.2l-19.7-19.7c-19.1-18.8-27.9-30.2-27.9-53.1v-6.8c0-24.7 14.4-43.7 47-43.7s46.7 16.4 46.7 45.2v16.1h-30.5v-17.3c0-11.4-5.3-17-15.9-17s-15.9 5.3-15.9 16.4v4.1c0 11.2 6.2 17.6 15.9 27l21.4 21.1c18.2 18.5 27 29.6 27 51.7v9.7c0 27.3-14.7 46.7-48.7 46.7s-47.3-19.1-47.3-45.2Z"/></svg>